<?xml version="1.0" encoding="UTF-8"?>
<svg id="Layer_1" data-name="Layer 1" xmlns="http://www.w3.org/2000/svg" viewBox="0 0 432 432">
  <defs>
    <style>
      .cls-1, .cls-2, .cls-3, .cls-4 {
        fill: #231f20;
      }

      .cls-1, .cls-5, .cls-4, .cls-6 {
        font-family: AJensonPro-Semibold, 'Adobe Jenson Pro';
        font-weight: 600;
      }

      .cls-1, .cls-6 {
        font-size: 31.95px;
      }

      .cls-2 {
        font-family: Avenir-Medium, Avenir;
        font-size: 13.75px;
        font-weight: 500;
      }

      .cls-7 {
        opacity: .36;
        stroke-width: 1.07px;
      }

      .cls-7, .cls-8 {
        fill: none;
        stroke: #231f20;
        stroke-miterlimit: 10;
      }

      .cls-8 {
        stroke-width: 1.03px;
      }

      .cls-9 {
        opacity: .2;
      }

      .cls-5, .cls-4 {
        font-size: 33.85px;
      }

      .cls-5, .cls-6 {
        fill: #f4f6f3;
      }

      .cls-10 {
        letter-spacing: -.04em;
      }

      .cls-11 {
        letter-spacing: .06em;
      }

      .cls-12 {
        letter-spacing: .05em;
      }

      .cls-13 {
        letter-spacing: .05em;
      }

      .cls-14 {
        letter-spacing: .05em;
      }

      .cls-15 {
        letter-spacing: .05em;
      }

      .cls-16 {
        letter-spacing: .05em;
      }

      .cls-17 {
        letter-spacing: .05em;
      }

      .cls-18 {
        letter-spacing: .05em;
      }

      .cls-19 {
        letter-spacing: .04em;
      }
    </style>
  </defs>
  <g>
    <text class="cls-6" transform="translate(144 267.66)"><tspan class="cls-13" x="0" y="0">C</tspan><tspan class="cls-11" x="23.16" y="0">I</tspan><tspan class="cls-15" x="36.77" y="0">N</tspan><tspan class="cls-18" x="63.71" y="0">Q</tspan><tspan class="cls-19" x="90.74" y="0">U</tspan><tspan class="cls-16" x="116.27" y="0">E </tspan></text>
    <text class="cls-1" transform="translate(144 267.66)"><tspan class="cls-13" x="0" y="0">C</tspan><tspan class="cls-11" x="23.16" y="0">I</tspan><tspan class="cls-15" x="36.77" y="0">N</tspan><tspan class="cls-18" x="63.71" y="0">Q</tspan><tspan class="cls-19" x="90.74" y="0">U</tspan><tspan class="cls-16" x="116.27" y="0">E </tspan></text>
    <g class="cls-9">
      <text class="cls-1" transform="translate(144 267.66)"><tspan class="cls-13" x="0" y="0">C</tspan><tspan class="cls-11" x="23.16" y="0">I</tspan><tspan class="cls-15" x="36.77" y="0">N</tspan><tspan class="cls-18" x="63.71" y="0">Q</tspan><tspan class="cls-19" x="90.74" y="0">U</tspan><tspan class="cls-16" x="116.27" y="0">E </tspan></text>
    </g>
  </g>
  <g>
    <text class="cls-5" transform="translate(157.09 304)"><tspan class="cls-17" x="0" y="0">T</tspan><tspan class="cls-12" x="25.89" y="0">ERRE</tspan></text>
    <text class="cls-4" transform="translate(157.09 304)"><tspan class="cls-17" x="0" y="0">T</tspan><tspan class="cls-12" x="25.89" y="0">ERRE</tspan></text>
    <g class="cls-9">
      <text class="cls-4" transform="translate(157.09 304)"><tspan class="cls-17" x="0" y="0">T</tspan><tspan class="cls-12" x="25.89" y="0">ERRE</tspan></text>
    </g>
  </g>
  <text class="cls-2" transform="translate(193.9 327.11)"><tspan class="cls-14" x="0" y="0">I</tspan><tspan class="cls-10" x="4.51" y="0">T</tspan><tspan class="cls-14" x="11.83" y="0">ALIA</tspan></text>
  <g>
    <path class="cls-8" d="M256.85,223.81c-1.67,1.73-2.27-.86-4.68-.86s-2.41.08-4.82.08-2.41,1.03-4.82,1.03-2.41,0-4.82,0-2.41.05-4.82.05-2.41-.82-4.82-.82-2.41,1.21-4.82,1.21-2.41-1.68-4.82-1.68-2.41.27-4.82.27-2.41-.08-4.82-.08-2.41.89-4.82.89-2.41.11-4.82.11-2.41.13-4.82.13-2.41-1.09-4.82-1.09-2.41,1.2-4.83,1.2-2.42-1.49-4.83-1.49-3.21,2.98-4.89,1.25-.55-2.55-.55-5.04.24-2.49.24-4.98-.52-2.49-.52-4.99,1.63-2.49,1.63-4.98-.66-2.49-.66-4.99.96-2.49.96-4.98.04-2.49.04-4.99-1.65-2.49-1.65-4.99.18-2.49.18-4.99-.1-2.49-.1-4.99.67-2.49.67-4.99-.65-2.49-.65-4.99.58-2.49.58-4.99,1.11-2.49,1.11-4.98-2.43-2.49-2.43-4.99,2.23-2.49,2.23-4.98-1.97-2.49-1.97-4.99.53-2.49.53-4.99-.7-2.49-.7-4.99.03-2.49.03-4.99,1.2-2.5,1.2-4.99.61-2.49.61-4.99-1.59-2.5-1.59-4.99-.19-2.5-.19-5-.21-2.75,1.53-4.54,1.94-1.18,4.35-1.18,2.41-.44,4.82-.44,2.41,1.9,4.82,1.9,2.41-1.27,4.82-1.27,2.41,1.06,4.82,1.06,2.41-1.24,4.82-1.24,2.41-.16,4.82-.16,2.41,1,4.82,1,2.41-.08,4.82-.08,2.41-.07,4.82-.07,2.41-1.19,4.82-1.19,2.41.46,4.82.46,2.41.38,4.82.38,2.41.54,4.82.54,2.41.66,4.83.66,2.42-1.67,4.83-1.67,2.88-.63,4.56,1.11-.34,2.23-.34,4.72,1.77,2.49,1.77,4.98-.97,2.49-.97,4.99.09,2.49.09,4.98.84,2.49.84,4.99-1.38,2.49-1.38,4.98.69,2.49.69,4.99-.62,2.49-.62,4.99.08,2.49.08,4.99-.87,2.49-.87,4.99,1.88,2.49,1.88,4.99-.47,2.49-.47,4.99.13,2.49.13,4.99.53,2.49.53,4.98-2.11,2.49-2.11,4.99.89,2.49.89,4.98-.14,2.49-.14,4.99,1.2,2.49,1.2,4.99-.42,2.49-.42,4.99.43,2.49.43,4.99-.56,2.5-.56,4.99.54,2.49.54,4.99-.42,2.5-.42,4.99-1.36,2.62-.88,5.07,1.98,2.98.25,4.78Z"/>
    <path class="cls-7" d="M256.85,223.81c-1.67,1.73-2.27-.86-4.68-.86s-2.41.08-4.82.08-2.41,1.03-4.82,1.03-2.41,0-4.82,0-2.41.05-4.82.05-2.41-.82-4.82-.82-2.41,1.21-4.82,1.21-2.41-1.68-4.82-1.68-2.41.27-4.82.27-2.41-.08-4.82-.08-2.41.89-4.82.89-2.41.11-4.82.11-2.41.13-4.82.13-2.41-1.09-4.82-1.09-2.41,1.2-4.83,1.2-2.42-1.49-4.83-1.49-3.21,2.98-4.89,1.25-.55-2.55-.55-5.04.24-2.49.24-4.98-.52-2.49-.52-4.99,1.63-2.49,1.63-4.98-.66-2.49-.66-4.99.96-2.49.96-4.98.04-2.49.04-4.99-1.65-2.49-1.65-4.99.18-2.49.18-4.99-.1-2.49-.1-4.99.67-2.49.67-4.99-.65-2.49-.65-4.99.58-2.49.58-4.99,1.11-2.49,1.11-4.98-2.43-2.49-2.43-4.99,2.23-2.49,2.23-4.98-1.97-2.49-1.97-4.99.53-2.49.53-4.99-.7-2.49-.7-4.99.03-2.49.03-4.99,1.2-2.5,1.2-4.99.61-2.49.61-4.99-1.59-2.5-1.59-4.99-.19-2.5-.19-5-.21-2.75,1.53-4.54,1.94-1.18,4.35-1.18,2.41-.44,4.82-.44,2.41,1.9,4.82,1.9,2.41-1.27,4.82-1.27,2.41,1.06,4.82,1.06,2.41-1.24,4.82-1.24,2.41-.16,4.82-.16,2.41,1,4.82,1,2.41-.08,4.82-.08,2.41-.07,4.82-.07,2.41-1.19,4.82-1.19,2.41.46,4.82.46,2.41.38,4.82.38,2.41.54,4.82.54,2.41.66,4.83.66,2.42-1.67,4.83-1.67,2.88-.63,4.56,1.11-.34,2.23-.34,4.72,1.77,2.49,1.77,4.98-.97,2.49-.97,4.99.09,2.49.09,4.98.84,2.49.84,4.99-1.38,2.49-1.38,4.98.69,2.49.69,4.99-.62,2.49-.62,4.99.08,2.49.08,4.99-.87,2.49-.87,4.99,1.88,2.49,1.88,4.99-.47,2.49-.47,4.99.13,2.49.13,4.99.53,2.49.53,4.98-2.11,2.49-2.11,4.99.89,2.49.89,4.98-.14,2.49-.14,4.99,1.2,2.49,1.2,4.99-.42,2.49-.42,4.99.43,2.49.43,4.99-.56,2.5-.56,4.99.54,2.49.54,4.99-.42,2.5-.42,4.99-1.36,2.62-.88,5.07,1.98,2.98.25,4.78Z"/>
  </g>
  <g>
    <g>
      <path class="cls-3" d="M237.34,115.8c-.49,0-1-.02-1.51-.07l-1.1-.11.8-.77c1.46-1.41,2.9-2.75,4.54-3.62,1.67-.88,3.51-1.22,5.3-1.54l.29-.05c1.81-.33,3.38-.38,5.4-.18l1.1.11-.79.77c-1.33,1.29-2.56,2.43-4.29,3.34-1.82.96-3.8,1.37-5.51,1.68-1.25.23-2.69.44-4.23.44ZM237.1,114.76c1.55.04,3.02-.19,4.29-.42,1.63-.3,3.52-.69,5.21-1.58,1.25-.66,2.24-1.47,3.22-2.38-1.4-.07-2.62.01-3.98.26l-.29.05c-1.7.31-3.47.62-5,1.43-1.21.64-2.34,1.59-3.45,2.63Z"/>
      <path class="cls-3" d="M210.02,125.83c-1.52,0-3.03-.22-4.49-.43-.37-.05-.73-.11-1.09-.16-1.65-.23-3.39-.6-5.47-1.19-1.39-.39-2.7-.99-3.97-1.57-.4-.18-.79-.36-1.19-.54-1.22-.53-2.32-1.26-3.39-1.96-.45-.3-.91-.6-1.37-.88-.55-.34-1.13-.65-1.71-.96-1.07-.57-2.18-1.16-3.13-1.94l-.49-.4.48-.4c1.13-.93,2.43-1.71,3.69-2.46.35-.21.7-.42,1.04-.63.42-.26.83-.52,1.25-.79,1.13-.72,2.29-1.47,3.56-2.03.5-.22,1.01-.46,1.51-.7,1.17-.56,2.38-1.14,3.66-1.49,1.84-.52,3.88-.8,5.53-1.02,1.26-.17,2.56-.12,3.82-.08.59.02,1.18.04,1.77.04h.97c1.52-.01,3.09-.02,4.6.18,1.83.25,3.62.73,5.44,1.24,1.29.36,2.49.93,3.65,1.48.49.23.98.47,1.48.68.6.26,1.25.49,1.87.72,1.11.39,2.25.8,3.28,1.43,1.46.89,2.94,1.96,4.54,3.27l.2.17-.02.26c-.01.25-.26.51-.3.54-1.47,1.2-3.13,2.22-4.6,3.12-1.21.74-2.52,1.29-3.79,1.82-.41.17-.82.34-1.23.52-.66.29-1.28.67-1.94,1.08-.95.58-1.94,1.19-3.05,1.5-1.09.31-2.23.31-3.34.31-.75,0-1.53,0-2.26.1-.71.1-1.42.3-2.17.52-1.07.31-2.18.63-3.34.63ZM185.37,115.82c.76.54,1.61.99,2.45,1.44.6.32,1.2.64,1.77.99.47.29.94.59,1.4.9,1.08.71,2.1,1.38,3.24,1.88.4.18.8.36,1.21.54,1.24.56,2.51,1.14,3.82,1.51,2.03.57,3.73.94,5.33,1.16.36.05.73.1,1.1.16,1.42.21,2.9.42,4.34.42,1.01,0,2.01-.29,3.06-.59.75-.22,1.53-.44,2.31-.55.8-.11,1.61-.11,2.39-.11,1.09,0,2.12,0,3.07-.27.97-.27,1.86-.81,2.79-1.39.66-.41,1.35-.83,2.07-1.14.41-.18.83-.35,1.24-.53,1.29-.54,2.51-1.05,3.65-1.75,1.32-.81,2.81-1.72,4.15-2.77-1.39-1.11-2.7-2.04-3.98-2.83-.94-.57-1.98-.95-3.09-1.34-.64-.23-1.3-.46-1.94-.74-.51-.22-1.01-.46-1.51-.7-1.12-.53-2.28-1.08-3.48-1.42-1.78-.5-3.53-.97-5.3-1.21-1.44-.2-2.91-.19-4.46-.18h-.98c-.6,0-1.21-.02-1.81-.04-1.27-.05-2.47-.09-3.65.07-1.69.23-3.61.49-5.39.99-1.19.34-2.36.89-3.49,1.43-.52.25-1.03.49-1.54.72-1.19.52-2.32,1.25-3.41,1.95-.42.27-.84.54-1.27.8-.35.21-.7.42-1.05.64-1.03.62-2.1,1.25-3.05,1.97Z"/>
      <path class="cls-3" d="M250.43,122.8c-1.68,0-3.31-.32-4.78-.61-.34-.07-.68-.13-1.02-.19-1.61-.29-3.27-.59-4.78-1.41-1.43-.77-2.58-1.96-3.69-3.11-.28-.28-.55-.57-.83-.85-.11-.11-.21-.29-.15-.56l-.5-.56,1.01-.1c1.78-.18,3.49-.06,5.56.39.31.07.63.13.94.19,1.5.3,3.06.6,4.47,1.46,1.47.9,2.96,2.09,4.41,3.55l-.36.36.42-.31c.19.19.76.76.82.83l.67.75-1,.1c-.39.04-.79.06-1.18.06ZM236.52,116.38c.12.13.25.26.37.39,1.1,1.14,2.15,2.23,3.44,2.91,1.38.74,2.96,1.02,4.48,1.3.35.06.69.13,1.03.19,1.4.28,2.95.58,4.52.59l-.04-.04c-1.4-1.4-2.82-2.54-4.22-3.4-1.25-.76-2.65-1.04-4.13-1.33-.32-.06-.64-.13-.96-.19-1.67-.36-3.09-.49-4.5-.42Z"/>
    </g>
    <path class="cls-3" d="M196.56,113.82c-1.02-1.54-3.05-1.98-4.54-1-.73.48-1.21,1.23-1.35,2.1-.13.84.06,1.7.54,2.44.48.73,1.2,1.24,2.02,1.43.24.06.48.08.72.08.6,0,1.2-.18,1.72-.52.73-.48,1.22-1.22,1.38-2.08.16-.85-.02-1.72-.5-2.45ZM196.05,116.07c-.11.58-.45,1.08-.94,1.41-.49.32-1.07.43-1.63.3-.36-.09-.69-.27-.97-.52.45.11.94.05,1.36-.23.79-.52,1.01-1.59.48-2.38-.48-.73-1.43-.96-2.2-.58.13-.15.27-.29.43-.4.36-.24.77-.35,1.17-.35.74,0,1.48.38,1.94,1.06.33.51.46,1.1.35,1.69Z"/>
  </g>
  <g>
    <g>
      <path class="cls-3" d="M237.34,161.25c-.49,0-1-.02-1.51-.07l-1.1-.11.8-.77c1.46-1.41,2.9-2.75,4.54-3.62,1.67-.88,3.51-1.22,5.3-1.54l.29-.05c1.81-.33,3.38-.38,5.4-.18l1.1.11-.79.77c-1.33,1.29-2.56,2.43-4.29,3.34-1.82.96-3.8,1.37-5.51,1.68-1.25.23-2.69.44-4.23.44ZM237.1,160.22c1.55.04,3.02-.19,4.29-.42,1.63-.3,3.52-.69,5.21-1.58,1.25-.66,2.24-1.47,3.22-2.38-1.4-.07-2.62.01-3.98.26l-.29.05c-1.7.31-3.47.62-5,1.43-1.21.64-2.34,1.59-3.45,2.63Z"/>
      <path class="cls-3" d="M210.02,171.29c-1.52,0-3.03-.22-4.49-.43-.37-.05-.73-.11-1.09-.16-1.65-.23-3.39-.6-5.47-1.19-1.39-.39-2.7-.99-3.97-1.57-.4-.18-.79-.36-1.19-.54-1.22-.53-2.32-1.26-3.39-1.96-.45-.3-.91-.6-1.37-.88-.55-.34-1.13-.65-1.71-.96-1.07-.57-2.18-1.16-3.13-1.94l-.49-.4.48-.4c1.13-.93,2.43-1.71,3.69-2.46.35-.21.7-.42,1.04-.63.42-.26.83-.52,1.25-.79,1.13-.72,2.29-1.47,3.56-2.03.5-.22,1.01-.46,1.51-.7,1.17-.56,2.38-1.14,3.66-1.49,1.84-.52,3.88-.8,5.53-1.02,1.26-.17,2.56-.12,3.82-.08.59.02,1.18.04,1.77.04h.97c1.52-.01,3.09-.02,4.6.18,1.83.25,3.62.73,5.44,1.24,1.29.36,2.49.93,3.65,1.48.49.23.98.47,1.48.68.6.26,1.25.49,1.87.72,1.11.39,2.25.8,3.28,1.43,1.46.89,2.94,1.96,4.54,3.27l.2.17-.02.26c-.01.25-.26.51-.3.54-1.47,1.2-3.13,2.22-4.6,3.12-1.21.74-2.52,1.29-3.79,1.82-.41.17-.82.34-1.23.52-.66.29-1.28.67-1.94,1.08-.95.58-1.94,1.19-3.05,1.5-1.09.31-2.23.31-3.34.31-.75,0-1.53,0-2.26.1-.71.1-1.42.3-2.17.52-1.07.31-2.18.63-3.34.63ZM185.37,161.27c.76.54,1.61.99,2.45,1.44.6.32,1.2.64,1.77.99.47.29.94.59,1.4.9,1.08.71,2.1,1.38,3.24,1.88.4.18.8.36,1.21.54,1.24.56,2.51,1.14,3.82,1.51,2.03.57,3.73.94,5.33,1.16.36.05.73.1,1.1.16,1.42.21,2.9.42,4.34.42,1.01,0,2.01-.29,3.06-.59.75-.22,1.53-.44,2.31-.55.8-.11,1.61-.11,2.39-.11,1.09,0,2.12,0,3.07-.27.97-.27,1.86-.81,2.79-1.39.66-.41,1.35-.83,2.07-1.14.41-.18.83-.35,1.24-.53,1.29-.54,2.51-1.05,3.65-1.75,1.32-.81,2.81-1.72,4.15-2.77-1.39-1.11-2.7-2.04-3.98-2.83-.94-.57-1.98-.95-3.09-1.34-.64-.23-1.3-.46-1.94-.74-.51-.22-1.01-.46-1.51-.7-1.12-.53-2.28-1.08-3.48-1.42-1.78-.5-3.53-.97-5.3-1.21-1.44-.2-2.91-.19-4.46-.18h-.98c-.6,0-1.21-.02-1.81-.04-1.27-.05-2.47-.09-3.65.07-1.69.23-3.61.49-5.39.99-1.19.34-2.36.89-3.49,1.43-.52.25-1.03.49-1.54.72-1.19.52-2.32,1.25-3.41,1.95-.42.27-.84.54-1.27.8-.35.21-.7.42-1.05.64-1.03.62-2.1,1.25-3.05,1.97Z"/>
      <path class="cls-3" d="M250.43,168.25c-1.68,0-3.31-.32-4.78-.61-.34-.07-.68-.13-1.02-.19-1.61-.29-3.27-.59-4.78-1.41-1.43-.77-2.58-1.96-3.69-3.11-.28-.28-.55-.57-.83-.85-.11-.11-.21-.29-.15-.56l-.5-.56,1.01-.1c1.78-.18,3.49-.06,5.56.39.31.07.63.13.94.19,1.5.3,3.06.6,4.47,1.46,1.47.9,2.96,2.09,4.41,3.55l-.36.36.42-.31c.19.19.76.76.82.83l.67.75-1,.1c-.39.04-.79.06-1.18.06ZM236.52,161.84c.12.13.25.26.37.39,1.1,1.14,2.15,2.23,3.44,2.91,1.38.74,2.96,1.02,4.48,1.3.35.06.69.13,1.03.19,1.4.28,2.95.58,4.52.59l-.04-.04c-1.4-1.4-2.82-2.54-4.22-3.4-1.25-.76-2.65-1.04-4.13-1.33-.32-.06-.64-.13-.96-.19-1.67-.36-3.09-.49-4.5-.42Z"/>
    </g>
    <path class="cls-3" d="M196.56,159.31c-1.02-1.54-3.05-1.98-4.54-1-.73.48-1.21,1.23-1.35,2.1-.13.84.06,1.7.54,2.44.48.73,1.2,1.24,2.02,1.43.24.06.48.08.72.08.6,0,1.2-.18,1.72-.52.73-.48,1.22-1.22,1.38-2.08.16-.85-.02-1.72-.5-2.45ZM196.05,161.57c-.11.58-.45,1.08-.94,1.41-.49.32-1.07.43-1.63.3-.36-.09-.69-.27-.97-.52.45.11.94.05,1.36-.23.79-.52,1.01-1.59.48-2.38-.48-.73-1.43-.96-2.2-.58.13-.15.27-.29.43-.4.36-.24.77-.35,1.17-.35.74,0,1.48.38,1.94,1.06.33.51.46,1.1.35,1.69Z"/>
  </g>
  <g>
    <g>
      <path class="cls-3" d="M237.34,206.71c-.49,0-1-.02-1.51-.07l-1.1-.11.8-.77c1.46-1.41,2.9-2.75,4.54-3.62,1.67-.88,3.51-1.22,5.3-1.54l.29-.05c1.81-.33,3.38-.38,5.4-.18l1.1.11-.79.77c-1.33,1.29-2.56,2.43-4.29,3.34-1.82.96-3.8,1.37-5.51,1.68-1.25.23-2.69.44-4.23.44ZM237.1,205.67c1.55.04,3.02-.19,4.29-.42,1.63-.3,3.52-.69,5.21-1.58,1.25-.66,2.24-1.47,3.22-2.38-1.4-.07-2.62.01-3.98.26l-.29.05c-1.7.31-3.47.62-5,1.43-1.21.64-2.34,1.59-3.45,2.63Z"/>
      <path class="cls-3" d="M210.02,216.74c-1.52,0-3.03-.22-4.49-.43-.37-.05-.73-.11-1.09-.16-1.65-.23-3.39-.6-5.47-1.19-1.39-.39-2.7-.99-3.97-1.57-.4-.18-.79-.36-1.19-.54-1.22-.53-2.32-1.26-3.39-1.96-.45-.3-.91-.6-1.37-.88-.55-.34-1.13-.65-1.71-.96-1.07-.57-2.18-1.16-3.13-1.94l-.49-.4.48-.4c1.13-.93,2.43-1.71,3.69-2.46.35-.21.7-.42,1.04-.63.42-.26.83-.52,1.25-.79,1.13-.72,2.29-1.47,3.56-2.03.5-.22,1.01-.46,1.51-.7,1.17-.56,2.38-1.14,3.66-1.49,1.84-.52,3.88-.8,5.53-1.02,1.26-.17,2.56-.12,3.82-.08.59.02,1.18.04,1.77.04h.97c1.52-.01,3.09-.02,4.6.18,1.83.25,3.62.73,5.44,1.24,1.29.36,2.49.93,3.65,1.48.49.23.98.47,1.48.68.6.26,1.25.49,1.87.72,1.11.39,2.25.8,3.28,1.43,1.46.89,2.94,1.96,4.54,3.27l.2.17-.02.26c-.01.25-.26.51-.3.54-1.47,1.2-3.13,2.22-4.6,3.12-1.21.74-2.52,1.29-3.79,1.82-.41.17-.82.34-1.23.52-.66.29-1.28.67-1.94,1.08-.95.58-1.94,1.19-3.05,1.5-1.09.31-2.23.31-3.34.31-.75,0-1.53,0-2.26.1-.71.1-1.42.3-2.17.52-1.07.31-2.18.63-3.34.63ZM185.37,206.72c.76.54,1.61.99,2.45,1.44.6.32,1.2.64,1.77.99.47.29.94.59,1.4.9,1.08.71,2.1,1.38,3.24,1.88.4.18.8.36,1.21.54,1.24.56,2.51,1.14,3.82,1.51,2.03.57,3.73.94,5.33,1.16.36.05.73.1,1.1.16,1.42.21,2.9.42,4.34.42,1.01,0,2.01-.29,3.06-.59.75-.22,1.53-.44,2.31-.55.8-.11,1.61-.11,2.39-.11,1.09,0,2.12,0,3.07-.27.97-.27,1.86-.81,2.79-1.39.66-.41,1.35-.83,2.07-1.14.41-.18.83-.35,1.24-.53,1.29-.54,2.51-1.05,3.65-1.75,1.32-.81,2.81-1.72,4.15-2.77-1.39-1.11-2.7-2.04-3.98-2.83-.94-.57-1.98-.95-3.09-1.34-.64-.23-1.3-.46-1.94-.74-.51-.22-1.01-.46-1.51-.7-1.12-.53-2.28-1.08-3.48-1.42-1.78-.5-3.53-.97-5.3-1.21-1.44-.2-2.91-.19-4.46-.18h-.98c-.6,0-1.21-.02-1.81-.04-1.27-.05-2.47-.09-3.65.07-1.69.23-3.61.49-5.39.99-1.19.34-2.36.89-3.49,1.43-.52.25-1.03.49-1.54.72-1.19.52-2.32,1.25-3.41,1.95-.42.27-.84.54-1.27.8-.35.21-.7.42-1.05.64-1.03.62-2.1,1.25-3.05,1.97Z"/>
      <path class="cls-3" d="M250.43,213.71c-1.68,0-3.31-.32-4.78-.61-.34-.07-.68-.13-1.02-.19-1.61-.29-3.27-.59-4.78-1.41-1.43-.77-2.58-1.96-3.69-3.11-.28-.28-.55-.57-.83-.85-.11-.11-.21-.29-.15-.56l-.5-.56,1.01-.1c1.78-.18,3.49-.06,5.56.39.31.07.63.13.94.19,1.5.3,3.06.6,4.47,1.46,1.47.9,2.96,2.09,4.41,3.55l-.36.36.42-.31c.19.19.76.76.82.83l.67.75-1,.1c-.39.04-.79.06-1.18.06ZM236.52,207.29c.12.13.25.26.37.39,1.1,1.14,2.15,2.23,3.44,2.91,1.38.74,2.96,1.02,4.48,1.3.35.06.69.13,1.03.19,1.4.28,2.95.58,4.52.59l-.04-.04c-1.4-1.4-2.82-2.54-4.22-3.4-1.25-.76-2.65-1.04-4.13-1.33-.32-.06-.64-.13-.96-.19-1.67-.36-3.09-.49-4.5-.42Z"/>
    </g>
    <path class="cls-3" d="M196.56,204.74c-1.02-1.54-3.05-1.98-4.54-1-.73.48-1.21,1.23-1.35,2.1-.13.84.06,1.7.54,2.44.48.73,1.2,1.24,2.02,1.43.24.06.48.08.72.08.6,0,1.2-.18,1.72-.52.73-.48,1.22-1.22,1.38-2.08.16-.85-.02-1.72-.5-2.45ZM196.05,206.99c-.11.58-.45,1.08-.94,1.41-.49.32-1.07.43-1.63.3-.36-.09-.69-.27-.97-.52.45.11.94.05,1.36-.23.79-.52,1.01-1.59.48-2.38-.48-.73-1.43-.96-2.2-.58.13-.15.27-.29.43-.4.36-.24.77-.35,1.17-.35.74,0,1.48.38,1.94,1.06.33.51.46,1.1.35,1.69Z"/>
  </g>
  <g>
    <g>
      <path class="cls-3" d="M198.98,138.52c.49,0,1-.02,1.51-.07l1.1-.11-.8-.77c-1.46-1.41-2.9-2.75-4.54-3.62-1.67-.88-3.51-1.22-5.3-1.54l-.29-.05c-1.81-.33-3.38-.38-5.4-.18l-1.1.11.79.77c1.33,1.29,2.56,2.43,4.29,3.34,1.82.96,3.8,1.37,5.51,1.68,1.25.23,2.69.44,4.23.44ZM199.23,137.49c-1.55.04-3.02-.19-4.29-.42-1.63-.3-3.52-.69-5.21-1.58-1.25-.66-2.24-1.47-3.22-2.38,1.4-.07,2.62.01,3.98.26l.29.05c1.7.31,3.47.62,5,1.43,1.21.64,2.34,1.59,3.45,2.63Z"/>
      <path class="cls-3" d="M226.3,148.56c1.52,0,3.03-.22,4.49-.43.37-.05.73-.11,1.09-.16,1.65-.23,3.39-.6,5.47-1.19,1.39-.39,2.7-.99,3.97-1.57.4-.18.79-.36,1.19-.54,1.22-.53,2.32-1.26,3.39-1.96.45-.3.91-.6,1.37-.88.55-.34,1.13-.65,1.71-.96,1.07-.57,2.18-1.16,3.13-1.94l.49-.4-.48-.4c-1.13-.93-2.43-1.71-3.69-2.46-.35-.21-.7-.42-1.04-.63-.42-.26-.83-.52-1.25-.79-1.13-.72-2.29-1.47-3.56-2.03-.5-.22-1.01-.46-1.51-.7-1.17-.56-2.38-1.14-3.66-1.49-1.84-.52-3.88-.8-5.53-1.02-1.26-.17-2.56-.12-3.82-.08-.59.02-1.18.04-1.77.04h-.97c-1.52-.01-3.09-.02-4.6.18-1.83.25-3.62.73-5.44,1.24-1.29.36-2.49.93-3.65,1.48-.49.23-.98.47-1.48.68-.6.26-1.25.49-1.87.72-1.11.39-2.25.8-3.28,1.43-1.46.89-2.94,1.96-4.54,3.27l-.2.17.02.26c.01.25.26.51.3.54,1.47,1.2,3.13,2.22,4.6,3.12,1.21.74,2.52,1.29,3.79,1.82.41.17.82.34,1.23.52.66.29,1.28.67,1.94,1.08.95.58,1.94,1.19,3.05,1.5,1.09.31,2.23.31,3.34.31.75,0,1.53,0,2.26.1.71.1,1.42.3,2.17.52,1.07.31,2.18.63,3.34.63ZM250.95,138.54c-.76.54-1.61.99-2.45,1.44-.6.32-1.2.64-1.77.99-.47.29-.94.59-1.4.9-1.08.71-2.1,1.38-3.24,1.88-.4.18-.8.36-1.21.54-1.24.56-2.51,1.14-3.82,1.51-2.03.57-3.73.94-5.33,1.16-.36.05-.73.1-1.1.16-1.42.21-2.9.42-4.34.42-1.01,0-2.01-.29-3.06-.59-.75-.22-1.53-.44-2.31-.55-.8-.11-1.61-.11-2.39-.11-1.09,0-2.12,0-3.07-.27-.97-.27-1.86-.81-2.79-1.39-.66-.41-1.35-.83-2.07-1.14-.41-.18-.83-.35-1.24-.53-1.29-.54-2.51-1.05-3.65-1.75-1.32-.81-2.81-1.72-4.15-2.77,1.39-1.11,2.7-2.04,3.98-2.83.94-.57,1.98-.95,3.09-1.34.64-.23,1.3-.46,1.94-.74.51-.22,1.01-.46,1.51-.7,1.12-.53,2.28-1.08,3.48-1.42,1.78-.5,3.53-.97,5.3-1.21,1.44-.2,2.91-.19,4.46-.18h.98c.6,0,1.21-.02,1.81-.04,1.27-.05,2.47-.09,3.65.07,1.69.23,3.61.49,5.39.99,1.19.34,2.36.89,3.49,1.43.52.25,1.03.49,1.54.72,1.19.52,2.32,1.25,3.41,1.95.42.27.84.54,1.27.8.35.21.7.42,1.05.64,1.03.62,2.1,1.25,3.05,1.97Z"/>
      <path class="cls-3" d="M185.89,145.52c1.68,0,3.31-.32,4.78-.61.34-.07.68-.13,1.02-.19,1.61-.29,3.27-.59,4.78-1.41,1.43-.77,2.58-1.96,3.69-3.11.28-.28.55-.57.83-.85.11-.11.21-.29.15-.56l.5-.56-1.01-.1c-1.78-.18-3.49-.06-5.56.39-.31.07-.63.13-.94.19-1.5.3-3.06.6-4.47,1.46-1.47.9-2.96,2.09-4.41,3.55l.36.36-.42-.31c-.19.19-.76.76-.82.83l-.67.75,1,.1c.39.04.79.06,1.18.06ZM199.8,139.11c-.12.13-.25.26-.37.39-1.1,1.14-2.15,2.23-3.44,2.91-1.38.74-2.96,1.02-4.48,1.3-.35.06-.69.13-1.03.19-1.4.28-2.95.58-4.52.59l.04-.04c1.4-1.4,2.82-2.54,4.22-3.4,1.25-.76,2.65-1.04,4.13-1.33.32-.06.64-.13.96-.19,1.67-.36,3.09-.49,4.5-.42Z"/>
    </g>
    <path class="cls-3" d="M239.76,136.53c1.02-1.54,3.05-1.98,4.54-1,.73.48,1.21,1.23,1.35,2.1.13.84-.06,1.7-.54,2.44-.48.73-1.2,1.24-2.02,1.43-.24.06-.48.08-.72.08-.6,0-1.2-.18-1.72-.52-.73-.48-1.22-1.22-1.38-2.08-.16-.85.02-1.72.5-2.45ZM240.27,138.78c.11.58.45,1.08.94,1.41.49.32,1.07.43,1.63.3.36-.09.69-.27.97-.52-.45.11-.94.05-1.36-.23-.79-.52-1.01-1.59-.48-2.38.48-.73,1.43-.96,2.2-.58-.13-.15-.27-.29-.43-.4-.36-.24-.77-.35-1.17-.35-.74,0-1.48.38-1.94,1.06-.33.51-.46,1.1-.35,1.69Z"/>
  </g>
  <g>
    <g>
      <path class="cls-3" d="M198.98,183.98c.49,0,1-.02,1.51-.07l1.1-.11-.8-.77c-1.46-1.41-2.9-2.75-4.54-3.62-1.67-.88-3.51-1.22-5.3-1.54l-.29-.05c-1.81-.33-3.38-.38-5.4-.18l-1.1.11.79.77c1.33,1.29,2.56,2.43,4.29,3.34,1.82.96,3.8,1.37,5.51,1.68,1.25.23,2.69.44,4.23.44ZM199.23,182.95c-1.55.04-3.02-.19-4.29-.42-1.63-.3-3.52-.69-5.21-1.58-1.25-.66-2.24-1.47-3.22-2.38,1.4-.07,2.62.01,3.98.26l.29.05c1.7.31,3.47.62,5,1.43,1.21.64,2.34,1.59,3.45,2.63Z"/>
      <path class="cls-3" d="M226.3,194.02c1.52,0,3.03-.22,4.49-.43.37-.05.73-.11,1.09-.16,1.65-.23,3.39-.6,5.47-1.19,1.39-.39,2.7-.99,3.97-1.57.4-.18.79-.36,1.19-.54,1.22-.53,2.32-1.26,3.39-1.96.45-.3.91-.6,1.37-.88.55-.34,1.13-.65,1.71-.96,1.07-.57,2.18-1.16,3.13-1.94l.49-.4-.48-.4c-1.13-.93-2.43-1.71-3.69-2.46-.35-.21-.7-.42-1.04-.63-.42-.26-.83-.52-1.25-.79-1.13-.72-2.29-1.47-3.56-2.03-.5-.22-1.01-.46-1.51-.7-1.17-.56-2.38-1.14-3.66-1.49-1.84-.52-3.88-.8-5.53-1.02-1.26-.17-2.56-.12-3.82-.08-.59.02-1.18.04-1.77.04h-.97c-1.52-.01-3.09-.02-4.6.18-1.83.25-3.62.73-5.44,1.24-1.29.36-2.49.93-3.65,1.48-.49.23-.98.47-1.48.68-.6.26-1.25.49-1.87.72-1.11.39-2.25.8-3.28,1.43-1.46.89-2.94,1.96-4.54,3.27l-.2.17.02.26c.01.25.26.51.3.54,1.47,1.2,3.13,2.22,4.6,3.12,1.21.74,2.52,1.29,3.79,1.82.41.17.82.34,1.23.52.66.29,1.28.67,1.94,1.08.95.58,1.94,1.19,3.05,1.5,1.09.31,2.23.31,3.34.31.75,0,1.53,0,2.26.1.71.1,1.42.3,2.17.52,1.07.31,2.18.63,3.34.63ZM250.95,184c-.76.54-1.61.99-2.45,1.44-.6.32-1.2.64-1.77.99-.47.29-.94.59-1.4.9-1.08.71-2.1,1.38-3.24,1.88-.4.18-.8.36-1.21.54-1.24.56-2.51,1.14-3.82,1.51-2.03.57-3.73.94-5.33,1.16-.36.05-.73.1-1.1.16-1.42.21-2.9.42-4.34.42-1.01,0-2.01-.29-3.06-.59-.75-.22-1.53-.44-2.31-.55-.8-.11-1.61-.11-2.39-.11-1.09,0-2.12,0-3.07-.27-.97-.27-1.86-.81-2.79-1.39-.66-.41-1.35-.83-2.07-1.14-.41-.18-.83-.35-1.24-.53-1.29-.54-2.51-1.05-3.65-1.75-1.32-.81-2.81-1.72-4.15-2.77,1.39-1.11,2.7-2.04,3.98-2.83.94-.57,1.98-.95,3.09-1.34.64-.23,1.3-.46,1.94-.74.51-.22,1.01-.46,1.51-.7,1.12-.53,2.28-1.08,3.48-1.42,1.78-.5,3.53-.97,5.3-1.21,1.44-.2,2.91-.19,4.46-.18h.98c.6,0,1.21-.02,1.81-.04,1.27-.05,2.47-.09,3.65.07,1.69.23,3.61.49,5.39.99,1.19.34,2.36.89,3.49,1.43.52.25,1.03.49,1.54.72,1.19.52,2.32,1.25,3.41,1.95.42.27.84.54,1.27.8.35.21.7.42,1.05.64,1.03.62,2.1,1.25,3.05,1.97Z"/>
      <path class="cls-3" d="M185.89,190.98c1.68,0,3.31-.32,4.78-.61.34-.07.68-.13,1.02-.19,1.61-.29,3.27-.59,4.78-1.41,1.43-.77,2.58-1.96,3.69-3.11.28-.28.55-.57.83-.85.11-.11.21-.29.15-.56l.5-.56-1.01-.1c-1.78-.18-3.49-.06-5.56.39-.31.07-.63.13-.94.19-1.5.3-3.06.6-4.47,1.46-1.47.9-2.96,2.09-4.41,3.55l.36.36-.42-.31c-.19.19-.76.76-.82.83l-.67.75,1,.1c.39.04.79.06,1.18.06ZM199.8,184.56c-.12.13-.25.26-.37.39-1.1,1.14-2.15,2.23-3.44,2.91-1.38.74-2.96,1.02-4.48,1.3-.35.06-.69.13-1.03.19-1.4.28-2.95.58-4.52.59l.04-.04c1.4-1.4,2.82-2.54,4.22-3.4,1.25-.76,2.65-1.04,4.13-1.33.32-.06.64-.13.96-.19,1.67-.36,3.09-.49,4.5-.42Z"/>
    </g>
    <path class="cls-3" d="M239.76,182.12c1.02-1.54,3.05-1.98,4.54-1,.73.48,1.21,1.23,1.35,2.1.13.84-.06,1.7-.54,2.44-.48.73-1.2,1.24-2.02,1.43-.24.06-.48.08-.72.08-.6,0-1.2-.18-1.72-.52-.73-.48-1.22-1.22-1.38-2.08-.16-.85.02-1.72.5-2.45ZM240.27,184.37c.11.58.45,1.08.94,1.41.49.32,1.07.43,1.63.3.36-.09.69-.27.97-.52-.45.11-.94.05-1.36-.23-.79-.52-1.01-1.59-.48-2.38.48-.73,1.43-.96,2.2-.58-.13-.15-.27-.29-.43-.4-.36-.24-.77-.35-1.17-.35-.74,0-1.48.38-1.94,1.06-.33.51-.46,1.1-.35,1.69Z"/>
  </g>
</svg>