<?xml version="1.0" encoding="utf-8"?>
<!-- Generator: Adobe Illustrator 28.3.0, SVG Export Plug-In . SVG Version: 6.00 Build 0)  -->
<svg version="1.1" id="Layer_1" xmlns="http://www.w3.org/2000/svg" xmlns:xlink="http://www.w3.org/1999/xlink" x="0px" y="0px"
	 viewBox="0 0 216 216" style="enable-background:new 0 0 216 216;" xml:space="preserve">
<style type="text/css">
	.st0{fill:#FFFFFF;}
	.st1{fill:#B75A3E;}
	.st2{font-family:'Superclarendon-Light';}
	.st3{font-size:26.0511px;}
	.st4{letter-spacing:2;}
	.st5{letter-spacing:3;}
	.st6{letter-spacing:4;}
	.st7{letter-spacing:1;}
	.st8{letter-spacing:5;}
	.st9{font-family:'AktivGrotesk-Regular';}
	.st10{font-size:13.2087px;}
</style>
<g>
	<path d="M142.89,64.35c-1.22,1.68-2.77,3.09-4.38,4.4c-1.39,1.13-2.85,2.21-4.52,2.85c-1.67,0.64-3.59,0.81-5.24,0.12
		c-1.06-0.44-1.98-1.22-3.09-1.54c-1.11-0.32-2.58,0.05-2.87,1.17c-0.59,2.23-1.25,4.55-1.54,6.84c-0.73,5.74-1.92,13.53-4.26,19.49
		c0-0.02,0-0.04,0-0.05c0-0.2-0.01-0.39-0.03-0.59c-0.13-1.41-0.74-2.79-1.82-3.87c-0.23-0.23-0.47-0.44-0.73-0.63
		c-0.17-0.12-0.35-0.24-0.52-0.35c-0.45-0.26-0.92-0.47-1.41-0.61c-0.58-0.17-1.19-0.26-1.79-0.26s-1.21,0.09-1.79,0.26
		c-0.49,0.14-0.96,0.35-1.41,0.61c-0.18,0.11-0.35,0.22-0.52,0.35c-0.26,0.19-0.5,0.39-0.73,0.63l-0.62,0.62l-0.28,0.29l-0.97-0.97
		c-1.21-1.21-2.8-1.82-4.39-1.82c-1.59,0-3.17,0.61-4.39,1.82c-1.64,1.63-2.2,3.93-1.69,6.02c-0.91-1.74-1.53-3.66-1.92-4.82
		c-0.55-1.6-1.09-3.21-1.51-4.85c-0.57-2.23-0.69-4.51-0.81-6.8c-0.13-2.51-0.21-5.02-0.16-7.53c0.02-0.88,0.05-1.79-0.26-2.61
		c-0.34-0.91-1.11-1.63-2.01-1.96c-1.07-0.39-2.18,0-3.24,0.27c-1.34,0.35-2.67,0.83-4.07,0.87c-1.56,0.04-3.09-0.47-4.5-1.15
		c-3.38-1.63-6.7-4.29-8.35-7.75c-0.66-1.38-3.16-5.93,0.15-7.66c3.09-1.62,7.52-0.5,10.99,0.61c2.39,0.77,4.65,1.92,6.77,3.26
		c0.93,0.58,2.01,1.23,3.06,0.89c0.42-0.14,0.77-0.42,1.11-0.7c1.82-1.49,3.64-2.98,5.46-4.46c0.16-2.2,2.29-3.98,4.45-4.39
		c0.92-0.18,1.89-0.21,2.72-0.64c0.52-0.27,0.95-0.68,1.45-1c0.91-0.58,2.13-0.72,3.11-0.68c0.05,0.34-0.1,0.71-0.39,0.91
		c0.68,0.19,1.4-0.07,2.1,0.02c0.7,0.1,1.38,0.93,0.9,1.45c0.9-0.16,1.81,0.29,2.52,0.88c0.7,0.59,1.27,1.33,1.96,1.93
		c1.06,0.92,2.39,1.49,3.5,2.34c0.84,0.64,1.54,1.42,2.25,2.2c0.9,1.01,1.8,2.01,2.71,3.01c2.97,0.05,5.9-2.5,8.57-3.79
		c2.5-1.21,5.39-1.51,8.14-1.12c1.24,0.18,2.49,0.51,3.55,1.18c1.06,0.68,1.91,1.74,2.12,2.98C144.55,61.58,143.8,63.1,142.89,64.35
		z"/>
	<g>
		<g>
			<path d="M115.53,97.63c0,0.67-0.13,1.31-0.39,1.9c-0.24,0.56-0.58,1.07-1.02,1.51l-8.77,8.77l-8.32-8.32l-0.38-0.38
				c-0.57-0.57-0.99-1.26-1.22-2.03c-0.55-1.75-0.08-3.64,1.22-4.93c0.9-0.9,2.08-1.39,3.34-1.39c1.26,0,2.45,0.49,3.34,1.38
				l2.02,2.02l1.04-1.06l0.28-0.28l0.61-0.61c0.91-0.91,2.13-1.41,3.41-1.41c1.29,0,2.5,0.5,3.41,1.41
				c0.81,0.81,1.29,1.83,1.39,2.96C115.53,97.34,115.53,97.49,115.53,97.63z"/>
			<path class="st0" d="M113.91,92.2c0.18,0.11,0.35,0.22,0.52,0.35C114.26,92.42,114.09,92.31,113.91,92.2z M107.51,92.2
				c-0.18,0.11-0.35,0.22-0.52,0.35C107.15,92.42,107.33,92.31,107.51,92.2z"/>
		</g>
	</g>
	<g>
		<text transform="matrix(1 0 0 1 29.6782 137.9397)"><tspan x="0" y="0" class="st1 st2 st3 st4">K</tspan><tspan x="25.56" y="0" class="st1 st2 st3 st5">r</tspan><tspan x="49.08" y="0" class="st1 st2 st3 st6">i</tspan><tspan x="62.91" y="0" class="st1 st2 st3 st5">s</tspan><tspan x="83.83" y="0" class="st1 st2 st3 st4">h</tspan><tspan x="109.57" y="0" class="st1 st2 st3 st7">n</tspan><tspan x="133.77" y="0" class="st1 st2 st3 st8">a</tspan></text>
		<text transform="matrix(1 0 0 1 29.6782 137.9397)"><tspan x="0" y="0" class="st2 st3 st4">K</tspan><tspan x="25.56" y="0" class="st2 st3 st5">r</tspan><tspan x="49.08" y="0" class="st2 st3 st6">i</tspan><tspan x="62.91" y="0" class="st2 st3 st5">s</tspan><tspan x="83.83" y="0" class="st2 st3 st4">h</tspan><tspan x="109.57" y="0" class="st2 st3 st7">n</tspan><tspan x="133.77" y="0" class="st2 st3 st8">a</tspan></text>
	</g>
	<g>
		<text transform="matrix(1 0 0 1 37.3539 156.9768)"><tspan x="0" y="0" class="st1 st9 st10 st4">C</tspan><tspan x="11.74" y="0" class="st1 st9 st10 st4">OW SANC</tspan><tspan x="91.52" y="0" class="st1 st9 st10 st4">T</tspan><tspan x="101.83" y="0" class="st1 st9 st10 st7">U</tspan><tspan x="112.54" y="0" class="st1 st9 st10 st4">A</tspan><tspan x="123.54" y="0" class="st1 st9 st10 st4">RY</tspan></text>
		<text transform="matrix(1 0 0 1 37.3539 156.9768)"><tspan x="0" y="0" class="st9 st10 st4">C</tspan><tspan x="11.74" y="0" class="st9 st10 st4">OW SANC</tspan><tspan x="91.52" y="0" class="st9 st10 st4">T</tspan><tspan x="101.83" y="0" class="st9 st10 st7">U</tspan><tspan x="112.54" y="0" class="st9 st10 st4">A</tspan><tspan x="123.54" y="0" class="st9 st10 st4">RY</tspan></text>
	</g>
</g>
</svg>
