<?xml version="1.0" encoding="utf-8"?>
<!-- Generator: Adobe Illustrator 28.3.0, SVG Export Plug-In . SVG Version: 6.00 Build 0)  -->
<svg version="1.1" id="Layer_1" xmlns="http://www.w3.org/2000/svg" xmlns:xlink="http://www.w3.org/1999/xlink" x="0px" y="0px"
	 viewBox="0 0 944.58 435.73" style="enable-background:new 0 0 944.58 435.73;" xml:space="preserve">
<style type="text/css">
	.st0{fill:#F4F6F3;}
	.st1{font-family:'AJensonPro-Semibold';}
	.st2{font-size:47.9265px;}
	.st3{letter-spacing:2;}
	.st4{opacity:0.2;}
	.st5{font-size:50.77px;}
	.st6{font-family:'Avenir-Medium';}
	.st7{font-size:20.6268px;}
	.st8{letter-spacing:1;}
	.st9{fill:none;stroke:#000000;stroke-width:1.5435;stroke-miterlimit:10;}
	.st10{opacity:0.36;fill:none;stroke:#000000;stroke-width:1.6091;stroke-miterlimit:10;}
	.st11{fill:#FFFFFF;}
	.st12{font-size:47.9266px;}
	.st13{fill:#CCC9C3;}
	.st14{font-size:50.7701px;}
	.st15{fill:#E898AE;}
	.st16{font-size:20.6269px;}
	.st17{fill:#FF847C;}
	.st18{fill:none;stroke:#D1DACB;stroke-width:1.6091;stroke-miterlimit:10;}
	.st19{fill:#E7A2C3;}
	.st20{fill:#E188BA;}
	.st21{fill:#F2B26C;}
	.st22{fill:#FF943A;}
	.st23{fill:#FFC5BF;}
	.st24{fill:#F9AFA4;}
	.st25{fill:#F1799E;}
	.st26{fill:#FC6F6F;}
</style>
<g>
	<g>
		<text transform="matrix(1 0 0 1 259.4877 322.5437)" class="st0 st1 st2 st3">Cinque </text>
		<g>
			<text transform="matrix(1 0 0 1 259.4877 322.5437)" class="st1 st2 st3">Cinque </text>
		</g>
		<g class="st4">
			<text transform="matrix(1 0 0 1 259.4877 322.5437)" class="st1 st2 st3">Cinque </text>
		</g>
	</g>
	<g>
		<text transform="matrix(1 0 0 1 279.1245 377.0544)" class="st0 st1 st5 st3">Terre</text>
		<text transform="matrix(1 0 0 1 279.1245 377.0544)" class="st1 st5 st3">Terre</text>
		<g class="st4">
			<text transform="matrix(1 0 0 1 279.1245 377.0544)" class="st1 st5 st3">Terre</text>
		</g>
	</g>
	<g>
		<text transform="matrix(1 0 0 1 334.3315 411.7204)" class="st6 st7 st8">ItalIA</text>
	</g>
	<g>
		<path class="st9" d="M430.31,258.26c-2.51,2.6-4.94-0.61-8.55-0.61c-3.62,0-3.62-2.44-7.23-2.44c-3.62,0-3.62,0.3-7.23,0.3
			c-3.62,0-3.62,2.56-7.23,2.56c-3.62,0-3.62-1.28-7.23-1.28c-3.62,0-3.62,0.57-7.23,0.57c-3.62,0-3.62,0.88-7.23,0.88
			c-3.62,0-3.62-0.7-7.24-0.7c-3.62,0-3.62-1.08-7.23-1.08c-3.62,0-3.62-1.2-7.23-1.2s-3.62,0.97-7.23,0.97
			c-3.62,0-3.62-0.93-7.23-0.93c-3.62,0-3.62,3.26-7.24,3.26c-3.62,0-3.62-0.08-7.24-0.08c-3.62,0-3.62-2.49-7.24-2.49
			c-3.62,0-3.62,0.15-7.24,0.15s-5.79,4.46-8.31,1.86c-2.6-2.68,1.24-4.77,1.24-8.51c0-3.74,0.97-3.74,0.97-7.48
			c0-3.74,0.47-3.74,0.47-7.48c0-3.74-0.94-3.74-0.94-7.48c0-3.74-2.5-3.74-2.5-7.48c0-3.74,3.47-3.74,3.47-7.48
			c0-3.74-1.69-3.74-1.69-7.48c0-3.74-0.31-3.74-0.31-7.48c0-3.74,1.53-3.74,1.53-7.48c0-3.74-1.12-3.74-1.12-7.48
			c0-3.74,1.18-3.74,1.18-7.48c0-3.74-0.71-3.74-0.71-7.48c0-3.74-0.2-3.74-0.2-7.48c0-3.74,1.03-3.74,1.03-7.48
			c0-3.74-2.11-3.74-2.11-7.48c0-3.74,1.1-3.74,1.1-7.48c0-3.74-1.75-3.74-1.75-7.48c0-3.74,1.8-3.74,1.8-7.48s1.04-3.74,1.04-7.48
			c0-3.74-1.55-3.74-1.55-7.48c0-3.74-0.2-3.74-0.2-7.48c0-3.74,0.36-3.74,0.36-7.49c0-3.74-1.07-3.74-1.07-7.48
			c0-3.74,1.25-3.74,1.25-7.49c0-3.74-3.76-5.71-1.16-8.41c2.51-2.6,4.57,0.65,8.18,0.65c3.62,0,3.62,0.9,7.23,0.9
			c3.62,0,3.62-1.23,7.23-1.23c3.62,0,3.62,0.42,7.23,0.42c3.62,0,3.62-1.06,7.23-1.06c3.62,0,3.62,0.2,7.23,0.2
			c3.62,0,3.62,0.7,7.23,0.7c3.62,0,3.62-0.18,7.24-0.18c3.62,0,3.62,1.94,7.23,1.94c3.62,0,3.62-2.18,7.23-2.18
			c3.62,0,3.62,0.45,7.23,0.45c3.62,0,3.62,1.05,7.23,1.05c3.62,0,3.62,0.61,7.24,0.61c3.62,0,3.62,0.49,7.24,0.49
			c3.62,0,3.62-1.01,7.24-1.01c3.62,0,3.62,0.48,7.24,0.48s5.39-4.56,7.91-1.96c2.6,2.68-2.27,4.39-2.27,8.12
			c0,3.74,3.36,3.74,3.36,7.48c0,3.74-0.6,3.74-0.6,7.48c0,3.74-1.59,3.74-1.59,7.48c0,3.74,1.48,3.74,1.48,7.48
			c0,3.74-1.62,3.74-1.62,7.48c0,3.74,0.53,3.74,0.53,7.48c0,3.74-1.44,3.74-1.44,7.48c0,3.74,0.65,3.74,0.65,7.48
			c0,3.74,0,3.74,0,7.48c0,3.74,1.29,3.74,1.29,7.48c0,3.74-0.88,3.74-0.88,7.48c0,3.74,1.71,3.74,1.71,7.48
			c0,3.74-2.94,3.74-2.94,7.48c0,3.74,1.22,3.74,1.22,7.48c0,3.74-1.02,3.74-1.02,7.48c0,3.74,2.94,3.74,2.94,7.48
			c0,3.74-0.43,3.74-0.43,7.48c0,3.74-2.6,3.74-2.6,7.48c0,3.74,2.59,3.74,2.59,7.48c0,3.74-1.47,3.74-1.47,7.48
			c0,3.74-0.64,3.74-0.64,7.49c0,3.74,0.02,3.74,0.02,7.48c0,3.74,0.23,3.82,1.28,7.42C430.54,253.96,432.91,255.56,430.31,258.26z"
			/>
		<path class="st10" d="M430.31,258.26c-2.51,2.6-4.94-0.61-8.55-0.61c-3.62,0-3.62-2.44-7.23-2.44c-3.62,0-3.62,0.3-7.23,0.3
			c-3.62,0-3.62,2.56-7.23,2.56c-3.62,0-3.62-1.28-7.23-1.28c-3.62,0-3.62,0.57-7.23,0.57c-3.62,0-3.62,0.88-7.23,0.88
			c-3.62,0-3.62-0.7-7.24-0.7c-3.62,0-3.62-1.08-7.23-1.08c-3.62,0-3.62-1.2-7.23-1.2s-3.62,0.97-7.23,0.97
			c-3.62,0-3.62-0.93-7.23-0.93c-3.62,0-3.62,3.26-7.24,3.26c-3.62,0-3.62-0.08-7.24-0.08c-3.62,0-3.62-2.49-7.24-2.49
			c-3.62,0-3.62,0.15-7.24,0.15s-5.79,4.46-8.31,1.86c-2.6-2.68,1.24-4.77,1.24-8.51c0-3.74,0.97-3.74,0.97-7.48
			c0-3.74,0.47-3.74,0.47-7.48c0-3.74-0.94-3.74-0.94-7.48c0-3.74-2.5-3.74-2.5-7.48c0-3.74,3.47-3.74,3.47-7.48
			c0-3.74-1.69-3.74-1.69-7.48c0-3.74-0.31-3.74-0.31-7.48c0-3.74,1.53-3.74,1.53-7.48c0-3.74-1.12-3.74-1.12-7.48
			c0-3.74,1.18-3.74,1.18-7.48c0-3.74-0.71-3.74-0.71-7.48c0-3.74-0.2-3.74-0.2-7.48c0-3.74,1.03-3.74,1.03-7.48
			c0-3.74-2.11-3.74-2.11-7.48c0-3.74,1.1-3.74,1.1-7.48c0-3.74-1.75-3.74-1.75-7.48c0-3.74,1.8-3.74,1.8-7.48s1.04-3.74,1.04-7.48
			c0-3.74-1.55-3.74-1.55-7.48c0-3.74-0.2-3.74-0.2-7.48c0-3.74,0.36-3.74,0.36-7.49c0-3.74-1.07-3.74-1.07-7.48
			c0-3.74,1.25-3.74,1.25-7.49c0-3.74-3.76-5.71-1.16-8.41c2.51-2.6,4.57,0.65,8.18,0.65c3.62,0,3.62,0.9,7.23,0.9
			c3.62,0,3.62-1.23,7.23-1.23c3.62,0,3.62,0.42,7.23,0.42c3.62,0,3.62-1.06,7.23-1.06c3.62,0,3.62,0.2,7.23,0.2
			c3.62,0,3.62,0.7,7.23,0.7c3.62,0,3.62-0.18,7.24-0.18c3.62,0,3.62,1.94,7.23,1.94c3.62,0,3.62-2.18,7.23-2.18
			c3.62,0,3.62,0.45,7.23,0.45c3.62,0,3.62,1.05,7.23,1.05c3.62,0,3.62,0.61,7.24,0.61c3.62,0,3.62,0.49,7.24,0.49
			c3.62,0,3.62-1.01,7.24-1.01c3.62,0,3.62,0.48,7.24,0.48s5.39-4.56,7.91-1.96c2.6,2.68-2.27,4.39-2.27,8.12
			c0,3.74,3.36,3.74,3.36,7.48c0,3.74-0.6,3.74-0.6,7.48c0,3.74-1.59,3.74-1.59,7.48c0,3.74,1.48,3.74,1.48,7.48
			c0,3.74-1.62,3.74-1.62,7.48c0,3.74,0.53,3.74,0.53,7.48c0,3.74-1.44,3.74-1.44,7.48c0,3.74,0.65,3.74,0.65,7.48
			c0,3.74,0,3.74,0,7.48c0,3.74,1.29,3.74,1.29,7.48c0,3.74-0.88,3.74-0.88,7.48c0,3.74,1.71,3.74,1.71,7.48
			c0,3.74-2.94,3.74-2.94,7.48c0,3.74,1.22,3.74,1.22,7.48c0,3.74-1.02,3.74-1.02,7.48c0,3.74,2.94,3.74,2.94,7.48
			c0,3.74-0.43,3.74-0.43,7.48c0,3.74-2.6,3.74-2.6,7.48c0,3.74,2.59,3.74,2.59,7.48c0,3.74-1.47,3.74-1.47,7.48
			c0,3.74-0.64,3.74-0.64,7.49c0,3.74,0.02,3.74,0.02,7.48c0,3.74,0.23,3.82,1.28,7.42C430.54,253.96,432.91,255.56,430.31,258.26z"
			/>
	</g>
	<g>
		<path class="st11" d="M337.83,90.99c1.26,1.91,0.64,4.53-1.27,5.79c-1.91,1.26-4.42,0.71-5.68-1.2c-1.26-1.91-0.87-4.55,1.04-5.81
			C333.84,88.51,336.57,89.08,337.83,90.99z"/>
	</g>
	<g>
		<g>
			<path d="M399.5,94.75c-0.74,0-1.5-0.03-2.26-0.11l-1.65-0.17l1.19-1.16c2.18-2.12,4.35-4.13,6.81-5.43
				c2.51-1.33,5.27-1.83,7.94-2.31l0.43-0.08c2.72-0.49,5.07-0.57,8.1-0.27l1.65,0.16l-1.19,1.16c-1.99,1.93-3.85,3.65-6.43,5.01
				c-2.73,1.44-5.69,2.06-8.26,2.52C403.96,94.43,401.81,94.75,399.5,94.75z M399.13,93.2c2.33,0.05,4.53-0.29,6.44-0.63
				c2.45-0.44,5.28-1.03,7.81-2.37c1.87-0.99,3.36-2.2,4.83-3.56c-2.1-0.1-3.93,0.02-5.97,0.39l-0.43,0.08
				c-2.56,0.46-5.2,0.94-7.5,2.15C402.49,90.22,400.81,91.64,399.13,93.2z"/>
			<path d="M358.53,109.81c-2.28,0-4.55-0.33-6.74-0.65c-0.55-0.08-1.09-0.16-1.64-0.23c-2.48-0.34-5.08-0.9-8.2-1.78
				c-2.08-0.58-4.05-1.48-5.96-2.35c-0.6-0.27-1.19-0.54-1.79-0.8c-1.83-0.8-3.49-1.89-5.09-2.94c-0.68-0.45-1.36-0.9-2.06-1.32
				c-0.83-0.51-1.7-0.97-2.57-1.44c-1.61-0.86-3.28-1.75-4.7-2.91l-0.73-0.6l0.73-0.6c1.7-1.4,3.65-2.56,5.54-3.69
				c0.53-0.32,1.05-0.63,1.56-0.94c0.63-0.38,1.25-0.78,1.87-1.18c1.69-1.09,3.43-2.21,5.34-3.04c0.76-0.33,1.51-0.69,2.27-1.05
				c1.75-0.84,3.56-1.7,5.48-2.24c2.76-0.78,5.83-1.2,8.29-1.53c1.89-0.26,3.85-0.19,5.74-0.11c0.89,0.03,1.77,0.07,2.66,0.07
				l1.46-0.01c2.28-0.01,4.63-0.03,6.9,0.28c2.75,0.38,5.43,1.1,8.16,1.86c1.93,0.54,3.73,1.4,5.47,2.22
				c0.74,0.35,1.47,0.7,2.21,1.02c0.91,0.4,1.87,0.74,2.81,1.07c1.66,0.59,3.38,1.2,4.92,2.15c2.19,1.34,4.42,2.94,6.81,4.9
				l0.3,0.25l-0.02,0.39c-0.02,0.37-0.39,0.77-0.44,0.81c-2.2,1.8-4.69,3.33-6.89,4.68c-1.82,1.11-3.79,1.94-5.69,2.73
				c-0.61,0.26-1.23,0.51-1.84,0.78c-0.98,0.43-1.92,1.01-2.91,1.61c-1.43,0.88-2.91,1.78-4.58,2.25c-1.63,0.46-3.35,0.46-5.02,0.47
				c-1.13,0-2.29,0.01-3.39,0.16c-1.06,0.14-2.12,0.45-3.25,0.77C361.93,109.33,360.26,109.81,358.53,109.81z M321.54,94.78
				c1.14,0.8,2.42,1.49,3.67,2.16c0.9,0.48,1.8,0.96,2.65,1.48c0.71,0.43,1.4,0.89,2.1,1.35c1.62,1.06,3.14,2.07,4.86,2.81
				c0.6,0.26,1.21,0.54,1.81,0.81c1.85,0.84,3.77,1.72,5.74,2.27c3.05,0.85,5.59,1.41,7.99,1.74c0.55,0.07,1.1,0.15,1.65,0.24
				c2.14,0.31,4.35,0.63,6.51,0.63c1.52,0,3.01-0.43,4.59-0.88c1.13-0.33,2.29-0.66,3.47-0.82c1.2-0.16,2.41-0.17,3.59-0.17
				c1.63,0,3.17-0.01,4.61-0.41c1.46-0.41,2.78-1.22,4.18-2.08c0.99-0.61,2.02-1.24,3.1-1.71c0.62-0.27,1.24-0.53,1.86-0.79
				c1.94-0.81,3.76-1.57,5.48-2.62c1.99-1.22,4.22-2.58,6.22-4.15c-2.09-1.67-4.05-3.06-5.97-4.24c-1.41-0.86-2.97-1.42-4.63-2.01
				c-0.96-0.34-1.95-0.7-2.91-1.11c-0.76-0.33-1.51-0.69-2.26-1.04c-1.68-0.8-3.42-1.62-5.22-2.13c-2.68-0.75-5.3-1.46-7.95-1.82
				c-2.16-0.3-4.36-0.28-6.68-0.27L358.53,82c-0.9,0-1.81-0.03-2.72-0.07c-1.91-0.07-3.71-0.14-5.47,0.1
				c-2.54,0.35-5.42,0.74-8.08,1.49c-1.79,0.5-3.54,1.34-5.24,2.15c-0.77,0.37-1.54,0.74-2.32,1.07c-1.79,0.78-3.48,1.87-5.12,2.93
				c-0.63,0.41-1.26,0.81-1.9,1.2c-0.52,0.32-1.05,0.63-1.58,0.95C324.56,92.76,322.97,93.71,321.54,94.78z"/>
			<path d="M419.13,105.25c-2.52,0-4.96-0.48-7.16-0.92c-0.51-0.1-1.02-0.19-1.53-0.28c-2.41-0.44-4.9-0.89-7.18-2.11
				c-2.15-1.15-3.87-2.94-5.54-4.66c-0.41-0.43-0.83-0.86-1.25-1.28c-0.16-0.16-0.32-0.43-0.22-0.83l-0.75-0.84l1.51-0.15
				c2.67-0.26,5.23-0.09,8.33,0.58c0.47,0.1,0.94,0.19,1.41,0.29c2.26,0.45,4.59,0.91,6.7,2.2c2.21,1.35,4.43,3.14,6.62,5.32
				l-0.55,0.55l0.63-0.46c0.29,0.29,1.14,1.14,1.23,1.24l1,1.13l-1.51,0.15C420.3,105.23,419.71,105.25,419.13,105.25z
				 M398.28,95.63c0.19,0.19,0.37,0.39,0.56,0.58c1.66,1.72,3.22,3.34,5.15,4.37c2.07,1.1,4.43,1.54,6.73,1.95
				c0.52,0.09,1.04,0.19,1.55,0.29c2.1,0.41,4.43,0.87,6.78,0.89l-0.05-0.05c-2.1-2.1-4.23-3.82-6.33-5.1
				c-1.88-1.15-3.98-1.56-6.2-2c-0.48-0.09-0.96-0.19-1.44-0.29C402.52,95.73,400.39,95.52,398.28,95.63z"/>
		</g>
		<path d="M338.33,90.66c-1.52-2.3-4.57-2.98-6.81-1.5c-1.09,0.72-1.81,1.84-2.02,3.14c-0.2,1.26,0.09,2.55,0.82,3.65
			c0.73,1.1,1.8,1.86,3.03,2.15c0.36,0.08,0.72,0.13,1.07,0.13c0.9,0,1.79-0.27,2.58-0.79c1.09-0.72,1.83-1.83,2.08-3.11
			C339.32,93.06,339.06,91.75,338.33,90.66z M337.57,94.04c-0.17,0.87-0.67,1.62-1.41,2.12c-0.74,0.49-1.61,0.64-2.45,0.45
			c-0.54-0.13-1.03-0.4-1.46-0.78c0.68,0.17,1.42,0.07,2.04-0.34c1.19-0.78,1.51-2.38,0.73-3.57c-0.73-1.1-2.15-1.45-3.3-0.87
			c0.19-0.23,0.4-0.43,0.65-0.6c0.54-0.36,1.15-0.53,1.76-0.53c1.11,0,2.23,0.56,2.91,1.59C337.55,92.27,337.73,93.17,337.57,94.04z
			"/>
	</g>
	<g>
		<path class="st11" d="M337.63,159.31c1.26,1.91,0.91,4.49-1,5.75c-1.91,1.26-4.66,0.73-5.92-1.18c-1.26-1.91-0.64-4.59,1.27-5.85
			S336.37,157.4,337.63,159.31z"/>
	</g>
	<g>
		<g>
			<path d="M399.5,162.93c-0.74,0-1.5-0.03-2.26-0.11l-1.65-0.17l1.19-1.16c2.18-2.12,4.35-4.13,6.81-5.43
				c2.51-1.33,5.27-1.83,7.94-2.31l0.43-0.08c2.72-0.49,5.07-0.57,8.1-0.27l1.65,0.16l-1.19,1.16c-1.99,1.93-3.85,3.65-6.43,5.01
				c-2.73,1.44-5.69,2.06-8.26,2.52C403.96,162.61,401.81,162.93,399.5,162.93z M399.13,161.39c2.33,0.05,4.53-0.29,6.44-0.63
				c2.45-0.44,5.28-1.03,7.81-2.37c1.87-0.99,3.36-2.2,4.83-3.56c-2.1-0.1-3.93,0.02-5.97,0.39l-0.43,0.08
				c-2.56,0.46-5.2,0.94-7.5,2.15C402.49,158.4,400.81,159.82,399.13,161.39z"/>
			<path d="M358.53,177.99c-2.28,0-4.55-0.33-6.74-0.65c-0.55-0.08-1.09-0.16-1.64-0.23c-2.48-0.34-5.08-0.9-8.2-1.78
				c-2.08-0.58-4.05-1.48-5.96-2.35c-0.6-0.27-1.19-0.54-1.79-0.8c-1.83-0.8-3.49-1.89-5.09-2.94c-0.68-0.45-1.36-0.9-2.06-1.32
				c-0.83-0.51-1.7-0.97-2.57-1.44c-1.61-0.86-3.28-1.75-4.7-2.91l-0.73-0.6l0.73-0.6c1.7-1.4,3.65-2.56,5.54-3.69
				c0.53-0.32,1.05-0.63,1.56-0.94c0.63-0.38,1.25-0.78,1.87-1.18c1.69-1.09,3.43-2.21,5.34-3.04c0.76-0.33,1.51-0.69,2.27-1.05
				c1.75-0.84,3.56-1.7,5.48-2.24c2.76-0.78,5.83-1.2,8.29-1.53c1.89-0.26,3.85-0.19,5.74-0.11c0.89,0.03,1.77,0.07,2.66,0.07
				l1.46-0.01c2.28-0.01,4.63-0.03,6.9,0.28c2.75,0.38,5.43,1.1,8.16,1.86c1.93,0.54,3.73,1.4,5.47,2.22
				c0.74,0.35,1.47,0.7,2.21,1.02c0.91,0.4,1.87,0.74,2.81,1.07c1.66,0.59,3.38,1.2,4.92,2.15c2.19,1.34,4.42,2.94,6.81,4.9
				l0.3,0.25l-0.02,0.39c-0.02,0.37-0.39,0.77-0.44,0.81c-2.2,1.8-4.69,3.33-6.89,4.68c-1.82,1.11-3.79,1.94-5.69,2.73
				c-0.61,0.26-1.23,0.51-1.84,0.78c-0.98,0.43-1.92,1.01-2.91,1.61c-1.43,0.88-2.91,1.78-4.58,2.25c-1.63,0.46-3.35,0.46-5.02,0.47
				c-1.13,0-2.29,0.01-3.39,0.16c-1.06,0.14-2.12,0.45-3.25,0.77C361.93,177.51,360.26,177.99,358.53,177.99z M321.54,162.96
				c1.14,0.8,2.42,1.49,3.67,2.16c0.9,0.48,1.8,0.96,2.65,1.48c0.71,0.43,1.4,0.89,2.1,1.35c1.62,1.06,3.14,2.07,4.86,2.81
				c0.6,0.26,1.21,0.54,1.81,0.81c1.85,0.84,3.77,1.72,5.74,2.27c3.05,0.85,5.59,1.41,7.99,1.74c0.55,0.07,1.1,0.15,1.65,0.24
				c2.14,0.31,4.35,0.63,6.51,0.63c1.52,0,3.01-0.43,4.59-0.88c1.13-0.33,2.29-0.66,3.47-0.82c1.2-0.16,2.41-0.17,3.59-0.17
				c1.63,0,3.17-0.01,4.61-0.41c1.46-0.41,2.78-1.22,4.18-2.08c0.99-0.61,2.02-1.24,3.1-1.71c0.62-0.27,1.24-0.53,1.86-0.79
				c1.94-0.81,3.76-1.57,5.48-2.62c1.99-1.22,4.22-2.58,6.22-4.15c-2.09-1.67-4.05-3.06-5.97-4.24c-1.41-0.86-2.97-1.42-4.63-2.01
				c-0.96-0.34-1.95-0.7-2.91-1.11c-0.76-0.33-1.51-0.69-2.26-1.04c-1.68-0.8-3.42-1.62-5.22-2.13c-2.68-0.75-5.3-1.46-7.95-1.82
				c-2.16-0.3-4.36-0.28-6.68-0.27l-1.47,0.01c-0.9,0-1.81-0.03-2.72-0.07c-1.91-0.07-3.71-0.14-5.47,0.1
				c-2.54,0.35-5.42,0.74-8.08,1.49c-1.79,0.5-3.54,1.34-5.24,2.15c-0.77,0.37-1.54,0.74-2.32,1.07c-1.79,0.78-3.48,1.87-5.12,2.93
				c-0.63,0.41-1.26,0.81-1.9,1.2c-0.52,0.32-1.05,0.63-1.58,0.95C324.56,160.94,322.97,161.89,321.54,162.96z"/>
			<path d="M419.13,173.44c-2.52,0-4.96-0.48-7.16-0.92c-0.51-0.1-1.02-0.19-1.53-0.28c-2.41-0.44-4.9-0.89-7.18-2.11
				c-2.15-1.15-3.87-2.94-5.54-4.66c-0.41-0.43-0.83-0.86-1.25-1.28c-0.16-0.16-0.32-0.43-0.22-0.83l-0.75-0.84l1.51-0.15
				c2.67-0.26,5.23-0.09,8.33,0.58c0.47,0.1,0.94,0.19,1.41,0.29c2.26,0.45,4.59,0.91,6.7,2.2c2.21,1.35,4.43,3.14,6.62,5.32
				l-0.55,0.55l0.63-0.46c0.29,0.29,1.14,1.14,1.23,1.24l1,1.13l-1.51,0.15C420.3,173.41,419.71,173.44,419.13,173.44z
				 M398.28,163.81c0.19,0.19,0.37,0.39,0.56,0.58c1.66,1.72,3.22,3.34,5.15,4.37c2.07,1.1,4.43,1.54,6.73,1.95
				c0.52,0.09,1.04,0.19,1.55,0.29c2.1,0.41,4.43,0.87,6.78,0.89l-0.05-0.05c-2.1-2.1-4.23-3.82-6.33-5.1
				c-1.88-1.15-3.98-1.56-6.2-2c-0.48-0.09-0.96-0.19-1.44-0.29C402.52,163.91,400.39,163.71,398.28,163.81z"/>
		</g>
		<path d="M338.33,158.84c-1.52-2.3-4.57-2.98-6.81-1.5c-1.09,0.72-1.81,1.84-2.02,3.14c-0.2,1.26,0.09,2.55,0.82,3.65
			c0.73,1.1,1.8,1.86,3.03,2.15c0.36,0.08,0.72,0.13,1.07,0.13c0.9,0,1.79-0.27,2.58-0.79c1.09-0.72,1.83-1.83,2.08-3.11
			C339.32,161.24,339.06,159.94,338.33,158.84z M337.57,162.22c-0.17,0.87-0.67,1.62-1.41,2.12c-0.74,0.49-1.61,0.64-2.45,0.45
			c-0.54-0.13-1.03-0.4-1.46-0.78c0.68,0.17,1.42,0.07,2.04-0.34c1.19-0.78,1.51-2.38,0.73-3.57c-0.73-1.1-2.15-1.45-3.3-0.87
			c0.19-0.23,0.4-0.43,0.65-0.6c0.54-0.36,1.15-0.53,1.76-0.53c1.11,0,2.23,0.56,2.91,1.59
			C337.55,160.45,337.73,161.35,337.57,162.22z"/>
	</g>
	<g>
		<path class="st11" d="M337.77,227.4c1.26,1.91,0.73,4.52-1.18,5.78c-1.91,1.26-4.48,0.7-5.74-1.21c-1.26-1.91-0.67-4.35,1.23-5.61
			S336.5,225.49,337.77,227.4z"/>
	</g>
	<g>
		<g>
			<path d="M399.5,231.12c-0.74,0-1.5-0.03-2.26-0.11l-1.65-0.17l1.19-1.16c2.18-2.12,4.35-4.13,6.81-5.43
				c2.51-1.33,5.27-1.83,7.94-2.31l0.43-0.08c2.72-0.49,5.07-0.57,8.1-0.27l1.65,0.16l-1.19,1.16c-1.99,1.93-3.85,3.65-6.43,5.01
				c-2.73,1.44-5.69,2.06-8.26,2.52C403.96,230.79,401.81,231.12,399.5,231.12z M399.13,229.57c2.33,0.05,4.53-0.29,6.44-0.63
				c2.45-0.44,5.28-1.03,7.81-2.37c1.87-0.99,3.36-2.2,4.83-3.56c-2.1-0.1-3.93,0.02-5.97,0.39l-0.43,0.08
				c-2.56,0.46-5.2,0.94-7.5,2.15C402.49,226.58,400.81,228,399.13,229.57z"/>
			<path d="M358.53,246.17c-2.28,0-4.55-0.33-6.74-0.65c-0.55-0.08-1.09-0.16-1.64-0.23c-2.48-0.34-5.08-0.9-8.2-1.78
				c-2.08-0.58-4.05-1.48-5.96-2.35c-0.6-0.27-1.19-0.54-1.79-0.8c-1.83-0.8-3.49-1.89-5.09-2.94c-0.68-0.45-1.36-0.9-2.06-1.32
				c-0.83-0.51-1.7-0.97-2.57-1.44c-1.61-0.86-3.28-1.75-4.7-2.91l-0.73-0.6l0.73-0.6c1.7-1.4,3.65-2.56,5.54-3.69
				c0.53-0.32,1.05-0.63,1.56-0.94c0.63-0.38,1.25-0.78,1.87-1.18c1.69-1.09,3.43-2.21,5.34-3.04c0.76-0.33,1.51-0.69,2.27-1.05
				c1.75-0.84,3.56-1.7,5.48-2.24c2.76-0.78,5.83-1.2,8.29-1.53c1.89-0.26,3.85-0.19,5.74-0.11c0.89,0.03,1.77,0.07,2.66,0.07
				l1.46-0.01c2.28-0.01,4.63-0.03,6.9,0.28c2.75,0.38,5.43,1.1,8.16,1.86c1.93,0.54,3.73,1.4,5.47,2.22
				c0.74,0.35,1.47,0.7,2.21,1.02c0.91,0.4,1.87,0.74,2.81,1.07c1.66,0.59,3.38,1.2,4.92,2.15c2.19,1.34,4.42,2.94,6.81,4.9
				l0.3,0.25l-0.02,0.39c-0.02,0.37-0.39,0.77-0.44,0.81c-2.2,1.8-4.69,3.33-6.89,4.68c-1.82,1.11-3.79,1.94-5.69,2.73
				c-0.61,0.26-1.23,0.51-1.84,0.78c-0.98,0.43-1.92,1.01-2.91,1.61c-1.43,0.88-2.91,1.78-4.58,2.25c-1.63,0.46-3.35,0.46-5.02,0.47
				c-1.13,0-2.29,0.01-3.39,0.16c-1.06,0.14-2.12,0.45-3.25,0.77C361.93,245.69,360.26,246.17,358.53,246.17z M321.54,231.15
				c1.14,0.8,2.42,1.49,3.67,2.16c0.9,0.48,1.8,0.96,2.65,1.48c0.71,0.43,1.4,0.89,2.1,1.35c1.62,1.06,3.14,2.07,4.86,2.81
				c0.6,0.26,1.21,0.54,1.81,0.81c1.85,0.84,3.77,1.72,5.74,2.27c3.05,0.85,5.59,1.41,7.99,1.74c0.55,0.07,1.1,0.15,1.65,0.24
				c2.14,0.31,4.35,0.63,6.51,0.63c1.52,0,3.01-0.43,4.59-0.88c1.13-0.33,2.29-0.66,3.47-0.82c1.2-0.16,2.41-0.17,3.59-0.17
				c1.63,0,3.17-0.01,4.61-0.41c1.46-0.41,2.78-1.22,4.18-2.08c0.99-0.61,2.02-1.24,3.1-1.71c0.62-0.27,1.24-0.53,1.86-0.79
				c1.94-0.81,3.76-1.57,5.48-2.62c1.99-1.22,4.22-2.58,6.22-4.15c-2.09-1.67-4.05-3.06-5.97-4.24c-1.41-0.86-2.97-1.42-4.63-2.01
				c-0.96-0.34-1.95-0.7-2.91-1.11c-0.76-0.33-1.51-0.69-2.26-1.04c-1.68-0.8-3.42-1.62-5.22-2.13c-2.68-0.75-5.3-1.46-7.95-1.82
				c-2.16-0.3-4.36-0.28-6.68-0.27l-1.47,0.01c-0.9,0-1.81-0.03-2.72-0.07c-1.91-0.07-3.71-0.14-5.47,0.1
				c-2.54,0.35-5.42,0.74-8.08,1.49c-1.79,0.5-3.54,1.34-5.24,2.15c-0.77,0.37-1.54,0.74-2.32,1.07c-1.79,0.78-3.48,1.87-5.12,2.93
				c-0.63,0.41-1.26,0.81-1.9,1.2c-0.52,0.32-1.05,0.63-1.58,0.95C324.56,229.12,322.97,230.07,321.54,231.15z"/>
			<path d="M419.13,241.62c-2.52,0-4.96-0.48-7.16-0.92c-0.51-0.1-1.02-0.19-1.53-0.28c-2.41-0.44-4.9-0.89-7.18-2.11
				c-2.15-1.15-3.87-2.94-5.54-4.66c-0.41-0.43-0.83-0.86-1.25-1.28c-0.16-0.16-0.32-0.43-0.22-0.83l-0.75-0.84l1.51-0.15
				c2.67-0.26,5.23-0.09,8.33,0.58c0.47,0.1,0.94,0.19,1.41,0.29c2.26,0.45,4.59,0.91,6.7,2.2c2.21,1.35,4.43,3.14,6.62,5.32
				l-0.55,0.55l0.63-0.46c0.29,0.29,1.14,1.14,1.23,1.24l1,1.13l-1.51,0.15C420.3,241.59,419.71,241.62,419.13,241.62z
				 M398.28,231.99c0.19,0.19,0.37,0.39,0.56,0.58c1.66,1.72,3.22,3.34,5.15,4.37c2.07,1.1,4.43,1.54,6.73,1.95
				c0.52,0.09,1.04,0.19,1.55,0.29c2.1,0.41,4.43,0.87,6.78,0.89l-0.05-0.05c-2.1-2.1-4.23-3.82-6.33-5.1
				c-1.88-1.15-3.98-1.56-6.2-2c-0.48-0.09-0.96-0.19-1.44-0.29C402.52,232.09,400.39,231.89,398.28,231.99z"/>
		</g>
		<path d="M338.33,227.02c-1.52-2.3-4.57-2.98-6.81-1.5c-1.09,0.72-1.81,1.84-2.02,3.14c-0.2,1.26,0.09,2.55,0.82,3.65
			c0.73,1.1,1.8,1.86,3.03,2.15c0.36,0.08,0.72,0.13,1.07,0.13c0.9,0,1.79-0.27,2.58-0.79c1.09-0.72,1.83-1.83,2.08-3.11
			C339.32,229.42,339.06,228.12,338.33,227.02z M337.57,230.4c-0.17,0.87-0.67,1.62-1.41,2.12c-0.74,0.49-1.61,0.64-2.45,0.45
			c-0.54-0.13-1.03-0.4-1.46-0.78c0.68,0.17,1.42,0.07,2.04-0.34c1.19-0.78,1.51-2.38,0.73-3.57c-0.73-1.1-2.15-1.45-3.3-0.87
			c0.19-0.23,0.4-0.43,0.65-0.6c0.54-0.36,1.15-0.53,1.76-0.53c1.11,0,2.23,0.56,2.91,1.59
			C337.55,228.63,337.73,229.53,337.57,230.4z"/>
	</g>
	<g>
		<path class="st11" d="M403.72,125.14c-1.26,1.91-0.69,4.41,1.22,5.67s4.56,0.89,5.82-1.02c1.26-1.91,0.53-4.44-1.38-5.7
			C407.47,122.83,404.98,123.23,403.72,125.14z"/>
	</g>
	<g>
		<g>
			<path d="M341.96,128.84c0.74,0,1.5-0.03,2.26-0.11l1.65-0.17l-1.19-1.16c-2.18-2.12-4.35-4.13-6.81-5.43
				c-2.51-1.33-5.27-1.83-7.94-2.31l-0.43-0.08c-2.72-0.49-5.07-0.57-8.1-0.27l-1.65,0.16l1.19,1.16c1.99,1.93,3.85,3.65,6.43,5.01
				c2.73,1.44,5.69,2.06,8.26,2.52C337.5,128.52,339.65,128.84,341.96,128.84z M342.33,127.3c-2.33,0.05-4.53-0.29-6.44-0.63
				c-2.45-0.44-5.28-1.03-7.81-2.37c-1.87-0.99-3.36-2.2-4.83-3.56c2.1-0.1,3.93,0.02,5.97,0.39l0.43,0.08
				c2.56,0.46,5.2,0.94,7.5,2.15C338.97,124.31,340.66,125.73,342.33,127.3z"/>
			<path d="M382.94,143.9c2.28,0,4.55-0.33,6.74-0.65c0.55-0.08,1.09-0.16,1.64-0.23c2.48-0.34,5.08-0.9,8.2-1.78
				c2.08-0.58,4.05-1.48,5.96-2.35c0.6-0.27,1.19-0.54,1.79-0.8c1.83-0.8,3.49-1.89,5.09-2.94c0.68-0.45,1.36-0.9,2.06-1.32
				c0.83-0.51,1.7-0.97,2.57-1.44c1.61-0.86,3.28-1.75,4.7-2.91l0.73-0.6l-0.73-0.6c-1.7-1.4-3.65-2.56-5.54-3.69
				c-0.53-0.32-1.05-0.63-1.56-0.94c-0.63-0.38-1.25-0.78-1.87-1.18c-1.69-1.09-3.43-2.21-5.34-3.04c-0.76-0.33-1.51-0.69-2.27-1.05
				c-1.75-0.84-3.56-1.7-5.48-2.24c-2.76-0.78-5.83-1.2-8.29-1.53c-1.89-0.26-3.85-0.19-5.74-0.11c-0.89,0.03-1.77,0.07-2.66,0.07
				l-1.46-0.01c-2.28-0.01-4.63-0.03-6.9,0.28c-2.75,0.38-5.43,1.1-8.16,1.86c-1.93,0.54-3.73,1.4-5.47,2.22
				c-0.74,0.35-1.47,0.7-2.21,1.02c-0.91,0.4-1.87,0.74-2.81,1.07c-1.66,0.59-3.38,1.2-4.92,2.15c-2.19,1.34-4.42,2.94-6.81,4.9
				l-0.3,0.25l0.02,0.39c0.02,0.37,0.39,0.77,0.44,0.81c2.2,1.8,4.69,3.33,6.89,4.68c1.82,1.11,3.79,1.94,5.69,2.73
				c0.61,0.26,1.23,0.51,1.84,0.78c0.98,0.43,1.92,1.01,2.91,1.61c1.43,0.88,2.91,1.78,4.58,2.25c1.63,0.46,3.35,0.46,5.02,0.47
				c1.13,0,2.29,0.01,3.39,0.16c1.06,0.14,2.12,0.45,3.25,0.77C379.53,143.42,381.2,143.9,382.94,143.9z M419.92,128.87
				c-1.14,0.8-2.42,1.49-3.67,2.16c-0.9,0.48-1.8,0.96-2.65,1.48c-0.71,0.43-1.4,0.89-2.1,1.35c-1.62,1.06-3.14,2.07-4.86,2.81
				c-0.6,0.26-1.21,0.54-1.81,0.81c-1.85,0.84-3.77,1.72-5.74,2.27c-3.05,0.85-5.59,1.41-7.99,1.74c-0.55,0.07-1.1,0.15-1.65,0.24
				c-2.14,0.31-4.35,0.63-6.51,0.63c-1.52,0-3.01-0.43-4.59-0.88c-1.13-0.33-2.29-0.66-3.47-0.82c-1.2-0.16-2.41-0.17-3.59-0.17
				c-1.63,0-3.17-0.01-4.61-0.41c-1.46-0.41-2.78-1.22-4.18-2.08c-0.99-0.61-2.02-1.24-3.1-1.71c-0.62-0.27-1.24-0.53-1.86-0.79
				c-1.94-0.81-3.76-1.57-5.48-2.62c-1.99-1.22-4.22-2.58-6.22-4.15c2.09-1.67,4.05-3.06,5.97-4.24c1.41-0.86,2.97-1.42,4.63-2.01
				c0.96-0.34,1.95-0.7,2.91-1.11c0.76-0.33,1.51-0.69,2.26-1.04c1.68-0.8,3.42-1.62,5.22-2.13c2.68-0.75,5.3-1.46,7.95-1.82
				c2.16-0.3,4.36-0.28,6.68-0.27l1.47,0.01c0.9,0,1.81-0.03,2.72-0.07c1.91-0.07,3.71-0.14,5.47,0.1c2.54,0.35,5.42,0.74,8.08,1.49
				c1.79,0.5,3.54,1.34,5.24,2.15c0.77,0.37,1.54,0.74,2.32,1.07c1.79,0.78,3.48,1.87,5.12,2.93c0.63,0.41,1.26,0.81,1.9,1.2
				c0.52,0.32,1.05,0.63,1.58,0.95C416.9,126.85,418.49,127.8,419.92,128.87z"/>
			<path d="M322.33,139.34c2.52,0,4.96-0.48,7.16-0.92c0.51-0.1,1.02-0.19,1.53-0.28c2.41-0.44,4.9-0.89,7.18-2.11
				c2.15-1.15,3.87-2.94,5.54-4.66c0.41-0.43,0.83-0.86,1.25-1.28c0.16-0.16,0.32-0.43,0.22-0.83l0.75-0.84l-1.51-0.15
				c-2.67-0.26-5.23-0.09-8.33,0.58c-0.47,0.1-0.94,0.19-1.41,0.29c-2.26,0.45-4.59,0.91-6.7,2.2c-2.21,1.35-4.43,3.14-6.62,5.32
				l0.55,0.55l-0.63-0.46c-0.29,0.29-1.14,1.14-1.23,1.24l-1,1.13l1.51,0.15C321.16,139.32,321.75,139.34,322.33,139.34z
				 M343.18,129.72c-0.19,0.19-0.37,0.39-0.56,0.58c-1.66,1.72-3.22,3.34-5.15,4.37c-2.07,1.1-4.43,1.54-6.73,1.95
				c-0.52,0.09-1.04,0.19-1.55,0.29c-2.1,0.41-4.43,0.87-6.78,0.89l0.05-0.05c2.1-2.1,4.23-3.82,6.33-5.1c1.88-1.15,3.98-1.56,6.2-2
				c0.48-0.09,0.96-0.19,1.44-0.29C338.94,129.82,341.07,129.62,343.18,129.72z"/>
		</g>
		<path d="M403.13,124.75c1.52-2.3,4.57-2.98,6.81-1.5c1.09,0.72,1.81,1.84,2.02,3.14c0.2,1.26-0.09,2.55-0.82,3.65
			c-0.73,1.1-1.8,1.86-3.03,2.15c-0.36,0.08-0.72,0.13-1.07,0.13c-0.9,0-1.79-0.27-2.58-0.79c-1.09-0.72-1.83-1.83-2.08-3.11
			C402.14,127.15,402.4,125.84,403.13,124.75z M403.9,128.13c0.17,0.87,0.67,1.62,1.41,2.12c0.74,0.49,1.61,0.64,2.45,0.45
			c0.54-0.13,1.03-0.4,1.46-0.78c-0.68,0.17-1.42,0.07-2.04-0.34c-1.19-0.78-1.51-2.38-0.73-3.57c0.73-1.1,2.15-1.45,3.3-0.87
			c-0.19-0.23-0.4-0.43-0.65-0.6c-0.54-0.36-1.15-0.53-1.76-0.53c-1.11,0-2.23,0.56-2.91,1.59
			C403.91,126.36,403.73,127.26,403.9,128.13z"/>
	</g>
	<g>
		<path class="st11" d="M403.6,193.24c-1.26,1.91-0.67,4.64,1.23,5.9c1.91,1.26,4.4,0.57,5.67-1.34c1.26-1.91,0.85-4.38-1.06-5.64
			C407.54,190.91,404.86,191.34,403.6,193.24z"/>
	</g>
	<g>
		<g>
			<path d="M341.96,197.03c0.74,0,1.5-0.03,2.26-0.11l1.65-0.17l-1.19-1.16c-2.18-2.12-4.35-4.13-6.81-5.43
				c-2.51-1.33-5.27-1.83-7.94-2.31l-0.43-0.08c-2.72-0.49-5.07-0.57-8.1-0.27l-1.65,0.16l1.19,1.16c1.99,1.93,3.85,3.65,6.43,5.01
				c2.73,1.44,5.69,2.06,8.26,2.52C337.5,196.7,339.65,197.03,341.96,197.03z M342.33,195.48c-2.33,0.05-4.53-0.29-6.44-0.63
				c-2.45-0.44-5.28-1.03-7.81-2.37c-1.87-0.99-3.36-2.2-4.83-3.56c2.1-0.1,3.93,0.02,5.97,0.39l0.43,0.08
				c2.56,0.46,5.2,0.94,7.5,2.15C338.97,192.49,340.66,193.91,342.33,195.48z"/>
			<path d="M382.94,212.08c2.28,0,4.55-0.33,6.74-0.65c0.55-0.08,1.09-0.16,1.64-0.23c2.48-0.34,5.08-0.9,8.2-1.78
				c2.08-0.58,4.05-1.48,5.96-2.35c0.6-0.27,1.19-0.54,1.79-0.8c1.83-0.8,3.49-1.89,5.09-2.94c0.68-0.45,1.36-0.9,2.06-1.32
				c0.83-0.51,1.7-0.97,2.57-1.44c1.61-0.86,3.28-1.75,4.7-2.91l0.73-0.6l-0.73-0.6c-1.7-1.4-3.65-2.56-5.54-3.69
				c-0.53-0.32-1.05-0.63-1.56-0.94c-0.63-0.38-1.25-0.78-1.87-1.18c-1.69-1.09-3.43-2.21-5.34-3.04c-0.76-0.33-1.51-0.69-2.27-1.05
				c-1.75-0.84-3.56-1.7-5.48-2.24c-2.76-0.78-5.83-1.2-8.29-1.53c-1.89-0.26-3.85-0.19-5.74-0.11c-0.89,0.03-1.77,0.07-2.66,0.07
				l-1.46-0.01c-2.28-0.01-4.63-0.03-6.9,0.28c-2.75,0.38-5.43,1.1-8.16,1.86c-1.93,0.54-3.73,1.4-5.47,2.22
				c-0.74,0.35-1.47,0.7-2.21,1.02c-0.91,0.4-1.87,0.74-2.81,1.07c-1.66,0.59-3.38,1.2-4.92,2.15c-2.19,1.34-4.42,2.94-6.81,4.9
				l-0.3,0.25l0.02,0.39c0.02,0.37,0.39,0.77,0.44,0.81c2.2,1.8,4.69,3.33,6.89,4.68c1.82,1.11,3.79,1.94,5.69,2.73
				c0.61,0.26,1.23,0.51,1.84,0.78c0.98,0.43,1.92,1.01,2.91,1.61c1.43,0.88,2.91,1.78,4.58,2.25c1.63,0.46,3.35,0.46,5.02,0.47
				c1.13,0,2.29,0.01,3.39,0.16c1.06,0.14,2.12,0.45,3.25,0.77C379.53,211.6,381.2,212.08,382.94,212.08z M419.92,197.05
				c-1.14,0.8-2.42,1.49-3.67,2.16c-0.9,0.48-1.8,0.96-2.65,1.48c-0.71,0.43-1.4,0.89-2.1,1.35c-1.62,1.06-3.14,2.07-4.86,2.81
				c-0.6,0.26-1.21,0.54-1.81,0.81c-1.85,0.84-3.77,1.72-5.74,2.27c-3.05,0.85-5.59,1.41-7.99,1.74c-0.55,0.07-1.1,0.15-1.65,0.24
				c-2.14,0.31-4.35,0.63-6.51,0.63c-1.52,0-3.01-0.43-4.59-0.88c-1.13-0.33-2.29-0.66-3.47-0.82c-1.2-0.16-2.41-0.17-3.59-0.17
				c-1.63,0-3.17-0.01-4.61-0.41c-1.46-0.41-2.78-1.22-4.18-2.08c-0.99-0.61-2.02-1.24-3.1-1.71c-0.62-0.27-1.24-0.53-1.86-0.79
				c-1.94-0.81-3.76-1.57-5.48-2.62c-1.99-1.22-4.22-2.58-6.22-4.15c2.09-1.67,4.05-3.06,5.97-4.24c1.41-0.86,2.97-1.42,4.63-2.01
				c0.96-0.34,1.95-0.7,2.91-1.11c0.76-0.33,1.51-0.69,2.26-1.04c1.68-0.8,3.42-1.62,5.22-2.13c2.68-0.75,5.3-1.46,7.95-1.82
				c2.16-0.3,4.36-0.28,6.68-0.27l1.47,0.01c0.9,0,1.81-0.03,2.72-0.07c1.91-0.07,3.71-0.14,5.47,0.1c2.54,0.35,5.42,0.74,8.08,1.49
				c1.79,0.5,3.54,1.34,5.24,2.15c0.77,0.37,1.54,0.74,2.32,1.07c1.79,0.78,3.48,1.87,5.12,2.93c0.63,0.41,1.26,0.81,1.9,1.2
				c0.52,0.32,1.05,0.63,1.58,0.95C416.9,195.03,418.49,195.98,419.92,197.05z"/>
			<path d="M322.33,207.53c2.52,0,4.96-0.48,7.16-0.92c0.51-0.1,1.02-0.19,1.53-0.28c2.41-0.44,4.9-0.89,7.18-2.11
				c2.15-1.15,3.87-2.94,5.54-4.66c0.41-0.43,0.83-0.86,1.25-1.28c0.16-0.16,0.32-0.43,0.22-0.83l0.75-0.84l-1.51-0.15
				c-2.67-0.26-5.23-0.09-8.33,0.58c-0.47,0.1-0.94,0.19-1.41,0.29c-2.26,0.45-4.59,0.91-6.7,2.2c-2.21,1.35-4.43,3.14-6.62,5.32
				l0.55,0.55l-0.63-0.46c-0.29,0.29-1.14,1.14-1.23,1.24l-1,1.13l1.51,0.15C321.16,207.5,321.75,207.53,322.33,207.53z
				 M343.18,197.9c-0.19,0.19-0.37,0.39-0.56,0.58c-1.66,1.72-3.22,3.34-5.15,4.37c-2.07,1.1-4.43,1.54-6.73,1.95
				c-0.52,0.09-1.04,0.19-1.55,0.29c-2.1,0.41-4.43,0.87-6.78,0.89l0.05-0.05c2.1-2.1,4.23-3.82,6.33-5.1c1.88-1.15,3.98-1.56,6.2-2
				c0.48-0.09,0.96-0.19,1.44-0.29C338.94,198,341.07,197.8,343.18,197.9z"/>
		</g>
		<path d="M403.13,192.93c1.52-2.3,4.57-2.98,6.81-1.5c1.09,0.72,1.81,1.84,2.02,3.14c0.2,1.26-0.09,2.55-0.82,3.65
			c-0.73,1.1-1.8,1.86-3.03,2.15c-0.36,0.08-0.72,0.13-1.07,0.13c-0.9,0-1.79-0.27-2.58-0.79c-1.09-0.72-1.83-1.83-2.08-3.11
			C402.14,195.33,402.4,194.03,403.13,192.93z M403.9,196.31c0.17,0.87,0.67,1.62,1.41,2.12c0.74,0.49,1.61,0.64,2.45,0.45
			c0.54-0.13,1.03-0.4,1.46-0.78c-0.68,0.17-1.42,0.07-2.04-0.34c-1.19-0.78-1.51-2.38-0.73-3.57c0.73-1.1,2.15-1.45,3.3-0.87
			c-0.19-0.23-0.4-0.43-0.65-0.6c-0.54-0.36-1.15-0.53-1.76-0.53c-1.11,0-2.23,0.56-2.91,1.59
			C403.91,194.54,403.73,195.44,403.9,196.31z"/>
	</g>
</g>
<g>
	<g>
		<text transform="matrix(1 0 0 1 556.7607 321.7805)" class="st0 st1 st12 st3">Cinque </text>
		<g>
			<text transform="matrix(1 0 0 1 556.7607 321.7805)" class="st13 st1 st12 st3">Cinque </text>
		</g>
		<g class="st4">
			<text transform="matrix(1 0 0 1 556.7607 321.7805)" class="st1 st12 st3">Cinque </text>
		</g>
	</g>
	<g>
		<text transform="matrix(1 0 0 1 576.3974 376.2903)" class="st0 st1 st14 st3">Terre</text>
		<text transform="matrix(1 0 0 1 576.3974 376.2903)" class="st13 st1 st14 st3">Terre</text>
		<g class="st4">
			<text transform="matrix(1 0 0 1 576.3974 376.2903)" class="st1 st14 st3">Terre</text>
		</g>
	</g>
	<g>
		<text transform="matrix(1 0 0 1 631.6044 410.9563)" class="st15 st6 st16 st8">ItalIA</text>
		<g>
			<text transform="matrix(1 0 0 1 631.6044 410.9563)" class="st17 st6 st16 st8">ItalIA</text>
		</g>
	</g>
	<g>
		<path class="st0" d="M725.68,255.66c-2.51,2.6-3.04-0.08-6.66-0.08c-3.62,0-3.62-0.83-7.23-0.83c-3.62,0-3.62,2.96-7.23,2.96
			c-3.62,0-3.62-1.8-7.23-1.8c-3.62,0-3.62-0.78-7.23-0.78s-3.62-0.29-7.23-0.29c-3.62,0-3.62,0.27-7.23,0.27
			c-3.62,0-3.62,0.63-7.24,0.63c-3.62,0-3.62,1.31-7.23,1.31c-3.62,0-3.62-1.72-7.23-1.72s-3.62,1.1-7.23,1.1
			c-3.62,0-3.62-1.84-7.23-1.84c-3.62,0-3.62,1.56-7.24,1.56c-3.62,0-3.62,1.42-7.24,1.42c-3.62,0-3.62-1.39-7.24-1.39
			c-3.62,0-3.62,1.77-7.24,1.77c-3.62,0-4.27,0.45-6.79-2.15c-2.6-2.68,0.47-3.3,0.47-7.04c0-3.74-2.23-3.74-2.23-7.48
			c0-3.74,0.7-3.74,0.7-7.48c0-3.74,1.79-3.74,1.79-7.48c0-3.74,0.21-3.74,0.21-7.48c0-3.74-0.99-3.74-0.99-7.48
			c0-3.74-1.04-3.74-1.04-7.48c0-3.74,2.48-3.74,2.48-7.48c0-3.74-1.08-3.74-1.08-7.48c0-3.74-1.79-3.74-1.79-7.48
			c0-3.74,1.8-3.74,1.8-7.48c0-3.74-2.03-3.74-2.03-7.48c0-3.74-0.47-3.74-0.47-7.48c0-3.74,2.66-3.74,2.66-7.48
			c0-3.74,0.7-3.74,0.7-7.48c0-3.74,0.01-3.74,0.01-7.48c0-3.74-0.41-3.74-0.41-7.48c0-3.74-0.7-3.74-0.7-7.48s-0.98-3.74-0.98-7.48
			c0-3.74-0.35-3.74-0.35-7.48c0-3.74,0.65-3.74,0.65-7.48c0-3.74-0.99-3.74-0.99-7.49c0-3.74,1.54-3.74,1.54-7.48
			c0-3.74,0.87-3.74,0.87-7.49c0-3.74-2.62-3.58-0.02-6.27c2.51-2.6,2.36-2.95,5.97-2.95c3.62,0,3.62,3.47,7.23,3.47
			c3.62,0,3.62-2.88,7.23-2.88c3.62,0,3.62,0.06,7.23,0.06c3.62,0,3.62,2.6,7.23,2.6c3.62,0,3.62,0.22,7.23,0.22
			c3.62,0,3.62-1.07,7.23-1.07c3.62,0,3.62-1.94,7.24-1.94c3.62,0,3.62,0.41,7.23,0.41c3.62,0,3.62,1.46,7.23,1.46
			c3.62,0,3.62-2.07,7.23-2.07c3.62,0,3.62,0.86,7.23,0.86c3.62,0,3.62,0.96,7.24,0.96c3.62,0,3.62-0.31,7.24-0.31
			c3.62,0,3.62,1.57,7.24,1.57c3.62,0,3.62-1.33,7.24-1.33c3.62,0,3.58-1.77,6.1,0.83c2.6,2.68-0.4,2.63-0.4,6.37
			c0,3.74,2.38,3.74,2.38,7.48c0,3.74,0.86,3.74,0.86,7.48c0,3.74-2.11,3.74-2.11,7.48c0,3.74-1.31,3.74-1.31,7.48
			c0,3.74,2.26,3.74,2.26,7.48c0,3.74-1.92,3.74-1.92,7.48c0,3.74,0.81,3.74,0.81,7.48c0,3.74,0.64,3.74,0.64,7.48
			c0,3.74-0.71,3.74-0.71,7.48c0,3.74,1.84,3.74,1.84,7.48c0,3.74-2.13,3.74-2.13,7.48c0,3.74,2.71,3.74,2.71,7.48
			c0,3.74-2.1,3.74-2.1,7.48c0,3.74-1.09,3.74-1.09,7.48c0,3.74,1.94,3.74,1.94,7.48c0,3.74-1.75,3.74-1.75,7.48
			c0,3.74,1.1,3.74,1.1,7.48s1.55,3.74,1.55,7.48c0,3.74-2.79,3.74-2.79,7.48c0,3.74,1.62,3.74,1.62,7.48
			c0,3.74-0.72,3.74-0.72,7.49c0,3.74-0.1,3.74-0.1,7.48c0,3.74,0.69,3.67,1.33,7.36C727.64,252.23,728.28,252.96,725.68,255.66z"/>
		<path class="st18" d="M725.68,255.66c-2.51,2.6-3.04-0.08-6.66-0.08c-3.62,0-3.62-0.83-7.23-0.83c-3.62,0-3.62,2.96-7.23,2.96
			c-3.62,0-3.62-1.8-7.23-1.8c-3.62,0-3.62-0.78-7.23-0.78s-3.62-0.29-7.23-0.29c-3.62,0-3.62,0.27-7.23,0.27
			c-3.62,0-3.62,0.63-7.24,0.63c-3.62,0-3.62,1.31-7.23,1.31c-3.62,0-3.62-1.72-7.23-1.72s-3.62,1.1-7.23,1.1
			c-3.62,0-3.62-1.84-7.23-1.84c-3.62,0-3.62,1.56-7.24,1.56c-3.62,0-3.62,1.42-7.24,1.42c-3.62,0-3.62-1.39-7.24-1.39
			c-3.62,0-3.62,1.77-7.24,1.77c-3.62,0-4.27,0.45-6.79-2.15c-2.6-2.68,0.47-3.3,0.47-7.04c0-3.74-2.23-3.74-2.23-7.48
			c0-3.74,0.7-3.74,0.7-7.48c0-3.74,1.79-3.74,1.79-7.48c0-3.74,0.21-3.74,0.21-7.48c0-3.74-0.99-3.74-0.99-7.48
			c0-3.74-1.04-3.74-1.04-7.48c0-3.74,2.48-3.74,2.48-7.48c0-3.74-1.08-3.74-1.08-7.48c0-3.74-1.79-3.74-1.79-7.48
			c0-3.74,1.8-3.74,1.8-7.48c0-3.74-2.03-3.74-2.03-7.48c0-3.74-0.47-3.74-0.47-7.48c0-3.74,2.66-3.74,2.66-7.48
			c0-3.74,0.7-3.74,0.7-7.48c0-3.74,0.01-3.74,0.01-7.48c0-3.74-0.41-3.74-0.41-7.48c0-3.74-0.7-3.74-0.7-7.48s-0.98-3.74-0.98-7.48
			c0-3.74-0.35-3.74-0.35-7.48c0-3.74,0.65-3.74,0.65-7.48c0-3.74-0.99-3.74-0.99-7.49c0-3.74,1.54-3.74,1.54-7.48
			c0-3.74,0.87-3.74,0.87-7.49c0-3.74-2.62-3.58-0.02-6.27c2.51-2.6,2.36-2.95,5.97-2.95c3.62,0,3.62,3.47,7.23,3.47
			c3.62,0,3.62-2.88,7.23-2.88c3.62,0,3.62,0.06,7.23,0.06c3.62,0,3.62,2.6,7.23,2.6c3.62,0,3.62,0.22,7.23,0.22
			c3.62,0,3.62-1.07,7.23-1.07c3.62,0,3.62-1.94,7.24-1.94c3.62,0,3.62,0.41,7.23,0.41c3.62,0,3.62,1.46,7.23,1.46
			c3.62,0,3.62-2.07,7.23-2.07c3.62,0,3.62,0.86,7.23,0.86c3.62,0,3.62,0.96,7.24,0.96c3.62,0,3.62-0.31,7.24-0.31
			c3.62,0,3.62,1.57,7.24,1.57c3.62,0,3.62-1.33,7.24-1.33c3.62,0,3.58-1.77,6.1,0.83c2.6,2.68-0.4,2.63-0.4,6.37
			c0,3.74,2.38,3.74,2.38,7.48c0,3.74,0.86,3.74,0.86,7.48c0,3.74-2.11,3.74-2.11,7.48c0,3.74-1.31,3.74-1.31,7.48
			c0,3.74,2.26,3.74,2.26,7.48c0,3.74-1.92,3.74-1.92,7.48c0,3.74,0.81,3.74,0.81,7.48c0,3.74,0.64,3.74,0.64,7.48
			c0,3.74-0.71,3.74-0.71,7.48c0,3.74,1.84,3.74,1.84,7.48c0,3.74-2.13,3.74-2.13,7.48c0,3.74,2.71,3.74,2.71,7.48
			c0,3.74-2.1,3.74-2.1,7.48c0,3.74-1.09,3.74-1.09,7.48c0,3.74,1.94,3.74,1.94,7.48c0,3.74-1.75,3.74-1.75,7.48
			c0,3.74,1.1,3.74,1.1,7.48s1.55,3.74,1.55,7.48c0,3.74-2.79,3.74-2.79,7.48c0,3.74,1.62,3.74,1.62,7.48
			c0,3.74-0.72,3.74-0.72,7.49c0,3.74-0.1,3.74-0.1,7.48c0,3.74,0.69,3.67,1.33,7.36C727.64,252.23,728.28,252.96,725.68,255.66z"/>
		<path class="st10" d="M725.68,255.66c-2.51,2.6-3.04-0.08-6.66-0.08c-3.62,0-3.62-0.83-7.23-0.83c-3.62,0-3.62,2.96-7.23,2.96
			c-3.62,0-3.62-1.8-7.23-1.8c-3.62,0-3.62-0.78-7.23-0.78s-3.62-0.29-7.23-0.29c-3.62,0-3.62,0.27-7.23,0.27
			c-3.62,0-3.62,0.63-7.24,0.63c-3.62,0-3.62,1.31-7.23,1.31c-3.62,0-3.62-1.72-7.23-1.72s-3.62,1.1-7.23,1.1
			c-3.62,0-3.62-1.84-7.23-1.84c-3.62,0-3.62,1.56-7.24,1.56c-3.62,0-3.62,1.42-7.24,1.42c-3.62,0-3.62-1.39-7.24-1.39
			c-3.62,0-3.62,1.77-7.24,1.77c-3.62,0-4.27,0.45-6.79-2.15c-2.6-2.68,0.47-3.3,0.47-7.04c0-3.74-2.23-3.74-2.23-7.48
			c0-3.74,0.7-3.74,0.7-7.48c0-3.74,1.79-3.74,1.79-7.48c0-3.74,0.21-3.74,0.21-7.48c0-3.74-0.99-3.74-0.99-7.48
			c0-3.74-1.04-3.74-1.04-7.48c0-3.74,2.48-3.74,2.48-7.48c0-3.74-1.08-3.74-1.08-7.48c0-3.74-1.79-3.74-1.79-7.48
			c0-3.74,1.8-3.74,1.8-7.48c0-3.74-2.03-3.74-2.03-7.48c0-3.74-0.47-3.74-0.47-7.48c0-3.74,2.66-3.74,2.66-7.48
			c0-3.74,0.7-3.74,0.7-7.48c0-3.74,0.01-3.74,0.01-7.48c0-3.74-0.41-3.74-0.41-7.48c0-3.74-0.7-3.74-0.7-7.48s-0.98-3.74-0.98-7.48
			c0-3.74-0.35-3.74-0.35-7.48c0-3.74,0.65-3.74,0.65-7.48c0-3.74-0.99-3.74-0.99-7.49c0-3.74,1.54-3.74,1.54-7.48
			c0-3.74,0.87-3.74,0.87-7.49c0-3.74-2.62-3.58-0.02-6.27c2.51-2.6,2.36-2.95,5.97-2.95c3.62,0,3.62,3.47,7.23,3.47
			c3.62,0,3.62-2.88,7.23-2.88c3.62,0,3.62,0.06,7.23,0.06c3.62,0,3.62,2.6,7.23,2.6c3.62,0,3.62,0.22,7.23,0.22
			c3.62,0,3.62-1.07,7.23-1.07c3.62,0,3.62-1.94,7.24-1.94c3.62,0,3.62,0.41,7.23,0.41c3.62,0,3.62,1.46,7.23,1.46
			c3.62,0,3.62-2.07,7.23-2.07c3.62,0,3.62,0.86,7.23,0.86c3.62,0,3.62,0.96,7.24,0.96c3.62,0,3.62-0.31,7.24-0.31
			c3.62,0,3.62,1.57,7.24,1.57c3.62,0,3.62-1.33,7.24-1.33c3.62,0,3.58-1.77,6.1,0.83c2.6,2.68-0.4,2.63-0.4,6.37
			c0,3.74,2.38,3.74,2.38,7.48c0,3.74,0.86,3.74,0.86,7.48c0,3.74-2.11,3.74-2.11,7.48c0,3.74-1.31,3.74-1.31,7.48
			c0,3.74,2.26,3.74,2.26,7.48c0,3.74-1.92,3.74-1.92,7.48c0,3.74,0.81,3.74,0.81,7.48c0,3.74,0.64,3.74,0.64,7.48
			c0,3.74-0.71,3.74-0.71,7.48c0,3.74,1.84,3.74,1.84,7.48c0,3.74-2.13,3.74-2.13,7.48c0,3.74,2.71,3.74,2.71,7.48
			c0,3.74-2.1,3.74-2.1,7.48c0,3.74-1.09,3.74-1.09,7.48c0,3.74,1.94,3.74,1.94,7.48c0,3.74-1.75,3.74-1.75,7.48
			c0,3.74,1.1,3.74,1.1,7.48s1.55,3.74,1.55,7.48c0,3.74-2.79,3.74-2.79,7.48c0,3.74,1.62,3.74,1.62,7.48
			c0,3.74-0.72,3.74-0.72,7.49c0,3.74-0.1,3.74-0.1,7.48c0,3.74,0.69,3.67,1.33,7.36C727.64,252.23,728.28,252.96,725.68,255.66z"/>
	</g>
	<g>
		<path class="st19" d="M694.59,93.11c2.12-2.06,4.24-4.04,6.64-5.3c2.53-1.34,5.39-1.81,8.15-2.31c2.73-0.49,5.02-0.55,7.89-0.26
			c-2.12,2.06-3.86,3.62-6.25,4.88c-2.53,1.34-5.28,1.95-8.04,2.45C700.25,93.06,697.46,93.39,694.59,93.11z"/>
		<path class="st19" d="M694.05,93.8c0.01,0.01-0.15,0.24-0.16,0.25c-2.12,1.74-4.46,3.18-6.81,4.62c-2.34,1.43-4.9,2.36-7.44,3.46
			c-2.5,1.09-4.72,3.08-7.39,3.83c-2.62,0.74-5.54,0.23-8.3,0.6c-2.69,0.37-5.37,1.71-8.16,1.71c-2.79,0-5.58-0.51-8.27-0.88
			c-2.75-0.38-5.47-1.02-8.1-1.76c-2.67-0.75-5.15-2.02-7.65-3.12c-2.53-1.11-4.71-2.78-7.05-4.21c-2.35-1.44-5.06-2.55-7.19-4.29
			c2.12-1.74,4.66-3.13,7.01-4.57c2.33-1.43,4.58-3.07,7.11-4.18c2.5-1.09,4.98-2.51,7.65-3.26c2.62-0.74,5.43-1.13,8.19-1.51
			c2.69-0.37,5.5-0.04,8.29-0.04c2.79,0,5.57-0.1,8.26,0.27c2.75,0.38,5.44,1.1,8.06,1.84c2.67,0.75,5.08,2.12,7.58,3.21
			c2.53,1.11,5.3,1.74,7.63,3.17C689.68,90.4,691.93,92.06,694.05,93.8z"/>
		<path class="st19" d="M716.81,102.34c0.11,0.11,1.18,1.17,1.28,1.29c-2.94,0.29-5.79-0.25-8.7-0.82
			c-2.87-0.57-5.85-0.91-8.49-2.32c-2.55-1.36-4.46-3.66-6.61-5.81c-0.11-0.11,0.18-0.39,0.07-0.51c2.91-0.29,5.51,0.01,8.09,0.57
			c2.67,0.57,5.45,0.91,7.88,2.39C712.53,98.48,714.72,100.25,716.81,102.34z"/>
	</g>
	<g>
		<path class="st11" d="M635.11,90.22c1.26,1.91,0.7,4.63-1.21,5.89c-1.91,1.26-4.42,0.57-5.68-1.34c-1.26-1.91-0.94-4.52,0.97-5.78
			C631.1,87.73,633.85,88.31,635.11,90.22z"/>
	</g>
	<g>
		<g>
			<path class="st20" d="M696.77,93.99c-0.74,0-1.5-0.03-2.26-0.11l-1.65-0.17l1.19-1.16c2.18-2.12,4.35-4.13,6.81-5.43
				c2.51-1.33,5.27-1.83,7.94-2.31l0.43-0.08c2.72-0.49,5.07-0.57,8.1-0.27l1.65,0.16l-1.19,1.16c-1.99,1.93-3.85,3.65-6.43,5.01
				c-2.73,1.44-5.69,2.06-8.26,2.52C701.23,93.66,699.08,93.99,696.77,93.99z M696.41,92.44c2.33,0.05,4.53-0.29,6.44-0.63
				c2.45-0.44,5.28-1.03,7.81-2.37c1.87-0.99,3.36-2.2,4.83-3.56c-2.1-0.1-3.93,0.02-5.97,0.39l-0.43,0.08
				c-2.56,0.46-5.2,0.94-7.5,2.15C699.77,89.45,698.08,90.87,696.41,92.44z"/>
			<path class="st20" d="M655.8,109.04c-2.28,0-4.55-0.33-6.74-0.65c-0.55-0.08-1.09-0.16-1.64-0.23c-2.48-0.34-5.08-0.9-8.2-1.78
				c-2.08-0.58-4.05-1.48-5.96-2.35c-0.6-0.27-1.19-0.54-1.79-0.8c-1.83-0.8-3.49-1.89-5.09-2.94c-0.68-0.45-1.36-0.9-2.06-1.32
				c-0.83-0.51-1.7-0.97-2.57-1.44c-1.61-0.86-3.28-1.75-4.7-2.91l-0.73-0.6l0.73-0.6c1.7-1.4,3.65-2.56,5.54-3.69
				c0.53-0.32,1.05-0.63,1.56-0.94c0.63-0.38,1.25-0.78,1.87-1.18c1.69-1.09,3.43-2.21,5.34-3.04c0.76-0.33,1.51-0.69,2.27-1.05
				c1.75-0.84,3.56-1.7,5.48-2.24c2.76-0.78,5.83-1.2,8.29-1.53c1.89-0.26,3.85-0.19,5.74-0.11c0.89,0.03,1.77,0.07,2.66,0.07
				l1.46-0.01c2.28-0.01,4.63-0.03,6.9,0.28c2.75,0.38,5.43,1.1,8.16,1.86c1.93,0.54,3.73,1.4,5.47,2.22
				c0.74,0.35,1.47,0.7,2.21,1.02c0.91,0.4,1.87,0.74,2.81,1.07c1.66,0.59,3.38,1.2,4.92,2.15c2.19,1.34,4.42,2.94,6.81,4.9
				l0.3,0.25l-0.02,0.39c-0.02,0.37-0.39,0.77-0.44,0.81c-2.2,1.8-4.69,3.33-6.89,4.68c-1.82,1.11-3.79,1.94-5.69,2.73
				c-0.61,0.26-1.23,0.51-1.84,0.78c-0.98,0.43-1.92,1.01-2.91,1.61c-1.43,0.88-2.91,1.78-4.58,2.25c-1.63,0.46-3.35,0.46-5.02,0.47
				c-1.13,0-2.29,0.01-3.39,0.16c-1.06,0.14-2.12,0.45-3.25,0.77C659.2,108.56,657.54,109.04,655.8,109.04z M618.81,94.02
				c1.14,0.8,2.42,1.49,3.67,2.16c0.9,0.48,1.8,0.96,2.65,1.48c0.71,0.43,1.4,0.89,2.1,1.35c1.62,1.06,3.14,2.07,4.86,2.81
				c0.6,0.26,1.21,0.54,1.81,0.81c1.85,0.84,3.77,1.72,5.74,2.27c3.05,0.85,5.59,1.41,7.99,1.74c0.55,0.07,1.1,0.15,1.65,0.24
				c2.14,0.31,4.35,0.63,6.51,0.63c1.52,0,3.01-0.43,4.59-0.88c1.13-0.33,2.29-0.66,3.47-0.82c1.2-0.16,2.41-0.17,3.59-0.17
				c1.63,0,3.17-0.01,4.61-0.41c1.46-0.41,2.78-1.22,4.18-2.08c0.99-0.61,2.02-1.24,3.1-1.71c0.62-0.27,1.24-0.53,1.86-0.79
				c1.94-0.81,3.76-1.57,5.48-2.62c1.99-1.22,4.22-2.58,6.22-4.15c-2.09-1.67-4.05-3.06-5.97-4.24c-1.41-0.86-2.97-1.42-4.63-2.01
				c-0.96-0.34-1.95-0.7-2.91-1.11c-0.76-0.33-1.51-0.69-2.26-1.04c-1.68-0.8-3.42-1.62-5.22-2.13c-2.68-0.75-5.3-1.46-7.95-1.82
				c-2.16-0.3-4.36-0.28-6.68-0.27l-1.47,0.01c-0.9,0-1.81-0.03-2.72-0.07c-1.91-0.07-3.71-0.14-5.47,0.1
				c-2.54,0.35-5.42,0.74-8.08,1.49c-1.79,0.5-3.54,1.34-5.24,2.15c-0.77,0.37-1.54,0.74-2.32,1.07c-1.79,0.78-3.48,1.87-5.12,2.93
				c-0.63,0.41-1.26,0.81-1.9,1.2c-0.52,0.32-1.05,0.63-1.58,0.95C621.84,91.99,620.24,92.94,618.81,94.02z"/>
			<path class="st20" d="M716.4,104.49c-2.52,0-4.96-0.48-7.16-0.92c-0.51-0.1-1.02-0.19-1.53-0.28c-2.41-0.44-4.9-0.89-7.18-2.11
				c-2.15-1.15-3.87-2.94-5.54-4.66c-0.41-0.43-0.83-0.86-1.25-1.28c-0.16-0.16-0.32-0.43-0.22-0.83l-0.75-0.84l1.51-0.15
				c2.66-0.26,5.23-0.09,8.33,0.58c0.47,0.1,0.94,0.19,1.41,0.29c2.26,0.45,4.59,0.91,6.7,2.2c2.21,1.35,4.43,3.14,6.62,5.32
				l-0.55,0.55l0.63-0.46c0.29,0.29,1.14,1.14,1.23,1.24l1,1.13l-1.51,0.15C717.58,104.46,716.99,104.49,716.4,104.49z
				 M695.55,94.86c0.19,0.19,0.37,0.39,0.56,0.58c1.66,1.72,3.22,3.34,5.15,4.37c2.07,1.1,4.43,1.54,6.73,1.95
				c0.52,0.09,1.04,0.19,1.55,0.29c2.1,0.41,4.43,0.87,6.78,0.89l-0.05-0.05c-2.1-2.1-4.23-3.82-6.33-5.1
				c-1.88-1.15-3.98-1.56-6.2-2c-0.48-0.09-0.96-0.19-1.44-0.29C699.79,94.96,697.67,94.76,695.55,94.86z"/>
		</g>
		<path class="st20" d="M635.61,89.89c-1.52-2.3-4.57-2.98-6.81-1.5c-1.09,0.72-1.81,1.84-2.02,3.14c-0.2,1.26,0.09,2.56,0.82,3.65
			c0.73,1.1,1.8,1.86,3.03,2.15c0.36,0.08,0.72,0.13,1.07,0.13c0.9,0,1.79-0.27,2.58-0.79c1.09-0.72,1.83-1.83,2.08-3.11
			C636.6,92.29,636.33,90.99,635.61,89.89z M634.84,93.27c-0.17,0.87-0.67,1.62-1.41,2.12c-0.74,0.49-1.61,0.64-2.45,0.45
			c-0.54-0.13-1.03-0.4-1.46-0.78c0.68,0.17,1.42,0.07,2.04-0.34c1.19-0.78,1.51-2.38,0.73-3.57c-0.73-1.1-2.15-1.45-3.3-0.87
			c0.19-0.23,0.4-0.43,0.65-0.6c0.54-0.36,1.15-0.53,1.76-0.53c1.11,0,2.23,0.56,2.91,1.59C634.82,91.5,635,92.4,634.84,93.27z"/>
	</g>
	<g>
		<path class="st21" d="M694.59,161.29c2.12-2.06,4.24-4.04,6.64-5.3c2.53-1.34,5.39-1.81,8.15-2.31c2.73-0.49,5.02-0.55,7.89-0.26
			c-2.12,2.06-3.86,3.62-6.25,4.88c-2.53,1.34-5.28,1.95-8.04,2.45C700.25,161.24,697.46,161.58,694.59,161.29z"/>
		<path class="st21" d="M694.05,161.98c0.01,0.01-0.15,0.24-0.16,0.25c-2.12,1.74-4.46,3.18-6.81,4.62
			c-2.34,1.43-4.9,2.36-7.44,3.46c-2.5,1.09-4.72,3.08-7.39,3.83c-2.62,0.74-5.54,0.23-8.3,0.6c-2.69,0.37-5.37,1.71-8.16,1.71
			c-2.79,0-5.58-0.51-8.27-0.88c-2.75-0.38-5.47-1.02-8.1-1.76c-2.67-0.75-5.15-2.02-7.65-3.12c-2.53-1.11-4.71-2.78-7.05-4.21
			c-2.35-1.44-5.06-2.55-7.19-4.29c2.12-1.74,4.66-3.13,7.01-4.57c2.33-1.43,4.58-3.07,7.11-4.18c2.5-1.09,4.98-2.51,7.65-3.26
			c2.62-0.74,5.43-1.13,8.19-1.51c2.69-0.37,5.5-0.04,8.29-0.04c2.79,0,5.57-0.1,8.26,0.27c2.75,0.38,5.44,1.1,8.06,1.84
			c2.67,0.75,5.08,2.12,7.58,3.21c2.53,1.11,5.3,1.74,7.63,3.17C689.68,158.58,691.93,160.24,694.05,161.98z"/>
		<path class="st21" d="M716.81,170.53c0.11,0.11,1.18,1.17,1.28,1.29c-2.94,0.29-5.79-0.25-8.7-0.82
			c-2.87-0.57-5.85-0.91-8.49-2.32c-2.55-1.36-4.46-3.66-6.61-5.81c-0.11-0.11,0.18-0.39,0.07-0.51c2.91-0.29,5.51,0.01,8.09,0.57
			c2.67,0.57,5.45,0.91,7.88,2.39C712.53,166.66,714.72,168.43,716.81,170.53z"/>
	</g>
	<g>
		<path class="st11" d="M635.12,158.39c1.26,1.91,0.54,4.42-1.37,5.68s-4.53,0.96-5.79-0.95c-1.26-1.91-0.66-4.65,1.25-5.92
			C631.13,155.95,633.86,156.48,635.12,158.39z"/>
	</g>
	<g>
		<g>
			<path class="st22" d="M696.77,162.17c-0.74,0-1.5-0.03-2.26-0.11l-1.65-0.17l1.19-1.16c2.18-2.12,4.35-4.13,6.81-5.43
				c2.51-1.33,5.27-1.83,7.94-2.31l0.43-0.08c2.72-0.49,5.07-0.57,8.1-0.27l1.65,0.16l-1.19,1.16c-1.99,1.93-3.85,3.65-6.43,5.01
				c-2.73,1.44-5.69,2.06-8.26,2.52C701.23,161.85,699.08,162.17,696.77,162.17z M696.41,160.62c2.33,0.05,4.53-0.29,6.44-0.63
				c2.45-0.44,5.28-1.03,7.81-2.37c1.87-0.99,3.36-2.2,4.83-3.56c-2.1-0.1-3.93,0.02-5.97,0.39l-0.43,0.08
				c-2.56,0.46-5.2,0.94-7.5,2.15C699.77,157.63,698.08,159.05,696.41,160.62z"/>
			<path class="st22" d="M655.8,177.23c-2.28,0-4.55-0.33-6.74-0.65c-0.55-0.08-1.09-0.16-1.64-0.23c-2.48-0.34-5.08-0.9-8.2-1.78
				c-2.08-0.58-4.05-1.48-5.96-2.35c-0.6-0.27-1.19-0.54-1.79-0.8c-1.83-0.8-3.49-1.89-5.09-2.94c-0.68-0.45-1.36-0.9-2.06-1.32
				c-0.83-0.51-1.7-0.97-2.57-1.44c-1.61-0.86-3.28-1.75-4.7-2.91l-0.73-0.6l0.73-0.6c1.7-1.4,3.65-2.56,5.54-3.69
				c0.53-0.32,1.05-0.63,1.56-0.94c0.63-0.38,1.25-0.78,1.87-1.18c1.69-1.09,3.43-2.21,5.34-3.04c0.76-0.33,1.51-0.69,2.27-1.05
				c1.75-0.84,3.56-1.7,5.48-2.24c2.76-0.78,5.83-1.2,8.29-1.53c1.89-0.26,3.85-0.19,5.74-0.11c0.89,0.03,1.77,0.07,2.66,0.07
				l1.46-0.01c2.28-0.01,4.63-0.03,6.9,0.28c2.75,0.38,5.43,1.1,8.16,1.86c1.93,0.54,3.73,1.4,5.47,2.22
				c0.74,0.35,1.47,0.7,2.21,1.02c0.91,0.4,1.87,0.74,2.81,1.07c1.66,0.59,3.38,1.2,4.92,2.15c2.19,1.34,4.42,2.94,6.81,4.9
				l0.3,0.25l-0.02,0.39c-0.02,0.37-0.39,0.77-0.44,0.81c-2.2,1.8-4.69,3.33-6.89,4.68c-1.82,1.11-3.79,1.94-5.69,2.73
				c-0.61,0.26-1.23,0.51-1.84,0.78c-0.98,0.43-1.92,1.01-2.91,1.61c-1.43,0.88-2.91,1.78-4.58,2.25c-1.63,0.46-3.35,0.46-5.02,0.47
				c-1.13,0-2.29,0.01-3.39,0.16c-1.06,0.14-2.12,0.45-3.25,0.77C659.2,176.75,657.54,177.23,655.8,177.23z M618.81,162.2
				c1.14,0.8,2.42,1.49,3.67,2.16c0.9,0.48,1.8,0.96,2.65,1.48c0.71,0.43,1.4,0.89,2.1,1.35c1.62,1.06,3.14,2.07,4.86,2.81
				c0.6,0.26,1.21,0.54,1.81,0.81c1.85,0.84,3.77,1.72,5.74,2.27c3.05,0.85,5.59,1.41,7.99,1.74c0.55,0.07,1.1,0.15,1.65,0.24
				c2.14,0.31,4.35,0.63,6.51,0.63c1.52,0,3.01-0.43,4.59-0.88c1.13-0.33,2.29-0.66,3.47-0.82c1.2-0.16,2.41-0.17,3.59-0.17
				c1.63,0,3.17-0.01,4.61-0.41c1.46-0.41,2.78-1.22,4.18-2.08c0.99-0.61,2.02-1.24,3.1-1.71c0.62-0.27,1.24-0.53,1.86-0.79
				c1.94-0.81,3.76-1.57,5.48-2.62c1.99-1.22,4.22-2.58,6.22-4.15c-2.09-1.67-4.05-3.06-5.97-4.24c-1.41-0.86-2.97-1.42-4.63-2.01
				c-0.96-0.34-1.95-0.7-2.91-1.11c-0.76-0.33-1.51-0.69-2.26-1.04c-1.68-0.8-3.42-1.62-5.22-2.13c-2.68-0.75-5.3-1.46-7.95-1.82
				c-2.16-0.3-4.36-0.28-6.68-0.27l-1.47,0.01c-0.9,0-1.81-0.03-2.72-0.07c-1.91-0.07-3.71-0.14-5.47,0.1
				c-2.54,0.35-5.42,0.74-8.08,1.49c-1.79,0.5-3.54,1.34-5.24,2.15c-0.77,0.37-1.54,0.74-2.32,1.07c-1.79,0.78-3.48,1.87-5.12,2.93
				c-0.63,0.41-1.26,0.81-1.9,1.2c-0.52,0.32-1.05,0.63-1.58,0.95C621.84,160.17,620.24,161.13,618.81,162.2z"/>
			<path class="st22" d="M716.4,172.67c-2.52,0-4.96-0.48-7.16-0.92c-0.51-0.1-1.02-0.19-1.53-0.28c-2.41-0.44-4.9-0.89-7.18-2.11
				c-2.15-1.15-3.87-2.94-5.54-4.66c-0.41-0.43-0.83-0.86-1.25-1.28c-0.16-0.16-0.32-0.43-0.22-0.83l-0.75-0.84l1.51-0.15
				c2.66-0.26,5.23-0.09,8.33,0.58c0.47,0.1,0.94,0.19,1.41,0.29c2.26,0.45,4.59,0.91,6.7,2.2c2.21,1.35,4.43,3.14,6.62,5.32
				l-0.55,0.55l0.63-0.46c0.29,0.29,1.14,1.14,1.23,1.24l1,1.13l-1.51,0.15C717.58,172.65,716.99,172.67,716.4,172.67z
				 M695.55,163.05c0.19,0.19,0.37,0.39,0.56,0.58c1.66,1.72,3.22,3.34,5.15,4.37c2.07,1.1,4.43,1.54,6.73,1.95
				c0.52,0.09,1.04,0.19,1.55,0.29c2.1,0.41,4.43,0.87,6.78,0.89l-0.05-0.05c-2.1-2.1-4.23-3.82-6.33-5.1
				c-1.88-1.15-3.98-1.56-6.2-2c-0.48-0.09-0.96-0.19-1.44-0.29C699.79,163.14,697.67,162.94,695.55,163.05z"/>
		</g>
		<path class="st22" d="M635.61,158.07c-1.52-2.3-4.57-2.98-6.81-1.5c-1.09,0.72-1.81,1.84-2.02,3.14c-0.2,1.26,0.09,2.55,0.82,3.65
			c0.73,1.1,1.8,1.86,3.03,2.15c0.36,0.08,0.72,0.13,1.07,0.13c0.9,0,1.79-0.27,2.58-0.79c1.09-0.72,1.83-1.83,2.08-3.11
			C636.6,160.47,636.33,159.17,635.61,158.07z M634.84,161.46c-0.17,0.87-0.67,1.62-1.41,2.12c-0.74,0.49-1.61,0.64-2.45,0.45
			c-0.54-0.13-1.03-0.4-1.46-0.78c0.68,0.17,1.42,0.07,2.04-0.34c1.19-0.78,1.51-2.38,0.73-3.57c-0.73-1.1-2.15-1.45-3.3-0.87
			c0.19-0.23,0.4-0.43,0.65-0.6c0.54-0.36,1.15-0.53,1.76-0.53c1.11,0,2.23,0.56,2.91,1.59C634.82,159.68,635,160.58,634.84,161.46z
			"/>
	</g>
	<g>
		<path class="st23" d="M694.59,229.47c2.12-2.06,4.24-4.04,6.64-5.3c2.53-1.34,5.39-1.81,8.15-2.31c2.73-0.49,5.02-0.55,7.89-0.26
			c-2.12,2.06-3.86,3.62-6.25,4.88c-2.53,1.34-5.28,1.95-8.04,2.45C700.25,229.42,697.46,229.76,694.59,229.47z"/>
		<path class="st23" d="M694.05,230.16c0.01,0.01-0.15,0.24-0.16,0.25c-2.12,1.74-4.46,3.18-6.81,4.62
			c-2.34,1.43-4.9,2.36-7.44,3.46c-2.5,1.09-4.72,3.08-7.39,3.83c-2.62,0.74-5.54,0.23-8.3,0.6c-2.69,0.37-5.37,1.71-8.16,1.71
			c-2.79,0-5.58-0.51-8.27-0.88c-2.75-0.38-5.47-1.02-8.1-1.76c-2.67-0.75-5.15-2.02-7.65-3.12c-2.53-1.11-4.71-2.78-7.05-4.21
			c-2.35-1.44-5.06-2.55-7.19-4.29c2.12-1.74,4.66-3.13,7.01-4.57c2.33-1.43,4.58-3.07,7.11-4.18c2.5-1.09,4.98-2.51,7.65-3.26
			c2.62-0.74,5.43-1.13,8.19-1.51c2.69-0.37,5.5-0.04,8.29-0.04c2.79,0,5.57-0.1,8.26,0.27c2.75,0.38,5.44,1.1,8.06,1.84
			c2.67,0.75,5.08,2.12,7.58,3.21c2.53,1.11,5.3,1.74,7.63,3.17C689.68,226.76,691.93,228.42,694.05,230.16z"/>
		<path class="st23" d="M716.81,238.71c0.11,0.11,1.18,1.17,1.28,1.29c-2.94,0.29-5.79-0.25-8.7-0.82
			c-2.87-0.57-5.85-0.91-8.49-2.32c-2.55-1.36-4.46-3.66-6.61-5.81c-0.11-0.11,0.18-0.39,0.07-0.51c2.91-0.29,5.51,0.01,8.09,0.57
			c2.67,0.57,5.45,0.91,7.88,2.39C712.53,234.84,714.72,236.62,716.81,238.71z"/>
	</g>
	<g>
		<path class="st11" d="M635.1,226.59c1.26,1.91,0.57,4.4-1.34,5.67c-1.91,1.26-4.43,0.89-5.69-1.02c-1.26-1.91-0.65-4.41,1.26-5.67
			C631.24,224.3,633.83,224.69,635.1,226.59z"/>
	</g>
	<g>
		<g>
			<path class="st24" d="M696.77,230.35c-0.74,0-1.5-0.03-2.26-0.11l-1.65-0.17l1.19-1.16c2.18-2.12,4.35-4.13,6.81-5.43
				c2.51-1.33,5.27-1.83,7.94-2.31l0.43-0.08c2.72-0.49,5.07-0.57,8.1-0.27l1.65,0.16l-1.19,1.16c-1.99,1.93-3.85,3.65-6.43,5.01
				c-2.73,1.44-5.69,2.06-8.26,2.52C701.23,230.03,699.08,230.35,696.77,230.35z M696.41,228.8c2.33,0.05,4.53-0.29,6.44-0.63
				c2.45-0.44,5.28-1.03,7.81-2.37c1.87-0.99,3.36-2.2,4.83-3.56c-2.1-0.1-3.93,0.02-5.97,0.39l-0.43,0.08
				c-2.56,0.46-5.2,0.94-7.5,2.15C699.77,225.82,698.08,227.24,696.41,228.8z"/>
			<path class="st24" d="M655.8,245.41c-2.28,0-4.55-0.33-6.74-0.65c-0.55-0.08-1.09-0.16-1.64-0.23c-2.48-0.34-5.08-0.9-8.2-1.78
				c-2.08-0.58-4.05-1.48-5.96-2.35c-0.6-0.27-1.19-0.54-1.79-0.8c-1.83-0.8-3.49-1.89-5.09-2.94c-0.68-0.45-1.36-0.9-2.06-1.32
				c-0.83-0.51-1.7-0.97-2.57-1.44c-1.61-0.86-3.28-1.75-4.7-2.91l-0.73-0.6l0.73-0.6c1.7-1.4,3.65-2.56,5.54-3.69
				c0.53-0.32,1.05-0.63,1.56-0.94c0.63-0.38,1.25-0.78,1.87-1.18c1.69-1.09,3.43-2.21,5.34-3.04c0.76-0.33,1.51-0.69,2.27-1.05
				c1.75-0.84,3.56-1.7,5.48-2.24c2.76-0.78,5.83-1.2,8.29-1.53c1.89-0.26,3.85-0.19,5.74-0.11c0.89,0.03,1.77,0.07,2.66,0.07
				l1.46-0.01c2.28-0.01,4.63-0.03,6.9,0.28c2.75,0.38,5.43,1.1,8.16,1.86c1.93,0.54,3.73,1.4,5.47,2.22
				c0.74,0.35,1.47,0.7,2.21,1.02c0.91,0.4,1.87,0.74,2.81,1.07c1.66,0.59,3.38,1.2,4.92,2.15c2.19,1.34,4.42,2.94,6.81,4.9
				l0.3,0.25l-0.02,0.39c-0.02,0.37-0.39,0.77-0.44,0.81c-2.2,1.8-4.69,3.33-6.89,4.68c-1.82,1.11-3.79,1.94-5.69,2.73
				c-0.61,0.26-1.23,0.51-1.84,0.78c-0.98,0.43-1.92,1.01-2.91,1.61c-1.43,0.88-2.91,1.78-4.58,2.25c-1.63,0.46-3.35,0.46-5.02,0.47
				c-1.13,0-2.29,0.01-3.39,0.16c-1.06,0.14-2.12,0.45-3.25,0.77C659.2,244.93,657.54,245.41,655.8,245.41z M618.81,230.38
				c1.14,0.8,2.42,1.49,3.67,2.16c0.9,0.48,1.8,0.96,2.65,1.48c0.71,0.43,1.4,0.89,2.1,1.35c1.62,1.06,3.14,2.07,4.86,2.81
				c0.6,0.26,1.21,0.54,1.81,0.81c1.85,0.84,3.77,1.72,5.74,2.27c3.05,0.85,5.59,1.41,7.99,1.74c0.55,0.07,1.1,0.15,1.65,0.24
				c2.14,0.31,4.35,0.63,6.51,0.63c1.52,0,3.01-0.43,4.59-0.88c1.13-0.33,2.29-0.66,3.47-0.82c1.2-0.16,2.41-0.17,3.59-0.17
				c1.63,0,3.17-0.01,4.61-0.41c1.46-0.41,2.78-1.22,4.18-2.08c0.99-0.61,2.02-1.24,3.1-1.71c0.62-0.27,1.24-0.53,1.86-0.79
				c1.94-0.81,3.76-1.57,5.48-2.62c1.99-1.22,4.22-2.58,6.22-4.15c-2.09-1.67-4.05-3.06-5.97-4.24c-1.41-0.86-2.97-1.42-4.63-2.01
				c-0.96-0.34-1.95-0.7-2.91-1.11c-0.76-0.33-1.51-0.69-2.26-1.04c-1.68-0.8-3.42-1.62-5.22-2.13c-2.68-0.75-5.3-1.46-7.95-1.82
				c-2.16-0.3-4.36-0.28-6.68-0.27l-1.47,0.01c-0.9,0-1.81-0.03-2.72-0.07c-1.91-0.07-3.71-0.14-5.47,0.1
				c-2.54,0.35-5.42,0.74-8.08,1.49c-1.79,0.5-3.54,1.34-5.24,2.15c-0.77,0.37-1.54,0.74-2.32,1.07c-1.79,0.78-3.48,1.87-5.12,2.93
				c-0.63,0.41-1.26,0.81-1.9,1.2c-0.52,0.32-1.05,0.63-1.58,0.95C621.84,228.36,620.24,229.31,618.81,230.38z"/>
			<path class="st24" d="M716.4,240.85c-2.52,0-4.96-0.48-7.16-0.92c-0.51-0.1-1.02-0.19-1.53-0.28c-2.41-0.44-4.9-0.89-7.18-2.11
				c-2.15-1.15-3.87-2.94-5.54-4.66c-0.41-0.43-0.83-0.86-1.25-1.28c-0.16-0.16-0.32-0.43-0.22-0.83l-0.75-0.84l1.51-0.15
				c2.66-0.26,5.23-0.09,8.33,0.58c0.47,0.1,0.94,0.19,1.41,0.29c2.26,0.45,4.59,0.91,6.7,2.2c2.21,1.35,4.43,3.14,6.62,5.32
				l-0.55,0.55l0.63-0.46c0.29,0.29,1.14,1.14,1.23,1.24l1,1.13l-1.51,0.15C717.58,240.83,716.99,240.85,716.4,240.85z
				 M695.55,231.23c0.19,0.19,0.37,0.39,0.56,0.58c1.66,1.72,3.22,3.34,5.15,4.37c2.07,1.1,4.43,1.54,6.73,1.95
				c0.52,0.09,1.04,0.19,1.55,0.29c2.1,0.41,4.43,0.87,6.78,0.89l-0.05-0.05c-2.1-2.1-4.23-3.82-6.33-5.1
				c-1.88-1.15-3.98-1.56-6.2-2c-0.48-0.09-0.96-0.19-1.44-0.29C699.79,231.33,697.67,231.12,695.55,231.23z"/>
		</g>
		<path class="st24" d="M635.61,226.26c-1.52-2.3-4.57-2.98-6.81-1.5c-1.09,0.72-1.81,1.84-2.02,3.14c-0.2,1.26,0.09,2.56,0.82,3.65
			c0.73,1.1,1.8,1.86,3.03,2.15c0.36,0.08,0.72,0.13,1.07,0.13c0.9,0,1.79-0.27,2.58-0.79c1.09-0.72,1.83-1.83,2.08-3.11
			C636.6,228.66,636.33,227.35,635.61,226.26z M634.84,229.64c-0.17,0.87-0.67,1.62-1.41,2.12c-0.74,0.49-1.61,0.64-2.45,0.45
			c-0.54-0.13-1.03-0.4-1.46-0.78c0.68,0.17,1.42,0.07,2.04-0.34c1.19-0.78,1.51-2.38,0.73-3.57c-0.73-1.1-2.15-1.45-3.3-0.87
			c0.19-0.23,0.4-0.43,0.65-0.6c0.54-0.36,1.15-0.53,1.76-0.53c1.11,0,2.23,0.56,2.91,1.59C634.82,227.87,635,228.77,634.84,229.64z
			"/>
	</g>
	<g>
		<path class="st15" d="M641.42,127.2c-2.12-2.06-4.24-4.04-6.64-5.3c-2.53-1.34-5.39-1.81-8.15-2.31
			c-2.73-0.49-5.02-0.55-7.89-0.26c2.12,2.06,3.86,3.62,6.25,4.88c2.53,1.34,5.28,1.95,8.04,2.45
			C635.76,127.15,638.55,127.49,641.42,127.2z"/>
		<path class="st15" d="M641.96,127.89c-0.01,0.01,0.15,0.24,0.16,0.25c2.12,1.74,4.46,3.18,6.81,4.62c2.34,1.43,4.9,2.36,7.44,3.46
			c2.5,1.09,4.72,3.08,7.39,3.83c2.62,0.74,5.55,0.23,8.3,0.6c2.69,0.37,5.37,1.71,8.16,1.71c2.79,0,5.58-0.51,8.27-0.88
			c2.75-0.38,5.47-1.02,8.1-1.76c2.67-0.75,5.15-2.02,7.65-3.12c2.53-1.11,4.71-2.78,7.05-4.21c2.35-1.44,5.06-2.55,7.19-4.29
			c-2.12-1.74-4.66-3.13-7.01-4.57c-2.33-1.43-4.58-3.07-7.11-4.18c-2.5-1.09-4.98-2.51-7.65-3.26c-2.62-0.74-5.43-1.13-8.19-1.51
			c-2.69-0.37-5.5-0.04-8.29-0.04c-2.79,0-5.57-0.1-8.26,0.27c-2.75,0.38-5.44,1.1-8.06,1.84c-2.67,0.75-5.08,2.12-7.58,3.21
			c-2.53,1.11-5.3,1.74-7.63,3.17C646.33,124.49,644.08,126.15,641.96,127.89z"/>
		<path class="st15" d="M619.2,136.44c-0.11,0.11-1.18,1.17-1.28,1.29c2.94,0.29,5.79-0.25,8.7-0.82c2.87-0.57,5.85-0.91,8.49-2.32
			c2.55-1.36,4.46-3.66,6.61-5.81c0.11-0.11-0.18-0.39-0.07-0.51c-2.91-0.29-5.51,0.01-8.09,0.57c-2.67,0.57-5.45,0.91-7.88,2.39
			C623.47,132.57,621.29,134.34,619.2,136.44z"/>
	</g>
	<g>
		<path class="st11" d="M701.04,124.41c-1.26,1.91-0.73,4.36,1.18,5.62c1.91,1.26,4.3,0.74,5.56-1.17c1.26-1.91,0.94-4.51-0.97-5.77
			C704.9,121.82,702.3,122.5,701.04,124.41z"/>
	</g>
	<g>
		<g>
			<path class="st25" d="M639.23,128.08c0.74,0,1.5-0.03,2.26-0.11l1.65-0.17l-1.19-1.16c-2.18-2.12-4.35-4.13-6.81-5.43
				c-2.51-1.33-5.27-1.83-7.94-2.31l-0.43-0.08c-2.72-0.49-5.07-0.57-8.1-0.27l-1.65,0.16l1.19,1.16c1.99,1.93,3.85,3.65,6.43,5.01
				c2.73,1.44,5.69,2.06,8.26,2.52C634.77,127.76,636.93,128.08,639.23,128.08z M639.6,126.53c-2.33,0.05-4.53-0.29-6.44-0.63
				c-2.45-0.44-5.28-1.03-7.81-2.37c-1.87-0.99-3.36-2.2-4.83-3.56c2.1-0.1,3.93,0.02,5.97,0.39l0.43,0.08
				c2.56,0.46,5.2,0.94,7.5,2.15C636.24,123.54,637.93,124.96,639.6,126.53z"/>
			<path class="st25" d="M680.21,143.13c2.28,0,4.55-0.33,6.74-0.65c0.55-0.08,1.09-0.16,1.64-0.23c2.48-0.34,5.08-0.9,8.2-1.78
				c2.08-0.58,4.05-1.48,5.96-2.35c0.6-0.27,1.19-0.54,1.79-0.8c1.83-0.8,3.49-1.89,5.09-2.94c0.68-0.45,1.36-0.9,2.06-1.32
				c0.83-0.51,1.7-0.97,2.57-1.44c1.61-0.86,3.28-1.75,4.7-2.91l0.73-0.6l-0.73-0.6c-1.7-1.4-3.65-2.56-5.54-3.69
				c-0.53-0.32-1.05-0.63-1.56-0.94c-0.63-0.38-1.25-0.78-1.87-1.18c-1.69-1.09-3.43-2.21-5.34-3.04c-0.76-0.33-1.51-0.69-2.27-1.05
				c-1.75-0.84-3.56-1.7-5.48-2.24c-2.76-0.78-5.83-1.2-8.29-1.53c-1.89-0.26-3.85-0.19-5.74-0.11c-0.89,0.03-1.77,0.07-2.66,0.07
				l-1.46-0.01c-2.28-0.01-4.63-0.03-6.9,0.28c-2.75,0.38-5.43,1.1-8.16,1.86c-1.93,0.54-3.73,1.4-5.47,2.22
				c-0.74,0.35-1.47,0.7-2.21,1.02c-0.91,0.4-1.87,0.74-2.81,1.07c-1.66,0.59-3.38,1.2-4.92,2.15c-2.19,1.34-4.42,2.94-6.81,4.9
				l-0.3,0.25l0.02,0.39c0.02,0.37,0.39,0.77,0.44,0.81c2.2,1.8,4.69,3.33,6.89,4.68c1.82,1.11,3.79,1.94,5.69,2.73
				c0.61,0.26,1.23,0.51,1.84,0.78c0.98,0.43,1.92,1.01,2.91,1.61c1.43,0.88,2.91,1.78,4.58,2.25c1.63,0.46,3.35,0.46,5.02,0.47
				c1.13,0,2.29,0.01,3.39,0.16c1.06,0.14,2.12,0.45,3.25,0.77C676.81,142.66,678.47,143.13,680.21,143.13z M717.19,128.11
				c-1.14,0.8-2.42,1.49-3.67,2.16c-0.9,0.48-1.8,0.96-2.65,1.48c-0.71,0.43-1.4,0.89-2.1,1.35c-1.62,1.06-3.14,2.07-4.86,2.81
				c-0.6,0.26-1.21,0.54-1.81,0.81c-1.85,0.84-3.77,1.72-5.74,2.27c-3.05,0.85-5.59,1.41-7.99,1.74c-0.55,0.07-1.1,0.15-1.65,0.24
				c-2.14,0.31-4.35,0.63-6.51,0.63c-1.52,0-3.01-0.43-4.59-0.88c-1.13-0.33-2.29-0.66-3.47-0.82c-1.2-0.16-2.41-0.17-3.59-0.17
				c-1.63,0-3.17-0.01-4.61-0.41c-1.46-0.41-2.78-1.22-4.18-2.08c-0.99-0.61-2.02-1.24-3.1-1.71c-0.62-0.27-1.24-0.53-1.86-0.79
				c-1.94-0.81-3.76-1.57-5.48-2.62c-1.99-1.22-4.22-2.58-6.22-4.15c2.09-1.67,4.05-3.06,5.97-4.24c1.41-0.86,2.97-1.42,4.63-2.01
				c0.96-0.34,1.95-0.7,2.91-1.11c0.76-0.33,1.51-0.69,2.26-1.04c1.68-0.8,3.42-1.62,5.22-2.13c2.68-0.75,5.3-1.46,7.95-1.82
				c2.16-0.3,4.36-0.28,6.68-0.27l1.47,0.01c0.9,0,1.81-0.03,2.72-0.07c1.91-0.07,3.71-0.14,5.47,0.1c2.54,0.35,5.42,0.74,8.08,1.49
				c1.79,0.5,3.54,1.34,5.24,2.15c0.77,0.37,1.54,0.74,2.32,1.07c1.79,0.78,3.48,1.87,5.12,2.93c0.63,0.41,1.26,0.81,1.9,1.2
				c0.52,0.32,1.05,0.63,1.58,0.95C714.17,126.08,715.77,127.04,717.19,128.11z"/>
			<path class="st25" d="M619.6,138.58c2.52,0,4.96-0.48,7.16-0.92c0.51-0.1,1.02-0.19,1.53-0.28c2.41-0.44,4.9-0.89,7.18-2.11
				c2.15-1.15,3.87-2.94,5.54-4.66c0.41-0.43,0.83-0.86,1.25-1.28c0.16-0.16,0.32-0.43,0.22-0.83l0.75-0.84l-1.51-0.15
				c-2.67-0.26-5.23-0.09-8.33,0.58c-0.47,0.1-0.94,0.19-1.41,0.29c-2.26,0.45-4.59,0.91-6.7,2.2c-2.21,1.35-4.43,3.14-6.62,5.32
				l0.55,0.55l-0.63-0.46c-0.29,0.29-1.14,1.14-1.23,1.24l-1,1.13l1.51,0.15C618.43,138.55,619.02,138.58,619.6,138.58z
				 M640.46,128.95c-0.19,0.19-0.37,0.39-0.56,0.58c-1.66,1.72-3.22,3.34-5.15,4.37c-2.07,1.1-4.43,1.54-6.73,1.95
				c-0.52,0.09-1.04,0.19-1.55,0.29c-2.1,0.41-4.43,0.87-6.78,0.89l0.05-0.05c2.1-2.1,4.23-3.82,6.33-5.1c1.88-1.15,3.98-1.56,6.2-2
				c0.48-0.09,0.96-0.19,1.44-0.29C636.21,129.05,638.34,128.85,640.46,128.95z"/>
		</g>
		<path class="st25" d="M700.4,123.98c1.52-2.3,4.57-2.98,6.81-1.5c1.09,0.72,1.81,1.84,2.02,3.14c0.2,1.26-0.09,2.56-0.82,3.65
			c-0.73,1.1-1.8,1.86-3.03,2.15c-0.36,0.08-0.72,0.13-1.07,0.13c-0.9,0-1.79-0.27-2.58-0.79c-1.09-0.72-1.83-1.83-2.08-3.11
			C699.41,126.38,699.68,125.08,700.4,123.98z M701.17,127.37c0.17,0.87,0.67,1.62,1.41,2.12c0.74,0.49,1.61,0.64,2.45,0.45
			c0.54-0.13,1.03-0.4,1.46-0.78c-0.68,0.17-1.42,0.07-2.04-0.34c-1.19-0.78-1.51-2.38-0.73-3.57c0.73-1.1,2.15-1.45,3.3-0.87
			c-0.19-0.23-0.4-0.43-0.65-0.6c-0.54-0.36-1.15-0.53-1.76-0.53c-1.11,0-2.23,0.56-2.91,1.59
			C701.19,125.59,701,126.49,701.17,127.37z"/>
	</g>
	<g>
		<path class="st17" d="M641.42,195.38c-2.12-2.06-4.24-4.04-6.64-5.3c-2.53-1.34-5.39-1.81-8.15-2.31
			c-2.73-0.49-5.02-0.55-7.89-0.26c2.12,2.06,3.86,3.62,6.25,4.88c2.53,1.34,5.28,1.95,8.04,2.45
			C635.76,195.33,638.55,195.67,641.42,195.38z"/>
		<path class="st17" d="M641.96,196.07c-0.01,0.01,0.15,0.24,0.16,0.25c2.12,1.74,4.46,3.18,6.81,4.62c2.34,1.43,4.9,2.36,7.44,3.46
			c2.5,1.09,4.72,3.08,7.39,3.83c2.62,0.74,5.55,0.23,8.3,0.6c2.69,0.37,5.37,1.71,8.16,1.71c2.79,0,5.58-0.51,8.27-0.88
			c2.75-0.38,5.47-1.02,8.1-1.76c2.67-0.75,5.15-2.02,7.65-3.12c2.53-1.11,4.71-2.78,7.05-4.21c2.35-1.44,5.06-2.55,7.19-4.29
			c-2.12-1.74-4.66-3.13-7.01-4.57c-2.33-1.43-4.58-3.07-7.11-4.18c-2.5-1.09-4.98-2.51-7.65-3.26c-2.62-0.74-5.43-1.13-8.19-1.51
			c-2.69-0.37-5.5-0.04-8.29-0.04c-2.79,0-5.57-0.1-8.26,0.27c-2.75,0.38-5.44,1.1-8.06,1.84c-2.67,0.75-5.08,2.12-7.58,3.21
			c-2.53,1.11-5.3,1.74-7.63,3.17C646.33,192.67,644.08,194.33,641.96,196.07z"/>
		<path class="st17" d="M619.2,204.62c-0.11,0.11-1.18,1.17-1.28,1.29c2.94,0.29,5.79-0.25,8.7-0.82c2.87-0.57,5.85-0.91,8.49-2.32
			c2.55-1.36,4.46-3.66,6.61-5.81c0.11-0.11-0.18-0.39-0.07-0.51c-2.91-0.29-5.51,0.01-8.09,0.57c-2.67,0.57-5.45,0.91-7.88,2.39
			C623.47,200.75,621.29,202.53,619.2,204.62z"/>
	</g>
	<g>
		<path class="st11" d="M701.08,192.62c-1.26,1.91-0.87,4.48,1.03,5.74c1.91,1.26,4.45,0.62,5.71-1.28c1.26-1.91,0.88-4.54-1.02-5.8
			C704.9,190.01,702.35,190.71,701.08,192.62z"/>
	</g>
	<g>
		<g>
			<path class="st26" d="M639.23,196.26c0.74,0,1.5-0.03,2.26-0.11l1.65-0.17l-1.19-1.16c-2.18-2.12-4.35-4.13-6.81-5.43
				c-2.51-1.33-5.27-1.83-7.94-2.31l-0.43-0.08c-2.72-0.49-5.07-0.57-8.1-0.27l-1.65,0.16l1.19,1.16c1.99,1.93,3.85,3.65,6.43,5.01
				c2.73,1.44,5.69,2.06,8.26,2.52C634.77,195.94,636.93,196.26,639.23,196.26z M639.6,194.71c-2.33,0.05-4.53-0.29-6.44-0.63
				c-2.45-0.44-5.28-1.03-7.81-2.37c-1.87-0.99-3.36-2.2-4.83-3.56c2.1-0.1,3.93,0.02,5.97,0.39l0.43,0.08
				c2.56,0.46,5.2,0.94,7.5,2.15C636.24,191.72,637.93,193.15,639.6,194.71z"/>
			<path class="st26" d="M680.21,211.32c2.28,0,4.55-0.33,6.74-0.65c0.55-0.08,1.09-0.16,1.64-0.23c2.48-0.34,5.08-0.9,8.2-1.78
				c2.08-0.58,4.05-1.48,5.96-2.35c0.6-0.27,1.19-0.54,1.79-0.8c1.83-0.8,3.49-1.89,5.09-2.94c0.68-0.45,1.36-0.9,2.06-1.32
				c0.83-0.51,1.7-0.97,2.57-1.44c1.61-0.86,3.28-1.75,4.7-2.91l0.73-0.6l-0.73-0.6c-1.7-1.4-3.65-2.56-5.54-3.69
				c-0.53-0.32-1.05-0.63-1.56-0.94c-0.63-0.38-1.25-0.78-1.87-1.18c-1.69-1.09-3.43-2.21-5.34-3.04c-0.76-0.33-1.51-0.69-2.27-1.05
				c-1.75-0.84-3.56-1.7-5.48-2.24c-2.76-0.78-5.83-1.2-8.29-1.53c-1.89-0.26-3.85-0.19-5.74-0.11c-0.89,0.03-1.77,0.07-2.66,0.07
				l-1.46-0.01c-2.28-0.01-4.63-0.03-6.9,0.28c-2.75,0.38-5.43,1.1-8.16,1.86c-1.93,0.54-3.73,1.4-5.47,2.22
				c-0.74,0.35-1.47,0.7-2.21,1.02c-0.91,0.4-1.87,0.74-2.81,1.07c-1.66,0.59-3.38,1.2-4.92,2.15c-2.19,1.34-4.42,2.94-6.81,4.9
				l-0.3,0.25l0.02,0.39c0.02,0.37,0.39,0.77,0.44,0.81c2.2,1.8,4.69,3.33,6.89,4.68c1.82,1.11,3.79,1.94,5.69,2.73
				c0.61,0.26,1.23,0.51,1.84,0.78c0.98,0.43,1.92,1.01,2.91,1.61c1.43,0.88,2.91,1.78,4.58,2.25c1.63,0.46,3.35,0.46,5.02,0.47
				c1.13,0,2.29,0.01,3.39,0.16c1.06,0.14,2.12,0.45,3.25,0.77C676.81,210.84,678.47,211.32,680.21,211.32z M717.19,196.29
				c-1.14,0.8-2.42,1.49-3.67,2.16c-0.9,0.48-1.8,0.96-2.65,1.48c-0.71,0.43-1.4,0.89-2.1,1.35c-1.62,1.06-3.14,2.07-4.86,2.81
				c-0.6,0.26-1.21,0.54-1.81,0.81c-1.85,0.84-3.77,1.72-5.74,2.27c-3.05,0.85-5.59,1.41-7.99,1.74c-0.55,0.07-1.1,0.15-1.65,0.24
				c-2.14,0.31-4.35,0.63-6.51,0.63c-1.52,0-3.01-0.43-4.59-0.88c-1.13-0.33-2.29-0.66-3.47-0.82c-1.2-0.16-2.41-0.17-3.59-0.17
				c-1.63,0-3.17-0.01-4.61-0.41c-1.46-0.41-2.78-1.22-4.18-2.08c-0.99-0.61-2.02-1.24-3.1-1.71c-0.62-0.27-1.24-0.53-1.86-0.79
				c-1.94-0.81-3.76-1.57-5.48-2.62c-1.99-1.22-4.22-2.58-6.22-4.15c2.09-1.67,4.05-3.06,5.97-4.24c1.41-0.86,2.97-1.42,4.63-2.01
				c0.96-0.34,1.95-0.7,2.91-1.11c0.76-0.33,1.51-0.69,2.26-1.04c1.68-0.8,3.42-1.62,5.22-2.13c2.68-0.75,5.3-1.46,7.95-1.82
				c2.16-0.3,4.36-0.28,6.68-0.27l1.47,0.01c0.9,0,1.81-0.03,2.72-0.07c1.91-0.07,3.71-0.14,5.47,0.1c2.54,0.35,5.42,0.74,8.08,1.49
				c1.79,0.5,3.54,1.34,5.24,2.15c0.77,0.37,1.54,0.74,2.32,1.07c1.79,0.78,3.48,1.87,5.12,2.93c0.63,0.41,1.26,0.81,1.9,1.2
				c0.52,0.32,1.05,0.63,1.58,0.95C714.17,194.27,715.77,195.22,717.19,196.29z"/>
			<path class="st26" d="M619.6,206.76c2.52,0,4.96-0.48,7.16-0.92c0.51-0.1,1.02-0.19,1.53-0.28c2.41-0.44,4.9-0.89,7.18-2.11
				c2.15-1.15,3.87-2.94,5.54-4.66c0.41-0.43,0.83-0.86,1.25-1.28c0.16-0.16,0.32-0.43,0.22-0.83l0.75-0.84l-1.51-0.15
				c-2.67-0.26-5.23-0.09-8.33,0.58c-0.47,0.1-0.94,0.19-1.41,0.29c-2.26,0.45-4.59,0.91-6.7,2.2c-2.21,1.35-4.43,3.14-6.62,5.32
				l0.55,0.55l-0.63-0.46c-0.29,0.29-1.14,1.14-1.23,1.24l-1,1.13l1.51,0.15C618.43,206.74,619.02,206.76,619.6,206.76z
				 M640.46,197.14c-0.19,0.19-0.37,0.39-0.56,0.58c-1.66,1.72-3.22,3.34-5.15,4.37c-2.07,1.1-4.43,1.54-6.73,1.95
				c-0.52,0.09-1.04,0.19-1.55,0.29c-2.1,0.41-4.43,0.87-6.78,0.89l0.05-0.05c2.1-2.1,4.23-3.82,6.33-5.1c1.88-1.15,3.98-1.56,6.2-2
				c0.48-0.09,0.96-0.19,1.44-0.29C636.21,197.24,638.34,197.03,640.46,197.14z"/>
		</g>
		<path class="st26" d="M700.4,192.17c1.52-2.3,4.57-2.98,6.81-1.5c1.09,0.72,1.81,1.84,2.02,3.14c0.2,1.26-0.09,2.55-0.82,3.65
			c-0.73,1.1-1.8,1.86-3.03,2.15c-0.36,0.08-0.72,0.13-1.07,0.13c-0.9,0-1.79-0.27-2.58-0.79c-1.09-0.72-1.83-1.83-2.08-3.11
			C699.41,194.57,699.68,193.26,700.4,192.17z M701.17,195.55c0.17,0.87,0.67,1.62,1.41,2.12c0.74,0.49,1.61,0.64,2.45,0.45
			c0.54-0.13,1.03-0.4,1.46-0.78c-0.68,0.17-1.42,0.07-2.04-0.34c-1.19-0.78-1.51-2.38-0.73-3.57c0.73-1.1,2.15-1.45,3.3-0.87
			c-0.19-0.23-0.4-0.43-0.65-0.6c-0.54-0.36-1.15-0.53-1.76-0.53c-1.11,0-2.23,0.56-2.91,1.59
			C701.19,193.78,701,194.67,701.17,195.55z"/>
	</g>
</g>
</svg>
