<?xml version="1.0" encoding="utf-8"?>
<!-- Generator: Adobe Illustrator 28.3.0, SVG Export Plug-In . SVG Version: 6.00 Build 0)  -->
<svg version="1.1" id="Layer_1" xmlns="http://www.w3.org/2000/svg" xmlns:xlink="http://www.w3.org/1999/xlink" x="0px" y="0px"
	 viewBox="0 0 156.64 122.19" style="enable-background:new 0 0 156.64 122.19;" xml:space="preserve">
<style type="text/css">
	.st0{fill:#B75A3E;}
	.st1{font-family:'Superclarendon-Light';}
	.st2{font-size:26.05px;}
	.st3{letter-spacing:2;}
	.st4{letter-spacing:3;}
	.st5{letter-spacing:1;}
	.st6{letter-spacing:5;}
	.st7{font-family:'AktivGrotesk-Regular';}
	.st8{font-size:13.21px;}
	.st9{fill:#FF6003;}
	.st10{fill:#231F20;}
	.st11{fill:#FFFFFF;}
	.st12{fill:#00A6AF;}
</style>
<g>
	<text transform="matrix(1 0 0 1 0 102.91)" class="st0 st1 st2 st3">K</text>
	<text transform="matrix(1 0 0 1 25.56 102.91)" class="st0 st1 st2 st4">R</text>
	<text transform="matrix(1 0 0 1 49.08 102.91)" class="st0 st1 st2 st4">I</text>
	<text transform="matrix(1 0 0 1 62.91 102.91)" class="st0 st1 st2 st4">S</text>
	<text transform="matrix(1 0 0 1 83.83 102.91)" class="st0 st1 st2 st3">H</text>
	<text transform="matrix(1 0 0 1 109.57 102.91)" class="st0 st1 st2 st5">N</text>
	<text transform="matrix(1 0 0 1 133.77 102.91)" class="st0 st1 st2 st6">A</text>
	<text transform="matrix(1 0 0 1 0 102.91)" class="st0 st1 st2 st3">K</text>
	<text transform="matrix(1 0 0 1 25.56 102.91)" class="st0 st1 st2 st4">R</text>
	<text transform="matrix(1 0 0 1 49.08 102.91)" class="st0 st1 st2 st4">I</text>
	<text transform="matrix(1 0 0 1 62.91 102.91)" class="st0 st1 st2 st4">S</text>
	<text transform="matrix(1 0 0 1 83.83 102.91)" class="st0 st1 st2 st3">H</text>
	<text transform="matrix(1 0 0 1 109.57 102.91)" class="st0 st1 st2 st5">N</text>
	<text transform="matrix(1 0 0 1 133.77 102.91)" class="st0 st1 st2 st6">A</text>
</g>
<g>
	<text transform="matrix(1 0 0 1 7.68 121.95)" class="st0 st7 st8 st3">C</text>
	<text transform="matrix(1 0 0 1 19.42 121.95)" class="st0 st7 st8 st3">O</text>
	<text transform="matrix(1 0 0 1 31.76 121.95)" class="st0 st7 st8 st3">W SAN</text>
	<text transform="matrix(1 0 0 1 86.8 121.95)" class="st0 st7 st8 st3">C</text>
	<text transform="matrix(1 0 0 1 98.41 121.95)" class="st0 st7 st8 st3">T</text>
	<text transform="matrix(1 0 0 1 108.71 121.95)" class="st0 st7 st8 st5">U</text>
	<text transform="matrix(1 0 0 1 119.42 121.95)" class="st0 st7 st8 st3">AR</text>
	<text transform="matrix(1 0 0 1 140.88 121.95)" class="st0 st7 st8 st3">Y</text>
	<text transform="matrix(1 0 0 1 7.68 121.95)" class="st0 st7 st8 st3">C</text>
	<text transform="matrix(1 0 0 1 19.42 121.95)" class="st0 st7 st8 st3">O</text>
	<text transform="matrix(1 0 0 1 31.76 121.95)" class="st0 st7 st8 st3">W SAN</text>
	<text transform="matrix(1 0 0 1 86.8 121.95)" class="st0 st7 st8 st3">C</text>
	<text transform="matrix(1 0 0 1 98.41 121.95)" class="st0 st7 st8 st3">T</text>
	<text transform="matrix(1 0 0 1 108.71 121.95)" class="st0 st7 st8 st5">U</text>
	<text transform="matrix(1 0 0 1 119.42 121.95)" class="st0 st7 st8 st3">AR</text>
	<text transform="matrix(1 0 0 1 140.88 121.95)" class="st0 st7 st8 st3">Y</text>
</g>
<path class="st9" d="M119.92,18.58c-1.39,1.91-3.16,3.52-4.99,5.01c-1.58,1.29-3.25,2.52-5.15,3.25s-4.08,0.92-5.97,0.14
	c-1.21-0.51-2.25-1.39-3.52-1.76c-1.26-0.37-2.93,0.06-3.27,1.33c-0.67,2.55-1.42,5.18-1.75,7.8c-0.83,6.54-2.19,15.41-4.85,22.2
	c0-0.02,0-0.04,0-0.06c0-0.22-0.01-0.45-0.03-0.67c-0.15-1.61-0.84-3.17-2.07-4.41c-0.26-0.26-0.54-0.5-0.83-0.71
	c-0.19-0.14-0.39-0.27-0.6-0.39c-0.51-0.3-1.05-0.53-1.6-0.7c-0.67-0.2-1.35-0.3-2.04-0.3s-1.38,0.1-2.04,0.3
	c-0.55,0.16-1.1,0.4-1.6,0.7c-0.2,0.12-0.4,0.25-0.6,0.39c-0.29,0.21-0.57,0.45-0.83,0.71l-0.7,0.71l-0.32,0.33l-1.1-1.1
	c-1.38-1.38-3.19-2.07-5-2.07s-3.61,0.69-5,2.07c-1.86,1.86-2.51,4.48-1.93,6.86c-1.04-1.98-1.74-4.17-2.19-5.49
	c-0.62-1.83-1.25-3.65-1.72-5.52c-0.65-2.54-0.79-5.14-0.92-7.74c-0.15-2.86-0.24-5.72-0.18-8.58c0.02-1,0.06-2.03-0.29-2.98
	c-0.38-1.03-1.26-1.85-2.29-2.23c-1.22-0.45-2.48,0-3.69,0.31c-1.53,0.4-3.04,0.94-4.64,0.99c-1.78,0.05-3.52-0.54-5.12-1.31
	c-3.85-1.85-7.64-4.89-9.51-8.83c-0.75-1.57-3.6-6.75,0.17-8.72c3.52-1.84,8.57-0.57,12.53,0.7c2.73,0.87,5.29,2.19,7.71,3.71
	c1.06,0.67,2.29,1.4,3.48,1.01c0.48-0.16,0.87-0.48,1.26-0.8c2.07-1.7,4.14-3.39,6.22-5.09c0.18-2.5,2.61-4.53,5.07-5
	c1.05-0.2,2.15-0.24,3.1-0.73c0.59-0.31,1.09-0.78,1.65-1.14c1.04-0.66,2.42-0.82,3.54-0.77c0.06,0.39-0.12,0.81-0.44,1.04
	c0.77,0.21,1.6-0.08,2.39,0.02c0.79,0.11,1.57,1.06,1.03,1.65c1.03-0.18,2.07,0.33,2.87,1s1.45,1.52,2.24,2.2
	c1.21,1.05,2.72,1.7,3.99,2.66c0.95,0.73,1.76,1.62,2.56,2.51c1.03,1.15,2.06,2.29,3.09,3.43c3.38,0.06,6.72-2.84,9.76-4.32
	c2.85-1.38,6.14-1.72,9.27-1.28c1.42,0.2,2.84,0.58,4.05,1.34c1.21,0.77,2.18,1.98,2.42,3.4c0.29,1.74-0.56,3.47-1.6,4.89
	L119.92,18.58z"/>
<g>
	<g>
		<path class="st10" d="M88.75,56.49c0,0.76-0.15,1.49-0.44,2.17c-0.27,0.63-0.67,1.22-1.17,1.72l-9.99,9.99l-9.47-9.47l-0.43-0.43
			c-0.65-0.65-1.13-1.44-1.39-2.31c-0.62-1.99-0.09-4.15,1.39-5.62c1.02-1.02,2.38-1.58,3.81-1.58s2.79,0.56,3.81,1.58l2.3,2.3
			l1.19-1.2l0.32-0.32l0.7-0.7c1.04-1.04,2.42-1.61,3.89-1.61s2.85,0.57,3.89,1.6c0.92,0.92,1.46,2.09,1.59,3.37
			c0.02,0.19,0.02,0.36,0.02,0.52L88.75,56.49z"/>
		<path class="st11" d="M86.9,50.31c0.2,0.12,0.4,0.25,0.6,0.39C87.31,50.56,87.11,50.43,86.9,50.31z M79.61,50.31
			c-0.2,0.12-0.4,0.25-0.6,0.39C79.2,50.56,79.4,50.43,79.61,50.31z"/>
	</g>
	<g>
		<path class="st12" d="M88.75,56.49c0,0.76-0.15,1.49-0.44,2.17c-0.27,0.63-0.67,1.22-1.17,1.72l-9.99,9.99l-9.47-9.47l-0.43-0.43
			c-0.65-0.65-1.13-1.44-1.39-2.31c-0.62-1.99-0.09-4.15,1.39-5.62c1.02-1.02,2.38-1.58,3.81-1.58s2.79,0.56,3.81,1.58l2.3,2.3
			l1.19-1.2l0.32-0.32l0.7-0.7c1.04-1.04,2.42-1.61,3.89-1.61s2.85,0.57,3.89,1.6c0.92,0.92,1.46,2.09,1.59,3.37
			c0.02,0.19,0.02,0.36,0.02,0.52L88.75,56.49z"/>
		<path class="st12" d="M86.9,50.31c0.2,0.12,0.4,0.25,0.6,0.39C87.31,50.56,87.11,50.43,86.9,50.31z M79.61,50.31
			c-0.2,0.12-0.4,0.25-0.6,0.39C79.2,50.56,79.4,50.43,79.61,50.31z"/>
	</g>
</g>
</svg>
