<?xml version="1.0" encoding="utf-8"?>
<!-- Generator: Adobe Illustrator 28.3.0, SVG Export Plug-In . SVG Version: 6.00 Build 0)  -->
<svg version="1.1" id="Layer_1" xmlns="http://www.w3.org/2000/svg" xmlns:xlink="http://www.w3.org/1999/xlink" x="0px" y="0px"
	 viewBox="0 0 156.64 123.22" style="enable-background:new 0 0 156.64 123.22;" xml:space="preserve">
<style type="text/css">
	.st0{fill:#231F20;}
	.st1{fill:#FFFFFF;}
	.st2{fill:#B75A3E;}
</style>
<path class="st0" d="M120,19.06c-1.39,1.91-3.16,3.52-4.99,5.01c-1.58,1.29-3.25,2.52-5.15,3.25c-1.9,0.73-4.08,0.92-5.97,0.14
	c-1.21-0.51-2.25-1.39-3.52-1.76c-1.26-0.37-2.93,0.06-3.27,1.33c-0.67,2.55-1.42,5.18-1.75,7.8c-0.83,6.54-2.19,15.41-4.85,22.2
	c0-0.02,0-0.04,0-0.06c0-0.22-0.01-0.45-0.03-0.67c-0.15-1.61-0.84-3.17-2.07-4.41c-0.26-0.26-0.54-0.5-0.83-0.71
	c-0.19-0.14-0.39-0.27-0.6-0.39c-0.51-0.3-1.05-0.53-1.6-0.7c-0.67-0.2-1.35-0.3-2.04-0.3s-1.38,0.1-2.04,0.3
	c-0.55,0.16-1.1,0.4-1.6,0.7c-0.2,0.12-0.4,0.25-0.6,0.39c-0.29,0.21-0.57,0.45-0.83,0.71l-0.7,0.71l-0.32,0.33l-1.1-1.1
	c-1.38-1.38-3.19-2.07-5-2.07c-1.81,0-3.61,0.69-5,2.07c-1.86,1.86-2.51,4.48-1.93,6.86c-1.04-1.98-1.74-4.17-2.19-5.49
	c-0.62-1.83-1.25-3.65-1.72-5.52c-0.65-2.54-0.79-5.14-0.92-7.74c-0.15-2.86-0.24-5.72-0.18-8.58c0.02-1,0.06-2.03-0.29-2.98
	c-0.38-1.03-1.26-1.85-2.29-2.23c-1.22-0.45-2.48,0-3.69,0.31c-1.53,0.4-3.04,0.94-4.64,0.99c-1.78,0.05-3.52-0.54-5.12-1.31
	c-3.85-1.85-7.64-4.89-9.51-8.83c-0.75-1.57-3.6-6.75,0.17-8.72c3.52-1.84,8.57-0.57,12.53,0.7c2.73,0.87,5.29,2.19,7.71,3.71
	c1.06,0.67,2.29,1.4,3.48,1.01c0.48-0.16,0.87-0.48,1.26-0.8c2.07-1.7,4.14-3.39,6.22-5.09c0.18-2.5,2.61-4.53,5.07-5
	c1.05-0.2,2.15-0.24,3.1-0.73c0.59-0.31,1.09-0.78,1.65-1.14c1.04-0.66,2.42-0.82,3.54-0.77c0.06,0.39-0.12,0.81-0.44,1.04
	c0.77,0.21,1.6-0.08,2.39,0.02c0.79,0.11,1.57,1.06,1.03,1.65c1.03-0.18,2.07,0.33,2.87,1c0.8,0.67,1.45,1.52,2.24,2.2
	c1.21,1.05,2.72,1.7,3.99,2.66c0.95,0.73,1.76,1.62,2.56,2.51c1.03,1.15,2.06,2.29,3.09,3.43c3.38,0.06,6.72-2.84,9.76-4.32
	c2.85-1.38,6.14-1.72,9.27-1.28c1.42,0.2,2.84,0.58,4.05,1.34c1.21,0.77,2.18,1.98,2.42,3.4C121.89,15.9,121.04,17.63,120,19.06z"/>
<g>
	<g>
		<g>
			<path class="st0" d="M88.83,56.97c0,0.76-0.15,1.49-0.44,2.17c-0.27,0.63-0.67,1.22-1.17,1.72l-9.99,9.99l-9.47-9.47l-0.43-0.43
				c-0.65-0.65-1.13-1.44-1.39-2.31c-0.62-1.99-0.09-4.15,1.39-5.62c1.02-1.02,2.38-1.58,3.81-1.58c1.44,0,2.79,0.56,3.81,1.58
				l2.3,2.3l1.19-1.2l0.32-0.32l0.7-0.7c1.04-1.04,2.42-1.61,3.89-1.61c1.47,0,2.85,0.57,3.89,1.6c0.92,0.92,1.46,2.09,1.59,3.37
				C88.83,56.64,88.83,56.81,88.83,56.97z"/>
			<path class="st1" d="M86.99,50.79c0.2,0.12,0.4,0.25,0.6,0.39C87.39,51.04,87.19,50.91,86.99,50.79z M79.69,50.79
				c-0.2,0.12-0.4,0.25-0.6,0.39C79.29,51.04,79.49,50.91,79.69,50.79z"/>
		</g>
	</g>
	<g>
		<g>
			<path class="st0" d="M88.83,56.97c0,0.76-0.15,1.49-0.44,2.17c-0.27,0.63-0.67,1.22-1.17,1.72l-9.99,9.99l-9.47-9.47l-0.43-0.43
				c-0.65-0.65-1.13-1.44-1.39-2.31c-0.62-1.99-0.09-4.15,1.39-5.62c1.02-1.02,2.38-1.58,3.81-1.58c1.44,0,2.79,0.56,3.81,1.58
				l2.3,2.3l1.19-1.2l0.32-0.32l0.7-0.7c1.04-1.04,2.42-1.61,3.89-1.61c1.47,0,2.85,0.57,3.89,1.6c0.92,0.92,1.46,2.09,1.59,3.37
				C88.83,56.64,88.83,56.81,88.83,56.97z"/>
			<path class="st0" d="M86.99,50.79c0.2,0.12,0.4,0.25,0.6,0.39C87.39,51.04,87.19,50.91,86.99,50.79z M79.69,50.79
				c-0.2,0.12-0.4,0.25-0.6,0.39C79.29,51.04,79.49,50.91,79.69,50.79z"/>
		</g>
	</g>
</g>
<g>
	<g>
		<path class="st2" d="M20.48,85.22c-0.66,0-1.22,0.13-1.68,0.38c-0.46,0.25-0.89,0.55-1.29,0.9l-5.16,4.56l6.88,10.37
			c0.3,0.45,0.65,0.79,1.07,1c0.42,0.22,0.94,0.33,1.56,0.33h0.86v0.91h-9.59v-0.91h2.58c0.28,0,0.46-0.05,0.55-0.14
			s0.13-0.22,0.13-0.38c0-0.24-0.1-0.51-0.29-0.81l-5.68-8.65l-4.38,3.88v4.9c0,0.8,0.77,1.2,2.32,1.2v0.91H1.04v-0.91
			c1.55,0,2.32-0.4,2.32-1.2V86.42c0-0.8-0.77-1.2-2.32-1.2v-0.91h7.32v0.91c-1.55,0-2.32,0.4-2.32,1.2v8.36l8.96-7.92
			c0.31-0.26,0.47-0.54,0.47-0.83c0-0.23-0.1-0.42-0.3-0.57c-0.2-0.16-0.5-0.23-0.9-0.23h-1.59v-0.91h7.79V85.22z"/>
		<path class="st2" d="M45.38,101.37c0,0.73-0.18,1.33-0.55,1.79s-1.05,0.69-2.06,0.69c-0.54,0-0.99-0.07-1.35-0.2
			c-0.36-0.13-0.66-0.31-0.89-0.55c-0.23-0.23-0.39-0.51-0.5-0.82s-0.16-0.66-0.16-1.04V99c0-1.58-0.25-2.78-0.74-3.61
			c-0.49-0.82-1.37-1.24-2.62-1.24H31.6v7.4c0,0.8,0.96,1.2,2.89,1.2v0.91H26.6v-0.89c1.55,0,2.32-0.4,2.32-1.2V86.42
			c0-0.8-0.77-1.2-2.32-1.2v-0.91h9.93c0.85,0,1.68,0.06,2.5,0.17s1.54,0.34,2.18,0.69c0.63,0.35,1.14,0.84,1.52,1.47
			s0.57,1.47,0.57,2.51c0,0.68-0.1,1.27-0.31,1.79c-0.21,0.51-0.48,0.95-0.82,1.32c-0.34,0.36-0.73,0.66-1.16,0.89
			s-0.89,0.39-1.35,0.5c0.43,0.17,0.83,0.39,1.2,0.65c0.36,0.26,0.67,0.6,0.92,1.02c0.25,0.42,0.45,0.92,0.59,1.52
			c0.14,0.59,0.21,1.3,0.21,2.12v2.69c0,0.38,0.08,0.67,0.23,0.85c0.16,0.18,0.36,0.27,0.6,0.27c0.26,0,0.47-0.09,0.62-0.27
			s0.23-0.46,0.23-0.85v-1.25h1.12V101.37z M31.6,85.87v6.98h5.24c1.08,0,1.96-0.26,2.64-0.79c0.69-0.53,1.03-1.4,1.03-2.62
			s-0.33-2.11-0.98-2.7s-1.55-0.87-2.7-0.87H31.6z"/>
		<path class="st2" d="M57.73,85.22c-1.55,0-2.32,0.4-2.32,1.2v15.14c0,0.8,0.77,1.2,2.32,1.2v0.91h-7.35v-0.91
			c1.56,0,2.34-0.4,2.34-1.2V86.42c0-0.8-0.78-1.2-2.34-1.2v-0.91h7.35V85.22z"/>
		<path class="st2" d="M79.02,91.34l-1.12,0.23c-0.09-1.02-0.32-1.92-0.7-2.7c-0.38-0.77-0.88-1.42-1.49-1.93
			c-0.61-0.51-1.3-0.89-2.08-1.15c-0.78-0.25-1.61-0.38-2.47-0.38c-0.92,0-1.7,0.08-2.34,0.25s-1.16,0.4-1.55,0.69
			c-0.39,0.29-0.67,0.65-0.85,1.07c-0.17,0.42-0.26,0.88-0.26,1.38c0,0.68,0.2,1.22,0.59,1.62c0.39,0.4,0.91,0.72,1.55,0.96
			c0.64,0.24,1.38,0.43,2.2,0.57c0.83,0.14,1.66,0.29,2.51,0.44c0.85,0.16,1.69,0.35,2.51,0.57c0.82,0.23,1.56,0.55,2.2,0.96
			s1.16,0.96,1.55,1.63c0.39,0.67,0.59,1.52,0.59,2.54c0,1.04-0.17,1.94-0.52,2.7c-0.35,0.76-0.85,1.38-1.5,1.86
			c-0.65,0.49-1.45,0.84-2.38,1.07c-0.94,0.23-1.99,0.34-3.15,0.34c-1.04,0-1.98-0.13-2.83-0.4c-0.84-0.27-1.65-0.68-2.44-1.24
			c-0.3-0.19-0.54-0.29-0.73-0.29c-0.23,0-0.41,0.07-0.55,0.21c-0.14,0.14-0.26,0.33-0.37,0.57l-0.31,0.73h-1.12v-7.4l1.12-0.16
			c0.09,0.9,0.32,1.75,0.7,2.53c0.38,0.78,0.89,1.46,1.52,2.03s1.38,1.03,2.25,1.35c0.87,0.33,1.84,0.5,2.92,0.5
			c3.58,0,5.37-1.29,5.37-3.87c0-0.71-0.2-1.28-0.59-1.68s-0.91-0.73-1.55-0.97s-1.37-0.42-2.19-0.55s-1.65-0.27-2.51-0.42
			s-1.7-0.33-2.51-0.55c-0.82-0.22-1.55-0.54-2.19-0.98s-1.16-1-1.55-1.71c-0.39-0.71-0.59-1.61-0.59-2.7c0-0.63,0.1-1.25,0.31-1.88
			c0.21-0.63,0.57-1.19,1.09-1.69c0.52-0.5,1.22-0.9,2.08-1.2s1.97-0.46,3.31-0.46c1.06,0,1.98,0.11,2.76,0.34
			c0.78,0.23,1.54,0.56,2.27,0.98c0.33,0.21,0.65,0.32,0.96,0.32c0.35,0,0.62-0.17,0.83-0.5l0.44-0.7h0.78V91.34z"/>
		<path class="st2" d="M105.74,85.22c-1.56,0-2.34,0.4-2.34,1.2v15.14c0,0.8,0.78,1.2,2.34,1.2v0.91h-7.92v-0.91
			c1.93,0,2.89-0.4,2.89-1.2v-7.4H89.88v7.4c0,0.8,0.96,1.2,2.89,1.2v0.91h-7.89v-0.91c1.55,0,2.32-0.4,2.32-1.2V86.42
			c0-0.8-0.77-1.2-2.32-1.2v-0.91h7.89v0.91c-1.93,0-2.89,0.4-2.89,1.2v6.43h10.84v-6.43c0-0.8-0.96-1.2-2.89-1.2v-0.91h7.92V85.22z
			"/>
		<path class="st2" d="M131.64,85.22c-1.55,0-2.32,0.4-2.32,1.2v17.25h-3.36L114.5,86.99v14.56c0,0.8,0.77,1.2,2.32,1.2v0.91h-6.2
			v-0.91c1.55,0,2.32-0.4,2.32-1.2V86.42c0-0.8-0.77-1.2-2.32-1.2v-0.91h5.5l11.64,17.04V86.42c0-0.8-0.77-1.2-2.32-1.2v-0.91h6.2
			V85.22z"/>
		<path class="st2" d="M153.6,101.97c0.21,0.52,0.93,0.78,2.16,0.78v0.91h-8.6v-0.91h2.58c0.49,0,0.73-0.17,0.73-0.52
			c-0.02,0-0.03-0.02-0.03-0.05c0-0.03,0-0.06-0.01-0.09c-0.01-0.03-0.01-0.07-0.01-0.12l-1.38-3.52h-8.94l-1.28,3.31
			c-0.02,0.09-0.03,0.16-0.04,0.21s-0.01,0.09-0.01,0.1c0,0.45,0.38,0.68,1.15,0.68h1.75v0.91h-6.85v-0.94
			c1.32,0,2.08-0.24,2.29-0.73l7.19-17.69h2.29L153.6,101.97z M140.7,96.89h7.71l-3.88-9.87L140.7,96.89z"/>
	</g>
	<g>
		<path class="st0" d="M20.48,85.22c-0.66,0-1.22,0.13-1.68,0.38c-0.46,0.25-0.89,0.55-1.29,0.9l-5.16,4.56l6.88,10.37
			c0.3,0.45,0.65,0.79,1.07,1c0.42,0.22,0.94,0.33,1.56,0.33h0.86v0.91h-9.59v-0.91h2.58c0.28,0,0.46-0.05,0.55-0.14
			s0.13-0.22,0.13-0.38c0-0.24-0.1-0.51-0.29-0.81l-5.68-8.65l-4.38,3.88v4.9c0,0.8,0.77,1.2,2.32,1.2v0.91H1.04v-0.91
			c1.55,0,2.32-0.4,2.32-1.2V86.42c0-0.8-0.77-1.2-2.32-1.2v-0.91h7.32v0.91c-1.55,0-2.32,0.4-2.32,1.2v8.36l8.96-7.92
			c0.31-0.26,0.47-0.54,0.47-0.83c0-0.23-0.1-0.42-0.3-0.57c-0.2-0.16-0.5-0.23-0.9-0.23h-1.59v-0.91h7.79V85.22z"/>
		<path class="st0" d="M45.38,101.37c0,0.73-0.18,1.33-0.55,1.79s-1.05,0.69-2.06,0.69c-0.54,0-0.99-0.07-1.35-0.2
			c-0.36-0.13-0.66-0.31-0.89-0.55c-0.23-0.23-0.39-0.51-0.5-0.82s-0.16-0.66-0.16-1.04V99c0-1.58-0.25-2.78-0.74-3.61
			c-0.49-0.82-1.37-1.24-2.62-1.24H31.6v7.4c0,0.8,0.96,1.2,2.89,1.2v0.91H26.6v-0.89c1.55,0,2.32-0.4,2.32-1.2V86.42
			c0-0.8-0.77-1.2-2.32-1.2v-0.91h9.93c0.85,0,1.68,0.06,2.5,0.17s1.54,0.34,2.18,0.69c0.63,0.35,1.14,0.84,1.52,1.47
			s0.57,1.47,0.57,2.51c0,0.68-0.1,1.27-0.31,1.79c-0.21,0.51-0.48,0.95-0.82,1.32c-0.34,0.36-0.73,0.66-1.16,0.89
			s-0.89,0.39-1.35,0.5c0.43,0.17,0.83,0.39,1.2,0.65c0.36,0.26,0.67,0.6,0.92,1.02c0.25,0.42,0.45,0.92,0.59,1.52
			c0.14,0.59,0.21,1.3,0.21,2.12v2.69c0,0.38,0.08,0.67,0.23,0.85c0.16,0.18,0.36,0.27,0.6,0.27c0.26,0,0.47-0.09,0.62-0.27
			s0.23-0.46,0.23-0.85v-1.25h1.12V101.37z M31.6,85.87v6.98h5.24c1.08,0,1.96-0.26,2.64-0.79c0.69-0.53,1.03-1.4,1.03-2.62
			s-0.33-2.11-0.98-2.7s-1.55-0.87-2.7-0.87H31.6z"/>
		<path class="st0" d="M57.73,85.22c-1.55,0-2.32,0.4-2.32,1.2v15.14c0,0.8,0.77,1.2,2.32,1.2v0.91h-7.35v-0.91
			c1.56,0,2.34-0.4,2.34-1.2V86.42c0-0.8-0.78-1.2-2.34-1.2v-0.91h7.35V85.22z"/>
		<path class="st0" d="M79.02,91.34l-1.12,0.23c-0.09-1.02-0.32-1.92-0.7-2.7c-0.38-0.77-0.88-1.42-1.49-1.93
			c-0.61-0.51-1.3-0.89-2.08-1.15c-0.78-0.25-1.61-0.38-2.47-0.38c-0.92,0-1.7,0.08-2.34,0.25s-1.16,0.4-1.55,0.69
			c-0.39,0.29-0.67,0.65-0.85,1.07c-0.17,0.42-0.26,0.88-0.26,1.38c0,0.68,0.2,1.22,0.59,1.62c0.39,0.4,0.91,0.72,1.55,0.96
			c0.64,0.24,1.38,0.43,2.2,0.57c0.83,0.14,1.66,0.29,2.51,0.44c0.85,0.16,1.69,0.35,2.51,0.57c0.82,0.23,1.56,0.55,2.2,0.96
			s1.16,0.96,1.55,1.63c0.39,0.67,0.59,1.52,0.59,2.54c0,1.04-0.17,1.94-0.52,2.7c-0.35,0.76-0.85,1.38-1.5,1.86
			c-0.65,0.49-1.45,0.84-2.38,1.07c-0.94,0.23-1.99,0.34-3.15,0.34c-1.04,0-1.98-0.13-2.83-0.4c-0.84-0.27-1.65-0.68-2.44-1.24
			c-0.3-0.19-0.54-0.29-0.73-0.29c-0.23,0-0.41,0.07-0.55,0.21c-0.14,0.14-0.26,0.33-0.37,0.57l-0.31,0.73h-1.12v-7.4l1.12-0.16
			c0.09,0.9,0.32,1.75,0.7,2.53c0.38,0.78,0.89,1.46,1.52,2.03s1.38,1.03,2.25,1.35c0.87,0.33,1.84,0.5,2.92,0.5
			c3.58,0,5.37-1.29,5.37-3.87c0-0.71-0.2-1.28-0.59-1.68s-0.91-0.73-1.55-0.97s-1.37-0.42-2.19-0.55s-1.65-0.27-2.51-0.42
			s-1.7-0.33-2.51-0.55c-0.82-0.22-1.55-0.54-2.19-0.98s-1.16-1-1.55-1.71c-0.39-0.71-0.59-1.61-0.59-2.7c0-0.63,0.1-1.25,0.31-1.88
			c0.21-0.63,0.57-1.19,1.09-1.69c0.52-0.5,1.22-0.9,2.08-1.2s1.97-0.46,3.31-0.46c1.06,0,1.98,0.11,2.76,0.34
			c0.78,0.23,1.54,0.56,2.27,0.98c0.33,0.21,0.65,0.32,0.96,0.32c0.35,0,0.62-0.17,0.83-0.5l0.44-0.7h0.78V91.34z"/>
		<path class="st0" d="M105.74,85.22c-1.56,0-2.34,0.4-2.34,1.2v15.14c0,0.8,0.78,1.2,2.34,1.2v0.91h-7.92v-0.91
			c1.93,0,2.89-0.4,2.89-1.2v-7.4H89.88v7.4c0,0.8,0.96,1.2,2.89,1.2v0.91h-7.89v-0.91c1.55,0,2.32-0.4,2.32-1.2V86.42
			c0-0.8-0.77-1.2-2.32-1.2v-0.91h7.89v0.91c-1.93,0-2.89,0.4-2.89,1.2v6.43h10.84v-6.43c0-0.8-0.96-1.2-2.89-1.2v-0.91h7.92V85.22z
			"/>
		<path class="st0" d="M131.64,85.22c-1.55,0-2.32,0.4-2.32,1.2v17.25h-3.36L114.5,86.99v14.56c0,0.8,0.77,1.2,2.32,1.2v0.91h-6.2
			v-0.91c1.55,0,2.32-0.4,2.32-1.2V86.42c0-0.8-0.77-1.2-2.32-1.2v-0.91h5.5l11.64,17.04V86.42c0-0.8-0.77-1.2-2.32-1.2v-0.91h6.2
			V85.22z"/>
		<path class="st0" d="M153.6,101.97c0.21,0.52,0.93,0.78,2.16,0.78v0.91h-8.6v-0.91h2.58c0.49,0,0.73-0.17,0.73-0.52
			c-0.02,0-0.03-0.02-0.03-0.05c0-0.03,0-0.06-0.01-0.09c-0.01-0.03-0.01-0.07-0.01-0.12l-1.38-3.52h-8.94l-1.28,3.31
			c-0.02,0.09-0.03,0.16-0.04,0.21s-0.01,0.09-0.01,0.1c0,0.45,0.38,0.68,1.15,0.68h1.75v0.91h-6.85v-0.94
			c1.32,0,2.08-0.24,2.29-0.73l7.19-17.69h2.29L153.6,101.97z M140.7,96.89h7.71l-3.88-9.87L140.7,96.89z"/>
	</g>
</g>
<g>
	<g>
		<path class="st2" d="M8.47,117.76c0-1.06,0.19-1.96,0.55-2.69c0.37-0.74,0.87-1.3,1.51-1.69c0.63-0.39,1.35-0.58,2.15-0.58
			c0.77,0,1.41,0.13,1.91,0.39s0.89,0.62,1.18,1.09c0.29,0.47,0.5,1,0.63,1.61l-1.19,0.2c-0.11-0.47-0.26-0.87-0.45-1.2
			s-0.46-0.59-0.79-0.77c-0.33-0.18-0.76-0.27-1.29-0.27c-0.63,0-1.16,0.16-1.6,0.49c-0.44,0.33-0.77,0.78-1,1.37
			c-0.23,0.58-0.34,1.27-0.34,2.04c0,0.78,0.11,1.46,0.34,2.04s0.57,1.04,1.01,1.37c0.44,0.33,0.98,0.49,1.6,0.49
			c0.58,0,1.05-0.1,1.39-0.29s0.61-0.46,0.8-0.81c0.19-0.34,0.31-0.74,0.38-1.19h1.25c-0.07,0.63-0.26,1.21-0.56,1.71
			c-0.3,0.51-0.73,0.91-1.27,1.2c-0.54,0.29-1.21,0.44-2.01,0.44c-0.86,0-1.61-0.2-2.24-0.59c-0.63-0.39-1.12-0.96-1.46-1.69
			C8.64,119.69,8.47,118.8,8.47,117.76z"/>
		<path class="st2" d="M20.21,117.76c0-1.06,0.19-1.96,0.55-2.69c0.37-0.74,0.88-1.3,1.54-1.69c0.66-0.39,1.41-0.58,2.25-0.58
			c0.86,0,1.62,0.19,2.27,0.58c0.65,0.38,1.15,0.94,1.52,1.67c0.37,0.73,0.55,1.62,0.55,2.68s-0.18,1.96-0.54,2.7
			s-0.86,1.31-1.51,1.7c-0.65,0.39-1.41,0.58-2.29,0.58c-0.85,0-1.61-0.19-2.27-0.57c-0.66-0.38-1.17-0.94-1.53-1.68
			C20.4,119.72,20.21,118.82,20.21,117.76z M21.48,117.75c0,1.18,0.26,2.12,0.77,2.83c0.51,0.71,1.28,1.06,2.31,1.06
			c1,0,1.77-0.35,2.29-1.06c0.52-0.71,0.78-1.65,0.78-2.83c0-0.78-0.12-1.47-0.35-2.05c-0.23-0.58-0.58-1.04-1.03-1.36
			c-0.45-0.33-1.02-0.49-1.68-0.49c-0.68,0-1.25,0.16-1.7,0.49c-0.46,0.33-0.8,0.78-1.03,1.36S21.48,116.97,21.48,117.75z"/>
		<path class="st2" d="M42.68,113.04h1.29l-2.62,9.43h-1.28l-2.1-7.89l-2.06,7.89h-1.24L32,113.04h1.37l1.97,7.75l2.05-7.71h1.31
			l2.03,7.7L42.68,113.04z"/>
		<path class="st2" d="M58.89,119.96c0-0.25-0.04-0.48-0.13-0.69s-0.26-0.41-0.5-0.57c-0.25-0.16-0.61-0.28-1.08-0.36l-1.19-0.21
			c-0.62-0.11-1.14-0.27-1.58-0.47c-0.44-0.2-0.77-0.48-1-0.84s-0.34-0.83-0.34-1.41s0.15-1.07,0.46-1.45s0.72-0.68,1.25-0.87
			s1.11-0.28,1.76-0.28c0.62,0,1.15,0.07,1.56,0.21s0.76,0.32,1.02,0.55s0.46,0.5,0.61,0.79c0.14,0.29,0.25,0.59,0.31,0.9
			l-1.14,0.22c-0.1-0.36-0.23-0.66-0.4-0.9s-0.41-0.42-0.71-0.55c-0.3-0.12-0.71-0.19-1.22-0.19c-0.57,0-1.02,0.07-1.35,0.21
			s-0.57,0.32-0.71,0.55c-0.14,0.23-0.21,0.49-0.21,0.78c0,0.46,0.12,0.81,0.38,1.04c0.25,0.24,0.7,0.42,1.35,0.54l1.32,0.24
			c0.98,0.18,1.7,0.48,2.15,0.91c0.46,0.43,0.69,1.06,0.69,1.89c0,0.5-0.13,0.96-0.38,1.37s-0.64,0.74-1.15,0.98
			c-0.51,0.25-1.15,0.37-1.93,0.37c-1.11,0-2.01-0.23-2.7-0.69c-0.69-0.46-1.08-1.2-1.18-2.23h1.21c0.11,0.65,0.37,1.13,0.79,1.43
			c0.42,0.3,1.04,0.45,1.87,0.45c0.55,0,0.99-0.08,1.31-0.23c0.32-0.15,0.54-0.36,0.67-0.62C58.82,120.55,58.89,120.27,58.89,119.96
			z"/>
		<path class="st2" d="M69.9,119.84h-4.04l-0.99,2.63H63.6l3.67-9.43h1.28l3.66,9.43h-1.32L69.9,119.84z M67.87,114.42l-1.64,4.36
			h3.3L67.87,114.42z"/>
		<path class="st2" d="M76.03,113.04h1.2l4.79,7.49v-7.49h1.18v9.43h-1.16l-4.83-7.45v7.45h-1.17V113.04z"/>
		<path class="st2" d="M87.59,117.76c0-1.06,0.19-1.96,0.55-2.69c0.37-0.74,0.87-1.3,1.51-1.69c0.63-0.39,1.35-0.58,2.15-0.58
			c0.77,0,1.41,0.13,1.91,0.39c0.5,0.26,0.89,0.62,1.17,1.09s0.5,1,0.63,1.61l-1.19,0.2c-0.11-0.47-0.26-0.87-0.45-1.2
			c-0.19-0.33-0.46-0.59-0.79-0.77c-0.33-0.18-0.76-0.27-1.29-0.27c-0.62,0-1.16,0.16-1.6,0.49c-0.44,0.33-0.77,0.78-1,1.37
			c-0.23,0.58-0.34,1.27-0.34,2.04c0,0.78,0.11,1.46,0.34,2.04c0.23,0.59,0.57,1.04,1.01,1.37s0.98,0.49,1.61,0.49
			c0.58,0,1.04-0.1,1.39-0.29c0.35-0.19,0.61-0.46,0.8-0.81c0.18-0.34,0.31-0.74,0.38-1.19h1.25c-0.07,0.63-0.26,1.21-0.56,1.71
			c-0.3,0.51-0.73,0.91-1.27,1.2c-0.54,0.29-1.21,0.44-2.01,0.44c-0.86,0-1.61-0.2-2.24-0.59c-0.63-0.39-1.12-0.96-1.46-1.69
			S87.59,118.8,87.59,117.76z"/>
		<path class="st2" d="M101.84,114.12h-3.12v-1.08h7.46v1.08h-3.13v8.35h-1.21V114.12z"/>
		<path class="st2" d="M109.73,118.68v-5.64h1.22v5.69c0,0.97,0.18,1.7,0.55,2.19c0.37,0.49,0.97,0.73,1.81,0.73
			c0.86,0,1.47-0.24,1.82-0.73c0.35-0.49,0.52-1.22,0.52-2.19v-5.69h1.21v5.69c0,1.4-0.31,2.41-0.94,3.04s-1.5,0.94-2.62,0.94
			c-1.14,0-2.01-0.32-2.63-0.95C110.04,121.12,109.73,120.09,109.73,118.68z"/>
		<path class="st2" d="M125.95,119.84h-4.04l-0.99,2.63h-1.27l3.67-9.43h1.28l3.66,9.43h-1.32L125.95,119.84z M123.91,114.42
			l-1.64,4.36h3.3L123.91,114.42z"/>
		<path class="st2" d="M131.55,113.04h3.09c0.7,0,1.28,0.08,1.74,0.23c0.45,0.15,0.81,0.36,1.06,0.62s0.43,0.55,0.53,0.86
			c0.1,0.31,0.15,0.63,0.15,0.96c0,0.6-0.13,1.11-0.38,1.53c-0.26,0.42-0.67,0.75-1.23,0.99l1.98,4.24h-1.36l-1.78-3.95
			c-0.25,0.03-0.49,0.04-0.73,0.04h-1.86v3.91h-1.2V113.04z M136.87,115.73c0-0.35-0.07-0.65-0.2-0.9
			c-0.13-0.25-0.36-0.44-0.69-0.57c-0.33-0.13-0.79-0.2-1.39-0.2h-1.85v3.45h2.01c0.56,0,1-0.07,1.3-0.22
			c0.3-0.15,0.51-0.35,0.63-0.62S136.87,116.09,136.87,115.73z"/>
		<path class="st2" d="M144.41,118.46l-3.29-5.43h1.4l2.5,4.37l2.56-4.37h1.28l-3.22,5.42v4.02h-1.23V118.46z"/>
	</g>
	<g>
		<path class="st0" d="M8.47,117.76c0-1.06,0.19-1.96,0.55-2.69c0.37-0.74,0.87-1.3,1.51-1.69c0.63-0.39,1.35-0.58,2.15-0.58
			c0.77,0,1.41,0.13,1.91,0.39s0.89,0.62,1.18,1.09c0.29,0.47,0.5,1,0.63,1.61l-1.19,0.2c-0.11-0.47-0.26-0.87-0.45-1.2
			s-0.46-0.59-0.79-0.77c-0.33-0.18-0.76-0.27-1.29-0.27c-0.63,0-1.16,0.16-1.6,0.49c-0.44,0.33-0.77,0.78-1,1.37
			c-0.23,0.58-0.34,1.27-0.34,2.04c0,0.78,0.11,1.46,0.34,2.04s0.57,1.04,1.01,1.37c0.44,0.33,0.98,0.49,1.6,0.49
			c0.58,0,1.05-0.1,1.39-0.29s0.61-0.46,0.8-0.81c0.19-0.34,0.31-0.74,0.38-1.19h1.25c-0.07,0.63-0.26,1.21-0.56,1.71
			c-0.3,0.51-0.73,0.91-1.27,1.2c-0.54,0.29-1.21,0.44-2.01,0.44c-0.86,0-1.61-0.2-2.24-0.59c-0.63-0.39-1.12-0.96-1.46-1.69
			C8.64,119.69,8.47,118.8,8.47,117.76z"/>
		<path class="st0" d="M20.21,117.76c0-1.06,0.19-1.96,0.55-2.69c0.37-0.74,0.88-1.3,1.54-1.69c0.66-0.39,1.41-0.58,2.25-0.58
			c0.86,0,1.62,0.19,2.27,0.58c0.65,0.38,1.15,0.94,1.52,1.67c0.37,0.73,0.55,1.62,0.55,2.68s-0.18,1.96-0.54,2.7
			s-0.86,1.31-1.51,1.7c-0.65,0.39-1.41,0.58-2.29,0.58c-0.85,0-1.61-0.19-2.27-0.57c-0.66-0.38-1.17-0.94-1.53-1.68
			C20.4,119.72,20.21,118.82,20.21,117.76z M21.48,117.75c0,1.18,0.26,2.12,0.77,2.83c0.51,0.71,1.28,1.06,2.31,1.06
			c1,0,1.77-0.35,2.29-1.06c0.52-0.71,0.78-1.65,0.78-2.83c0-0.78-0.12-1.47-0.35-2.05c-0.23-0.58-0.58-1.04-1.03-1.36
			c-0.45-0.33-1.02-0.49-1.68-0.49c-0.68,0-1.25,0.16-1.7,0.49c-0.46,0.33-0.8,0.78-1.03,1.36S21.48,116.97,21.48,117.75z"/>
		<path class="st0" d="M42.68,113.04h1.29l-2.62,9.43h-1.28l-2.1-7.89l-2.06,7.89h-1.24L32,113.04h1.37l1.97,7.75l2.05-7.71h1.31
			l2.03,7.7L42.68,113.04z"/>
		<path class="st0" d="M58.89,119.96c0-0.25-0.04-0.48-0.13-0.69s-0.26-0.41-0.5-0.57c-0.25-0.16-0.61-0.28-1.08-0.36l-1.19-0.21
			c-0.62-0.11-1.14-0.27-1.58-0.47c-0.44-0.2-0.77-0.48-1-0.84s-0.34-0.83-0.34-1.41s0.15-1.07,0.46-1.45s0.72-0.68,1.25-0.87
			s1.11-0.28,1.76-0.28c0.62,0,1.15,0.07,1.56,0.21s0.76,0.32,1.02,0.55s0.46,0.5,0.61,0.79c0.14,0.29,0.25,0.59,0.31,0.9
			l-1.14,0.22c-0.1-0.36-0.23-0.66-0.4-0.9s-0.41-0.42-0.71-0.55c-0.3-0.12-0.71-0.19-1.22-0.19c-0.57,0-1.02,0.07-1.35,0.21
			s-0.57,0.32-0.71,0.55c-0.14,0.23-0.21,0.49-0.21,0.78c0,0.46,0.12,0.81,0.38,1.04c0.25,0.24,0.7,0.42,1.35,0.54l1.32,0.24
			c0.98,0.18,1.7,0.48,2.15,0.91c0.46,0.43,0.69,1.06,0.69,1.89c0,0.5-0.13,0.96-0.38,1.37s-0.64,0.74-1.15,0.98
			c-0.51,0.25-1.15,0.37-1.93,0.37c-1.11,0-2.01-0.23-2.7-0.69c-0.69-0.46-1.08-1.2-1.18-2.23h1.21c0.11,0.65,0.37,1.13,0.79,1.43
			c0.42,0.3,1.04,0.45,1.87,0.45c0.55,0,0.99-0.08,1.31-0.23c0.32-0.15,0.54-0.36,0.67-0.62C58.82,120.55,58.89,120.27,58.89,119.96
			z"/>
		<path class="st0" d="M69.9,119.84h-4.04l-0.99,2.63H63.6l3.67-9.43h1.28l3.66,9.43h-1.32L69.9,119.84z M67.87,114.42l-1.64,4.36
			h3.3L67.87,114.42z"/>
		<path class="st0" d="M76.03,113.04h1.2l4.79,7.49v-7.49h1.18v9.43h-1.16l-4.83-7.45v7.45h-1.17V113.04z"/>
		<path class="st0" d="M87.59,117.76c0-1.06,0.19-1.96,0.55-2.69c0.37-0.74,0.87-1.3,1.51-1.69c0.63-0.39,1.35-0.58,2.15-0.58
			c0.77,0,1.41,0.13,1.91,0.39c0.5,0.26,0.89,0.62,1.17,1.09s0.5,1,0.63,1.61l-1.19,0.2c-0.11-0.47-0.26-0.87-0.45-1.2
			c-0.19-0.33-0.46-0.59-0.79-0.77c-0.33-0.18-0.76-0.27-1.29-0.27c-0.62,0-1.16,0.16-1.6,0.49c-0.44,0.33-0.77,0.78-1,1.37
			c-0.23,0.58-0.34,1.27-0.34,2.04c0,0.78,0.11,1.46,0.34,2.04c0.23,0.59,0.57,1.04,1.01,1.37s0.98,0.49,1.61,0.49
			c0.58,0,1.04-0.1,1.39-0.29c0.35-0.19,0.61-0.46,0.8-0.81c0.18-0.34,0.31-0.74,0.38-1.19h1.25c-0.07,0.63-0.26,1.21-0.56,1.71
			c-0.3,0.51-0.73,0.91-1.27,1.2c-0.54,0.29-1.21,0.44-2.01,0.44c-0.86,0-1.61-0.2-2.24-0.59c-0.63-0.39-1.12-0.96-1.46-1.69
			S87.59,118.8,87.59,117.76z"/>
		<path class="st0" d="M101.84,114.12h-3.12v-1.08h7.46v1.08h-3.13v8.35h-1.21V114.12z"/>
		<path class="st0" d="M109.73,118.68v-5.64h1.22v5.69c0,0.97,0.18,1.7,0.55,2.19c0.37,0.49,0.97,0.73,1.81,0.73
			c0.86,0,1.47-0.24,1.82-0.73c0.35-0.49,0.52-1.22,0.52-2.19v-5.69h1.21v5.69c0,1.4-0.31,2.41-0.94,3.04s-1.5,0.94-2.62,0.94
			c-1.14,0-2.01-0.32-2.63-0.95C110.04,121.12,109.73,120.09,109.73,118.68z"/>
		<path class="st0" d="M125.95,119.84h-4.04l-0.99,2.63h-1.27l3.67-9.43h1.28l3.66,9.43h-1.32L125.95,119.84z M123.91,114.42
			l-1.64,4.36h3.3L123.91,114.42z"/>
		<path class="st0" d="M131.55,113.04h3.09c0.7,0,1.28,0.08,1.74,0.23c0.45,0.15,0.81,0.36,1.06,0.62s0.43,0.55,0.53,0.86
			c0.1,0.31,0.15,0.63,0.15,0.96c0,0.6-0.13,1.11-0.38,1.53c-0.26,0.42-0.67,0.75-1.23,0.99l1.98,4.24h-1.36l-1.78-3.95
			c-0.25,0.03-0.49,0.04-0.73,0.04h-1.86v3.91h-1.2V113.04z M136.87,115.73c0-0.35-0.07-0.65-0.2-0.9
			c-0.13-0.25-0.36-0.44-0.69-0.57c-0.33-0.13-0.79-0.2-1.39-0.2h-1.85v3.45h2.01c0.56,0,1-0.07,1.3-0.22
			c0.3-0.15,0.51-0.35,0.63-0.62S136.87,116.09,136.87,115.73z"/>
		<path class="st0" d="M144.41,118.46l-3.29-5.43h1.4l2.5,4.37l2.56-4.37h1.28l-3.22,5.42v4.02h-1.23V118.46z"/>
	</g>
</g>
</svg>
