<?xml version="1.0" encoding="utf-8"?>
<!-- Generator: Adobe Illustrator 28.3.0, SVG Export Plug-In . SVG Version: 6.00 Build 0)  -->
<svg version="1.1" id="Layer_1" xmlns="http://www.w3.org/2000/svg" xmlns:xlink="http://www.w3.org/1999/xlink" x="0px" y="0px"
	 viewBox="0 0 576 142.64" style="enable-background:new 0 0 576 142.64;" xml:space="preserve">
<style type="text/css">
	.st0{opacity:0.99;}
	.st1{fill:none;stroke:#FFFFFF;stroke-width:0.5513;stroke-miterlimit:10;}
	.st2{fill:#FFFFFF;}
	.st3{font-family:'Bookmania-Regular';}
	.st4{font-size:35.7938px;}
	.st5{font-family:'AktivGrotesk-Regular';}
	.st6{font-size:11.4336px;}
	.st7{font-family:'URWAntiqua-Reg';}
	.st8{font-size:36.4771px;}
	.st9{font-family:'Interstate-Light';}
	.st10{font-size:13.6376px;}
	.st11{fill:#FFFFFF;stroke:#FFFFFF;stroke-width:0.4424;stroke-miterlimit:10;}
	.st12{fill:none;stroke:#FFFFFF;stroke-width:0.4424;stroke-miterlimit:10;}
	.st13{fill:#B75A3E;}
	.st14{font-family:'Superclarendon-Light';}
	.st15{font-size:26.0511px;}
	.st16{letter-spacing:2;}
	.st17{letter-spacing:3;}
	.st18{letter-spacing:4;}
	.st19{letter-spacing:1;}
	.st20{letter-spacing:5;}
	.st21{font-size:13.2087px;}
</style>
<path d="M255.01,30.78c0,0.02,0,0.04,0,0.06c0.03,2.89,1.94,5.93,4.67,8.08c1.59,1.25,3.44,2.22,5.37,2.92
	c0.97,0.35,1.96,0.63,2.95,0.85c0.96,0.21,1.93,0.39,2.89,0.54c0.63,0.09,1.26,0.15,1.87,0.11c0.63-0.04,1.24-0.18,1.75-0.45
	c0.33-0.18,1.26-0.7,0.6-1.07c-1.3-0.73-2.29-1.84-3.04-3c-0.76-1.16-1.32-2.37-2.04-3.54c-0.71-1.16-1.6-2.32-2.84-3.15
	c-1.43-0.95-3.11-1.47-4.75-1.84c-2.22-0.5-4.5-0.76-6.59-0.43c-0.22,0.04-0.45,0.08-0.61,0.21
	C255.05,30.23,255.01,30.51,255.01,30.78z"/>
<path d="M333.75,30.78c0,0.02,0,0.04,0,0.06c-0.03,2.89-1.94,5.93-4.67,8.08c-1.59,1.25-3.44,2.22-5.37,2.92
	c-0.97,0.35-1.96,0.63-2.95,0.85c-0.96,0.21-1.93,0.39-2.89,0.54c-0.63,0.09-1.26,0.15-1.87,0.11c-0.63-0.04-1.24-0.18-1.75-0.45
	c-0.33-0.18-1.26-0.7-0.6-1.07c1.3-0.73,2.29-1.84,3.04-3c0.76-1.16,1.32-2.37,2.04-3.54c0.71-1.16,1.6-2.32,2.84-3.15
	c1.43-0.95,3.11-1.47,4.75-1.84c2.22-0.5,4.5-0.76,6.59-0.43c0.22,0.04,0.45,0.08,0.61,0.21C333.71,30.23,333.75,30.51,333.75,30.78
	z"/>
<g class="st0">
	<path d="M294.73,74.96c3.96,0,7.83-1.41,11.15-3.55c8.54-5.5,17.1-12.62,20.6-22.48c2.11-5.93,2.19-12.68-0.41-18.41
		c-2.22-4.87-6.33-8.04-11.74-8.31c-5.24-0.26-10.67,1.95-14.45,5.55c-1.87,1.78-3.56,3.83-5.15,5.86V74.96z"/>
</g>
<g class="st0">
	<path d="M294.18,74.96c-3.96,0-7.83-1.41-11.15-3.55c-8.54-5.5-17.1-12.62-20.6-22.48c-2.11-5.93-2.19-12.68,0.42-18.41
		c2.22-4.87,6.33-8.04,11.74-8.31c5.24-0.26,10.67,1.95,14.45,5.55c1.87,1.78,3.56,3.83,5.15,5.86V74.96z"/>
</g>
<circle class="st1" cx="294.42" cy="72.05" r="6.83"/>
<path class="st2" d="M288.65,47.43c0.1-0.01,0.1-0.15,0-0.17c-0.93-0.13-2.23-0.12-3.44-1.37c-0.72-0.74-1.29-1.95-1.51-2.56
	c-0.03-0.09-0.17-0.06-0.16,0.04c0.17,2.02,0.86,2.88,1.45,3.38C285.86,47.48,287.59,47.53,288.65,47.43z"/>
<path class="st2" d="M305.98,43.72c0.1,0.03,0.06,0.17-0.04,0.16c-0.94-0.09-2.2-0.4-3.67,0.54c-0.87,0.55-1.71,1.59-2.06,2.14
	c-0.05,0.08-0.18,0.02-0.15-0.07c0.63-1.92,1.51-2.6,2.2-2.95C303.27,43.02,304.97,43.37,305.98,43.72z"/>
<g>
	<path class="st2" d="M287.78,47.51c-0.21,0.36-0.56,0.51-0.92,0.59c0.27-0.18,0.53-0.48,0.53-0.72c0-0.12,0.1-0.21,0.22-0.21
		C287.78,47.17,287.87,47.38,287.78,47.51L287.78,47.51z"/>
</g>
<g>
	<path class="st2" d="M287.12,47.34c-0.21,0.36-0.56,0.51-0.92,0.59c0.27-0.18,0.53-0.48,0.53-0.72c0-0.12,0.1-0.21,0.22-0.21
		C287.12,47,287.21,47.21,287.12,47.34L287.12,47.34z"/>
</g>
<g>
	<path class="st2" d="M286.39,47.18c-0.21,0.36-0.56,0.51-0.92,0.59c0.27-0.18,0.53-0.48,0.53-0.72c0-0.12,0.1-0.21,0.22-0.21
		C286.39,46.84,286.48,47.05,286.39,47.18L286.39,47.18z"/>
</g>
<text transform="matrix(1 0 0 1 231.9898 110.6177)" class="st3 st4">krishna</text>
<text transform="matrix(1 0 0 1 244.9649 127.1089)" class="st5 st6">Cow Sanctuary</text>
<text transform="matrix(1 0 0 1 408.5658 108.6488)" class="st7 st8">Krishna</text>
<text transform="matrix(1 0 0 1 423.1932 129.9984)" class="st9 st10">Cow Sanctuary</text>
<path d="M532.11,64.73c-0.17,0.77-0.64,2.35-1.98,3.84c-0.54,0.61-1.12,1.08-1.67,1.44c-0.13,0.09-0.27,0.17-0.4,0.25
	c-0.86,0.5-1.63,0.75-2.06,0.87c-1.99,0.31-4.32,0.6-6.96,0.76c-0.08,0.01-0.15,0.01-0.23,0.01l0,0
	c-4.75,0.28-10.45,0.15-16.77-0.92c-9.79-1.66-17.4-4.96-22.38-7.59c-4.97,2.63-12.58,5.93-22.37,7.59
	c-6.32,1.07-12.02,1.19-16.77,0.92c-0.08-0.01-0.16-0.01-0.24-0.02c-2.64-0.16-4.98-0.45-6.96-0.76c-0.43-0.12-1.19-0.36-2.06-0.87
	c-0.13-0.08-0.26-0.16-0.4-0.25c-0.55-0.36-1.13-0.83-1.67-1.44c-1.34-1.49-1.81-3.07-1.98-3.84c-0.07-0.62-0.12-1.98,0.71-3.18
	c1.25-1.8,4-2.49,6.69-1.49c-0.83-3.47,0.31-7,2.9-9.01c2.65-2.05,5.74-1.66,6.38-1.57c-0.17-3.88,1.89-7.5,5.25-9.22
	c3.73-1.91,8.39-1.15,11.45,1.93c1.39-3.83,3.66-8.86,7.41-14.16c3.82-5.39,7.9-9.27,11.14-11.89c0.3-0.25,0.74-0.25,1.04,0
	c3.24,2.63,7.33,6.51,11.14,11.89c3.75,5.3,6.02,10.33,7.41,14.16c3.06-3.08,7.72-3.84,11.45-1.93c3.36,1.72,5.42,5.34,5.25,9.22
	c0.64-0.09,3.73-0.48,6.38,1.57c2.59,2.01,3.73,5.54,2.9,9.01c2.7-1,5.44-0.31,6.69,1.49C532.23,62.75,532.18,64.12,532.11,64.73z"
	/>
<path class="st11" d="M528.99,64.54c-1.23-1.76-3.81-2.37-6.32-1.51c0.73-3.28-0.37-6.61-2.83-8.51c-2.29-1.77-4.91-1.67-6.04-1.52
	c0.13-3.69-1.85-7.11-5.05-8.75c-3.53-1.81-8-1.09-10.9,1.75c-1.74-4.75-4.1-9.25-7.02-13.37c-3.01-4.25-6.58-8.06-10.63-11.34
	c-0.32-0.26-0.79-0.26-1.11,0c-4.04,3.28-7.62,7.1-10.63,11.34c-2.92,4.12-5.28,8.62-7.02,13.37c-2.91-2.84-7.37-3.56-10.9-1.75
	c-3.2,1.64-5.18,5.07-5.05,8.75c-1.13-0.15-3.74-0.25-6.04,1.52c-2.45,1.9-3.55,5.22-2.83,8.51c-2.51-0.87-5.09-0.25-6.32,1.51
	c-0.74,1.06-0.79,2.26-0.69,3.1c0.17,0.75,0.52,1.79,1.23,2.83c0.2,0.29,0.42,0.58,0.68,0.87c1.34,1.49,2.9,2.16,3.98,2.46
	c3.66,0.57,7.33,0.86,11,0.86c1.05,0,2.1-0.02,3.16-0.07c0.58-0.02,1.16-0.06,1.74-0.1c-0.7-0.01-1.4-0.03-2.09-0.07
	c-0.54,0.02-1.08,0.04-1.62,0.05c-4.06,0.07-8.12-0.21-12.16-0.84c-1.05-0.29-2.58-0.94-3.89-2.4c-0.15-0.16-0.29-0.33-0.41-0.5
	c-0.87-1.14-1.27-2.3-1.45-3.11c-0.09-0.79-0.04-1.95,0.66-2.97c0.82-1.18,2.28-1.82,3.91-1.82c0.76,0,1.57,0.14,2.36,0.43
	l0.16,0.06l-0.04-0.16c-0.78-3.26,0.29-6.59,2.73-8.48c2.31-1.79,4.97-1.63,6-1.47l0.11,0.02l0-0.11c-0.17-3.66,1.78-7.07,4.95-8.69
	c3.51-1.8,7.94-1.05,10.8,1.82l0.1,0.1l0.05-0.13c1.74-4.78,4.11-9.31,7.05-13.46c3-4.23,6.56-8.04,10.59-11.31
	c0.26-0.21,0.62-0.21,0.88,0c4.03,3.27,7.6,7.07,10.59,11.31c2.94,4.15,5.31,8.68,7.05,13.46l0.05,0.13l0.1-0.1
	c2.85-2.87,7.29-3.62,10.8-1.82c3.17,1.62,5.11,5.04,4.95,8.69l-0.01,0.11l0.11-0.02c1.04-0.15,3.69-0.32,6,1.47
	c2.44,1.89,3.51,5.22,2.73,8.48l-0.04,0.16l0.16-0.06c2.48-0.92,5.06-0.35,6.27,1.39c0.7,1.01,0.75,2.17,0.66,2.96
	c-0.19,0.82-0.59,1.98-1.45,3.11c-0.13,0.17-0.26,0.33-0.41,0.5c-1.31,1.46-2.84,2.11-3.88,2.4c-4.04,0.63-8.1,0.92-12.16,0.85
	c-0.55-0.01-1.09-0.02-1.64-0.05c-0.69,0.03-1.38,0.06-2.07,0.07c0.58,0.04,1.15,0.07,1.73,0.1c4.73,0.21,9.47-0.05,14.18-0.79
	c1.08-0.3,2.64-0.96,3.97-2.45c0.26-0.29,0.48-0.58,0.68-0.87c0.71-1.05,1.06-2.08,1.23-2.83l0-0.01
	C529.78,66.8,529.73,65.6,528.99,64.54z"/>
<path class="st12" d="M523.81,67.19c-1.1-1.58-3.41-2.12-5.66-1.35c0.65-2.94-0.33-5.91-2.53-7.61c-2.05-1.59-4.39-1.5-5.4-1.36
	c0.11-3.3-1.65-6.36-4.52-7.83c-3.16-1.62-7.16-0.97-9.76,1.57c-1.56-4.25-3.67-8.28-6.28-11.96c-2.69-3.8-5.89-7.21-9.51-10.15
	c-0.29-0.23-0.7-0.23-0.99,0c-3.62,2.94-6.82,6.35-9.51,10.15c-2.61,3.69-4.73,7.72-6.28,11.96c-2.6-2.54-6.6-3.19-9.76-1.57
	c-2.87,1.47-4.63,4.54-4.52,7.83c-1.01-0.13-3.35-0.22-5.4,1.36c-2.2,1.7-3.18,4.68-2.53,7.61c-2.25-0.77-4.56-0.23-5.66,1.35
	c-0.66,0.95-0.7,2.03-0.62,2.77c0.19,0.86,0.65,2.13,1.71,3.31c0.16,0.17,0.31,0.33,0.48,0.48c1.07,1,2.24,1.48,3.09,1.72
	c1.65,0.26,3.3,0.45,4.95,0.58c0.71,0.06,1.42,0.1,2.13,0.13c0.92,0.04,1.84,0.06,2.77,0.06c3.54,0,7.08-0.3,10.6-0.89
	c6.66-1.13,13.07-3.3,19.05-6.45c5.98,3.16,12.39,5.33,19.05,6.45c4.42,0.75,8.89,1.03,13.35,0.83c0.71-0.03,1.43-0.07,2.14-0.13
	c1.65-0.13,3.31-0.32,4.96-0.58c0.84-0.23,2.01-0.71,3.08-1.71c0.16-0.15,0.32-0.31,0.47-0.48c1.06-1.18,1.51-2.45,1.71-3.31l0-0.01
	C524.51,69.21,524.47,68.13,523.81,67.19z M524.27,69.93c-0.19,0.84-0.64,2.08-1.67,3.23c-0.2,0.22-0.4,0.42-0.61,0.6l0,0
	c-1.01,0.89-2.09,1.33-2.86,1.54c-2.23,0.35-4.46,0.58-6.7,0.69c-0.75,0.04-1.5,0.06-2.24,0.07c-3.83,0.05-7.66-0.24-11.45-0.88
	c-6.66-1.13-13.07-3.3-19.04-6.46l-0.04-0.02l-0.04,0.02c-5.97,3.16-12.38,5.33-19.04,6.46c-3.8,0.64-7.63,0.94-11.46,0.88
	c-0.76-0.01-1.51-0.03-2.26-0.07c-2.23-0.11-4.45-0.34-6.67-0.69c-0.78-0.21-1.85-0.65-2.87-1.54c-0.21-0.18-0.41-0.38-0.61-0.61
	c-1.03-1.15-1.48-2.4-1.67-3.23c-0.08-0.71-0.04-1.75,0.59-2.65c0.74-1.06,2.04-1.63,3.5-1.63c0.68,0,1.4,0.13,2.11,0.39l0.14,0.05
	l-0.03-0.15c-0.7-2.92,0.26-5.9,2.44-7.59c2.07-1.6,4.45-1.45,5.37-1.32l0.1,0.01l0-0.1c-0.15-3.27,1.59-6.32,4.43-7.78
	c3.14-1.61,7.11-0.94,9.66,1.63l0.09,0.09l0.04-0.12c1.55-4.28,3.67-8.33,6.3-12.04c2.68-3.79,5.87-7.19,9.48-10.12
	c0.23-0.19,0.56-0.19,0.79,0c3.61,2.93,6.8,6.33,9.48,10.12c2.63,3.71,4.75,7.76,6.3,12.04l0.04,0.12l0.09-0.09
	c2.55-2.57,6.52-3.23,9.66-1.63c2.84,1.45,4.58,4.51,4.43,7.78l0,0.1l0.1-0.01c0.93-0.13,3.31-0.28,5.37,1.32
	c2.18,1.69,3.14,4.67,2.44,7.59l-0.04,0.15l0.14-0.05c2.22-0.82,4.53-0.31,5.61,1.24C524.3,68.18,524.35,69.22,524.27,69.93z"/>
<path class="st2" d="M477.06,38.96c0-2.07,1.02-3.91,2.59-5.03c1.57,1.12,2.59,2.95,2.59,5.03c0,2.07-1.02,3.91-2.59,5.03
	C478.09,42.87,477.06,41.04,477.06,38.96z"/>
<g>
	<path d="M134.33,35.03c-1.22,1.68-2.77,3.09-4.38,4.4c-1.39,1.13-2.85,2.21-4.52,2.85c-1.67,0.64-3.59,0.81-5.24,0.12
		c-1.06-0.44-1.98-1.22-3.09-1.54c-1.11-0.32-2.58,0.05-2.87,1.17c-0.59,2.23-1.25,4.55-1.54,6.84c-0.73,5.74-1.92,13.53-4.26,19.49
		c0-0.02,0-0.04,0-0.05c0-0.2-0.01-0.39-0.03-0.59c-0.13-1.41-0.74-2.79-1.82-3.87c-0.23-0.23-0.47-0.44-0.73-0.63
		c-0.17-0.12-0.35-0.24-0.52-0.35c-0.45-0.26-0.92-0.47-1.41-0.61c-0.58-0.17-1.19-0.26-1.79-0.26c-0.6,0-1.21,0.09-1.79,0.26
		c-0.49,0.14-0.96,0.35-1.41,0.61c-0.18,0.11-0.35,0.22-0.52,0.35c-0.26,0.19-0.5,0.39-0.73,0.63l-0.62,0.62l-0.28,0.29l-0.97-0.97
		c-1.21-1.21-2.8-1.82-4.39-1.82c-1.59,0-3.17,0.61-4.39,1.82c-1.64,1.63-2.2,3.93-1.69,6.02c-0.91-1.74-1.53-3.66-1.92-4.82
		c-0.55-1.6-1.09-3.21-1.51-4.85c-0.57-2.23-0.69-4.51-0.81-6.8c-0.13-2.51-0.21-5.02-0.16-7.53c0.02-0.88,0.05-1.79-0.26-2.61
		c-0.34-0.91-1.11-1.63-2.01-1.96c-1.07-0.39-2.18,0-3.24,0.27c-1.34,0.35-2.67,0.83-4.07,0.87c-1.56,0.04-3.09-0.47-4.5-1.15
		c-3.38-1.63-6.7-4.29-8.35-7.75c-0.66-1.38-3.16-5.93,0.15-7.66c3.09-1.62,7.52-0.5,10.99,0.61c2.39,0.77,4.65,1.92,6.77,3.26
		c0.93,0.58,2.01,1.23,3.06,0.89c0.42-0.14,0.77-0.42,1.11-0.7c1.82-1.49,3.64-2.98,5.46-4.46c0.16-2.2,2.29-3.98,4.45-4.39
		c0.92-0.18,1.89-0.21,2.72-0.64c0.52-0.27,0.95-0.68,1.45-1c0.91-0.58,2.13-0.72,3.11-0.68c0.05,0.34-0.1,0.71-0.39,0.91
		c0.68,0.19,1.4-0.07,2.1,0.02c0.7,0.1,1.38,0.93,0.9,1.45c0.9-0.16,1.81,0.29,2.52,0.88c0.7,0.59,1.27,1.33,1.96,1.93
		c1.06,0.92,2.39,1.49,3.5,2.34c0.84,0.64,1.54,1.42,2.25,2.2c0.9,1.01,1.8,2.01,2.71,3.01c2.97,0.05,5.9-2.5,8.57-3.79
		c2.5-1.21,5.39-1.51,8.14-1.12c1.24,0.18,2.49,0.51,3.55,1.18c1.06,0.68,1.91,1.74,2.12,2.98
		C135.98,32.26,135.24,33.78,134.33,35.03z"/>
	<g>
		<g>
			<path d="M106.97,68.31c0,0.67-0.13,1.31-0.39,1.9c-0.24,0.56-0.58,1.07-1.02,1.51l-8.77,8.77l-8.32-8.32l-0.38-0.38
				c-0.57-0.57-0.99-1.26-1.22-2.03c-0.55-1.75-0.08-3.64,1.22-4.93c0.9-0.9,2.08-1.39,3.34-1.39c1.26,0,2.45,0.49,3.34,1.38
				l2.02,2.02l1.04-1.06l0.28-0.28l0.61-0.61c0.91-0.91,2.13-1.41,3.41-1.41c1.29,0,2.5,0.5,3.41,1.41
				c0.81,0.81,1.29,1.83,1.39,2.96C106.96,68.02,106.97,68.17,106.97,68.31z"/>
			<path class="st2" d="M105.34,62.88c0.18,0.11,0.35,0.22,0.52,0.35C105.7,63.1,105.52,62.99,105.34,62.88z M98.94,62.88
				c-0.18,0.11-0.35,0.22-0.52,0.35C98.59,63.1,98.76,62.99,98.94,62.88z"/>
		</g>
	</g>
	<g>
		<text transform="matrix(1 0 0 1 21.1131 108.6177)"><tspan x="0" y="0" class="st13 st14 st15 st16">K</tspan><tspan x="25.56" y="0" class="st13 st14 st15 st17">r</tspan><tspan x="49.08" y="0" class="st13 st14 st15 st18">i</tspan><tspan x="62.91" y="0" class="st13 st14 st15 st17">s</tspan><tspan x="83.83" y="0" class="st13 st14 st15 st16">h</tspan><tspan x="109.57" y="0" class="st13 st14 st15 st19">n</tspan><tspan x="133.77" y="0" class="st13 st14 st15 st20">a</tspan></text>
		<text transform="matrix(1 0 0 1 21.1131 108.6177)"><tspan x="0" y="0" class="st14 st15 st16">K</tspan><tspan x="25.56" y="0" class="st14 st15 st17">r</tspan><tspan x="49.08" y="0" class="st14 st15 st18">i</tspan><tspan x="62.91" y="0" class="st14 st15 st17">s</tspan><tspan x="83.83" y="0" class="st14 st15 st16">h</tspan><tspan x="109.57" y="0" class="st14 st15 st19">n</tspan><tspan x="133.77" y="0" class="st14 st15 st20">a</tspan></text>
	</g>
	<g>
		<text transform="matrix(1 0 0 1 28.7889 127.6548)"><tspan x="0" y="0" class="st13 st5 st21 st16">C</tspan><tspan x="11.74" y="0" class="st13 st5 st21 st16">OW SANC</tspan><tspan x="91.52" y="0" class="st13 st5 st21 st16">T</tspan><tspan x="101.83" y="0" class="st13 st5 st21 st19">U</tspan><tspan x="112.54" y="0" class="st13 st5 st21 st16">A</tspan><tspan x="123.54" y="0" class="st13 st5 st21 st16">RY</tspan></text>
		<text transform="matrix(1 0 0 1 28.7889 127.6548)"><tspan x="0" y="0" class="st5 st21 st16">C</tspan><tspan x="11.74" y="0" class="st5 st21 st16">OW SANC</tspan><tspan x="91.52" y="0" class="st5 st21 st16">T</tspan><tspan x="101.83" y="0" class="st5 st21 st19">U</tspan><tspan x="112.54" y="0" class="st5 st21 st16">A</tspan><tspan x="123.54" y="0" class="st5 st21 st16">RY</tspan></text>
	</g>
</g>
</svg>
