<?xml version="1.0" encoding="utf-8"?>
<!-- Generator: Adobe Illustrator 28.3.0, SVG Export Plug-In . SVG Version: 6.00 Build 0)  -->
<svg version="1.1" id="Layer_1" xmlns="http://www.w3.org/2000/svg" xmlns:xlink="http://www.w3.org/1999/xlink" x="0px" y="0px"
	 viewBox="0 0 37.42 52.65" style="enable-background:new 0 0 37.42 52.65;" xml:space="preserve">
<style type="text/css">
	.st0{fill:#F4F6F3;}
	.st1{font-family:'AJensonPro-Semibold';}
	.st2{font-size:5.9908px;}
	.st3{opacity:0.2;}
	.st4{font-size:6.3462px;}
	.st5{font-family:'Avenir-Medium';}
	.st6{font-size:2.5783px;}
	.st7{fill:none;stroke:#000000;stroke-width:0.1929;stroke-miterlimit:10;}
	.st8{opacity:0.36;fill:none;stroke:#000000;stroke-width:0.2011;stroke-miterlimit:10;}
	.st9{fill:none;}
</style>
<g>
	<text transform="matrix(1 0 0 1 5.2087 36.0109)" class="st0 st1 st2">Cinque </text>
	<g>
		<text transform="matrix(1 0 0 1 5.2087 36.0109)" class="st1 st2">Cinque </text>
	</g>
	<g class="st3">
		<text transform="matrix(1 0 0 1 5.2087 36.0109)" class="st1 st2">Cinque </text>
	</g>
</g>
<g>
	<text transform="matrix(1 0 0 1 7.6637 42.8254)" class="st0 st1 st4">Terre</text>
	<text transform="matrix(1 0 0 1 7.6637 42.8254)" class="st1 st4">Terre</text>
	<g class="st3">
		<text transform="matrix(1 0 0 1 7.6637 42.8254)" class="st1 st4">Terre</text>
	</g>
</g>
<g>
	<text transform="matrix(1 0 0 1 14.5641 47.1584)" class="st5 st6">ItalIA</text>
</g>
<g>
	<path class="st7" d="M26.56,27.97c-0.31,0.33-0.62-0.08-1.07-0.08c-0.45,0-0.45-0.3-0.9-0.3c-0.45,0-0.45,0.04-0.9,0.04
		c-0.45,0-0.45,0.32-0.9,0.32c-0.45,0-0.45-0.16-0.9-0.16c-0.45,0-0.45,0.07-0.9,0.07c-0.45,0-0.45,0.11-0.9,0.11
		c-0.45,0-0.45-0.09-0.9-0.09c-0.45,0-0.45-0.13-0.9-0.13c-0.45,0-0.45-0.15-0.91-0.15c-0.45,0-0.45,0.12-0.9,0.12
		c-0.45,0-0.45-0.12-0.9-0.12c-0.45,0-0.45,0.41-0.9,0.41c-0.45,0-0.45-0.01-0.91-0.01c-0.45,0-0.45-0.31-0.91-0.31
		c-0.46,0-0.46,0.02-0.91,0.02c-0.46,0-0.73,0.56-1.04,0.23c-0.33-0.33,0.15-0.6,0.15-1.06c0-0.47,0.12-0.47,0.12-0.93
		c0-0.47,0.06-0.47,0.06-0.93c0-0.47-0.12-0.47-0.12-0.93c0-0.47-0.31-0.47-0.31-0.93c0-0.47,0.43-0.47,0.43-0.93
		c0-0.47-0.21-0.47-0.21-0.93c0-0.47-0.04-0.47-0.04-0.93c0-0.47,0.19-0.47,0.19-0.93c0-0.47-0.14-0.47-0.14-0.93
		c0-0.47,0.15-0.47,0.15-0.93c0-0.47-0.09-0.47-0.09-0.93c0-0.47-0.03-0.47-0.03-0.93c0-0.47,0.13-0.47,0.13-0.93
		c0-0.47-0.26-0.47-0.26-0.94c0-0.47,0.14-0.47,0.14-0.93c0-0.47-0.22-0.47-0.22-0.93c0-0.47,0.22-0.47,0.22-0.94
		c0-0.47,0.13-0.47,0.13-0.94c0-0.47-0.19-0.47-0.19-0.94c0-0.47-0.03-0.47-0.03-0.93c0-0.47,0.04-0.47,0.04-0.94
		c0-0.47-0.13-0.47-0.13-0.94c0-0.47,0.16-0.47,0.16-0.94s-0.47-0.72-0.15-1.06C11.21,4,11.47,4.4,11.92,4.4
		c0.45,0,0.45,0.11,0.9,0.11c0.45,0,0.45-0.15,0.9-0.15c0.45,0,0.45,0.05,0.9,0.05c0.45,0,0.45-0.13,0.9-0.13
		c0.45,0,0.45,0.02,0.9,0.02c0.45,0,0.45,0.09,0.9,0.09c0.45,0,0.45-0.02,0.9-0.02c0.45,0,0.45,0.24,0.9,0.24
		c0.45,0,0.45-0.27,0.91-0.27c0.45,0,0.45,0.06,0.9,0.06c0.45,0,0.45,0.13,0.9,0.13c0.45,0,0.45,0.08,0.9,0.08
		c0.45,0,0.45,0.06,0.91,0.06c0.45,0,0.45-0.13,0.91-0.13c0.46,0,0.46,0.06,0.91,0.06c0.46,0,0.68-0.57,0.99-0.25
		c0.33,0.33-0.28,0.55-0.28,1.01c0,0.47,0.42,0.47,0.42,0.93c0,0.47-0.07,0.47-0.07,0.93c0,0.47-0.2,0.47-0.2,0.93
		c0,0.47,0.18,0.47,0.18,0.93c0,0.47-0.2,0.47-0.2,0.93c0,0.47,0.07,0.47,0.07,0.93c0,0.47-0.18,0.47-0.18,0.93
		c0,0.47,0.08,0.47,0.08,0.93c0,0.47,0,0.47,0,0.93c0,0.47,0.16,0.47,0.16,0.93c0,0.47-0.11,0.47-0.11,0.93
		c0,0.47,0.21,0.47,0.21,0.93c0,0.47-0.37,0.47-0.37,0.93c0,0.47,0.15,0.47,0.15,0.94c0,0.47-0.13,0.47-0.13,0.93
		c0,0.47,0.37,0.47,0.37,0.93c0,0.47-0.05,0.47-0.05,0.94c0,0.47-0.32,0.47-0.32,0.94c0,0.47,0.32,0.47,0.32,0.94
		c0,0.47-0.18,0.47-0.18,0.93c0,0.47-0.08,0.47-0.08,0.94c0,0.47,0,0.47,0,0.94c0,0.47,0.03,0.48,0.16,0.93
		C26.59,27.43,26.89,27.63,26.56,27.97z"/>
	<path class="st8" d="M26.56,27.97c-0.31,0.33-0.62-0.08-1.07-0.08c-0.45,0-0.45-0.3-0.9-0.3c-0.45,0-0.45,0.04-0.9,0.04
		c-0.45,0-0.45,0.32-0.9,0.32c-0.45,0-0.45-0.16-0.9-0.16c-0.45,0-0.45,0.07-0.9,0.07c-0.45,0-0.45,0.11-0.9,0.11
		c-0.45,0-0.45-0.09-0.9-0.09c-0.45,0-0.45-0.13-0.9-0.13c-0.45,0-0.45-0.15-0.91-0.15c-0.45,0-0.45,0.12-0.9,0.12
		c-0.45,0-0.45-0.12-0.9-0.12c-0.45,0-0.45,0.41-0.9,0.41c-0.45,0-0.45-0.01-0.91-0.01c-0.45,0-0.45-0.31-0.91-0.31
		c-0.46,0-0.46,0.02-0.91,0.02c-0.46,0-0.73,0.56-1.04,0.23c-0.33-0.33,0.15-0.6,0.15-1.06c0-0.47,0.12-0.47,0.12-0.93
		c0-0.47,0.06-0.47,0.06-0.93c0-0.47-0.12-0.47-0.12-0.93c0-0.47-0.31-0.47-0.31-0.93c0-0.47,0.43-0.47,0.43-0.93
		c0-0.47-0.21-0.47-0.21-0.93c0-0.47-0.04-0.47-0.04-0.93c0-0.47,0.19-0.47,0.19-0.93c0-0.47-0.14-0.47-0.14-0.93
		c0-0.47,0.15-0.47,0.15-0.93c0-0.47-0.09-0.47-0.09-0.93c0-0.47-0.03-0.47-0.03-0.93c0-0.47,0.13-0.47,0.13-0.93
		c0-0.47-0.26-0.47-0.26-0.94c0-0.47,0.14-0.47,0.14-0.93c0-0.47-0.22-0.47-0.22-0.93c0-0.47,0.22-0.47,0.22-0.94
		c0-0.47,0.13-0.47,0.13-0.94c0-0.47-0.19-0.47-0.19-0.94c0-0.47-0.03-0.47-0.03-0.93c0-0.47,0.04-0.47,0.04-0.94
		c0-0.47-0.13-0.47-0.13-0.94c0-0.47,0.16-0.47,0.16-0.94s-0.47-0.72-0.15-1.06C11.21,4,11.47,4.4,11.92,4.4
		c0.45,0,0.45,0.11,0.9,0.11c0.45,0,0.45-0.15,0.9-0.15c0.45,0,0.45,0.05,0.9,0.05c0.45,0,0.45-0.13,0.9-0.13
		c0.45,0,0.45,0.02,0.9,0.02c0.45,0,0.45,0.09,0.9,0.09c0.45,0,0.45-0.02,0.9-0.02c0.45,0,0.45,0.24,0.9,0.24
		c0.45,0,0.45-0.27,0.91-0.27c0.45,0,0.45,0.06,0.9,0.06c0.45,0,0.45,0.13,0.9,0.13c0.45,0,0.45,0.08,0.9,0.08
		c0.45,0,0.45,0.06,0.91,0.06c0.45,0,0.45-0.13,0.91-0.13c0.46,0,0.46,0.06,0.91,0.06c0.46,0,0.68-0.57,0.99-0.25
		c0.33,0.33-0.28,0.55-0.28,1.01c0,0.47,0.42,0.47,0.42,0.93c0,0.47-0.07,0.47-0.07,0.93c0,0.47-0.2,0.47-0.2,0.93
		c0,0.47,0.18,0.47,0.18,0.93c0,0.47-0.2,0.47-0.2,0.93c0,0.47,0.07,0.47,0.07,0.93c0,0.47-0.18,0.47-0.18,0.93
		c0,0.47,0.08,0.47,0.08,0.93c0,0.47,0,0.47,0,0.93c0,0.47,0.16,0.47,0.16,0.93c0,0.47-0.11,0.47-0.11,0.93
		c0,0.47,0.21,0.47,0.21,0.93c0,0.47-0.37,0.47-0.37,0.93c0,0.47,0.15,0.47,0.15,0.94c0,0.47-0.13,0.47-0.13,0.93
		c0,0.47,0.37,0.47,0.37,0.93c0,0.47-0.05,0.47-0.05,0.94c0,0.47-0.32,0.47-0.32,0.94c0,0.47,0.32,0.47,0.32,0.94
		c0,0.47-0.18,0.47-0.18,0.93c0,0.47-0.08,0.47-0.08,0.94c0,0.47,0,0.47,0,0.94c0,0.47,0.03,0.48,0.16,0.93
		C26.59,27.43,26.89,27.63,26.56,27.97z"/>
</g>
<g>
	<path class="st9" d="M15,7.07c0.16,0.24,0.08,0.57-0.16,0.72c-0.24,0.16-0.55,0.09-0.71-0.15c-0.16-0.24-0.11-0.57,0.13-0.73
		S14.84,6.83,15,7.07z"/>
</g>
<g>
	<g>
		<path d="M22.71,7.54c-0.09,0-0.19,0-0.28-0.01L22.22,7.5l0.15-0.14c0.27-0.26,0.54-0.52,0.85-0.68c0.31-0.17,0.66-0.23,0.99-0.29
			l0.05-0.01c0.34-0.06,0.63-0.07,1.01-0.03l0.21,0.02l-0.15,0.14c-0.25,0.24-0.48,0.46-0.8,0.63c-0.34,0.18-0.71,0.26-1.03,0.32
			C23.27,7.5,23,7.54,22.71,7.54z M22.66,7.34c0.29,0.01,0.57-0.04,0.8-0.08c0.31-0.06,0.66-0.13,0.98-0.3
			c0.23-0.12,0.42-0.28,0.6-0.45c-0.26-0.01-0.49,0-0.75,0.05l-0.05,0.01c-0.32,0.06-0.65,0.12-0.94,0.27
			C23.08,6.97,22.87,7.15,22.66,7.34z"/>
		<path d="M17.59,9.42c-0.29,0-0.57-0.04-0.84-0.08c-0.07-0.01-0.14-0.02-0.2-0.03c-0.31-0.04-0.64-0.11-1.03-0.22
			c-0.26-0.07-0.51-0.19-0.75-0.29c-0.07-0.03-0.15-0.07-0.22-0.1c-0.23-0.1-0.44-0.24-0.64-0.37c-0.08-0.06-0.17-0.11-0.26-0.17
			c-0.1-0.06-0.21-0.12-0.32-0.18c-0.2-0.11-0.41-0.22-0.59-0.36l-0.09-0.07l0.09-0.07c0.21-0.17,0.46-0.32,0.69-0.46
			c0.07-0.04,0.13-0.08,0.2-0.12c0.08-0.05,0.16-0.1,0.23-0.15c0.21-0.14,0.43-0.28,0.67-0.38c0.09-0.04,0.19-0.09,0.28-0.13
			c0.22-0.1,0.45-0.21,0.69-0.28c0.34-0.1,0.73-0.15,1.04-0.19c0.24-0.03,0.48-0.02,0.72-0.01c0.11,0,0.22,0.01,0.33,0.01l0.18,0
			c0.28,0,0.58,0,0.86,0.04c0.34,0.05,0.68,0.14,1.02,0.23c0.24,0.07,0.47,0.17,0.68,0.28c0.09,0.04,0.18,0.09,0.28,0.13
			c0.11,0.05,0.23,0.09,0.35,0.13c0.21,0.07,0.42,0.15,0.62,0.27c0.27,0.17,0.55,0.37,0.85,0.61l0.04,0.03l0,0.05
			c0,0.05-0.05,0.1-0.06,0.1c-0.28,0.23-0.59,0.42-0.86,0.58c-0.23,0.14-0.47,0.24-0.71,0.34c-0.08,0.03-0.15,0.06-0.23,0.1
			c-0.12,0.05-0.24,0.13-0.36,0.2c-0.18,0.11-0.36,0.22-0.57,0.28c-0.2,0.06-0.42,0.06-0.63,0.06c-0.14,0-0.29,0-0.42,0.02
			c-0.13,0.02-0.27,0.06-0.41,0.1C18.01,9.36,17.81,9.42,17.59,9.42z M12.97,7.54c0.14,0.1,0.3,0.19,0.46,0.27
			c0.11,0.06,0.22,0.12,0.33,0.19c0.09,0.05,0.18,0.11,0.26,0.17c0.2,0.13,0.39,0.26,0.61,0.35c0.08,0.03,0.15,0.07,0.23,0.1
			c0.23,0.11,0.47,0.21,0.72,0.28c0.38,0.11,0.7,0.18,1,0.22c0.07,0.01,0.14,0.02,0.21,0.03c0.27,0.04,0.54,0.08,0.81,0.08
			c0.19,0,0.38-0.05,0.57-0.11c0.14-0.04,0.29-0.08,0.43-0.1c0.15-0.02,0.3-0.02,0.45-0.02c0.2,0,0.4,0,0.58-0.05
			c0.18-0.05,0.35-0.15,0.52-0.26c0.12-0.08,0.25-0.15,0.39-0.21c0.08-0.03,0.16-0.07,0.23-0.1c0.24-0.1,0.47-0.2,0.69-0.33
			c0.25-0.15,0.53-0.32,0.78-0.52c-0.26-0.21-0.51-0.38-0.75-0.53c-0.18-0.11-0.37-0.18-0.58-0.25c-0.12-0.04-0.24-0.09-0.36-0.14
			c-0.09-0.04-0.19-0.09-0.28-0.13c-0.21-0.1-0.43-0.2-0.65-0.27c-0.33-0.09-0.66-0.18-0.99-0.23c-0.27-0.04-0.54-0.04-0.84-0.03
			l-0.18,0c-0.11,0-0.23,0-0.34-0.01c-0.24-0.01-0.46-0.02-0.68,0.01c-0.32,0.04-0.68,0.09-1.01,0.19C15.33,6.2,15.11,6.3,14.9,6.4
			c-0.1,0.05-0.19,0.09-0.29,0.13c-0.22,0.1-0.44,0.23-0.64,0.37c-0.08,0.05-0.16,0.1-0.24,0.15c-0.07,0.04-0.13,0.08-0.2,0.12
			C13.34,7.29,13.14,7.41,12.97,7.54z"/>
		<path d="M25.16,8.85c-0.32,0-0.62-0.06-0.9-0.11c-0.06-0.01-0.13-0.02-0.19-0.04c-0.3-0.05-0.61-0.11-0.9-0.26
			c-0.27-0.14-0.48-0.37-0.69-0.58c-0.05-0.05-0.1-0.11-0.16-0.16c-0.02-0.02-0.04-0.05-0.03-0.1l-0.09-0.1l0.19-0.02
			c0.33-0.03,0.65-0.01,1.04,0.07c0.06,0.01,0.12,0.02,0.18,0.04c0.28,0.06,0.57,0.11,0.84,0.27c0.28,0.17,0.55,0.39,0.83,0.67
			l-0.07,0.07l0.08-0.06c0.04,0.04,0.14,0.14,0.15,0.16l0.13,0.14l-0.19,0.02C25.31,8.85,25.24,8.85,25.16,8.85z M22.56,7.65
			c0.02,0.02,0.05,0.05,0.07,0.07c0.21,0.21,0.4,0.42,0.64,0.55c0.26,0.14,0.55,0.19,0.84,0.24c0.06,0.01,0.13,0.02,0.19,0.04
			c0.26,0.05,0.55,0.11,0.85,0.11l-0.01-0.01c-0.26-0.26-0.53-0.48-0.79-0.64c-0.23-0.14-0.5-0.2-0.77-0.25
			c-0.06-0.01-0.12-0.02-0.18-0.04C23.09,7.66,22.82,7.63,22.56,7.65z"/>
	</g>
	<path d="M15.06,7.03c-0.19-0.29-0.57-0.37-0.85-0.19c-0.14,0.09-0.23,0.23-0.25,0.39c-0.03,0.16,0.01,0.32,0.1,0.46
		c0.09,0.14,0.23,0.23,0.38,0.27c0.04,0.01,0.09,0.02,0.13,0.02c0.11,0,0.22-0.03,0.32-0.1c0.14-0.09,0.23-0.23,0.26-0.39
		C15.19,7.33,15.15,7.16,15.06,7.03z M14.97,7.45c-0.02,0.11-0.08,0.2-0.18,0.26c-0.09,0.06-0.2,0.08-0.31,0.06
		c-0.07-0.02-0.13-0.05-0.18-0.1c0.08,0.02,0.18,0.01,0.26-0.04c0.15-0.1,0.19-0.3,0.09-0.45C14.56,7.05,14.38,7,14.24,7.07
		c0.02-0.03,0.05-0.05,0.08-0.08c0.07-0.04,0.14-0.07,0.22-0.07c0.14,0,0.28,0.07,0.36,0.2C14.97,7.23,14.99,7.34,14.97,7.45z"/>
</g>
<g>
	<path class="st9" d="M14.98,15.61c0.16,0.24,0.11,0.56-0.12,0.72s-0.58,0.09-0.74-0.15s-0.08-0.57,0.16-0.73
		S14.82,15.37,14.98,15.61z"/>
</g>
<g>
	<g>
		<path d="M22.71,16.06c-0.09,0-0.19,0-0.28-0.01l-0.21-0.02l0.15-0.14c0.27-0.26,0.54-0.52,0.85-0.68
			c0.31-0.17,0.66-0.23,0.99-0.29l0.05-0.01c0.34-0.06,0.63-0.07,1.01-0.03l0.21,0.02l-0.15,0.14c-0.25,0.24-0.48,0.46-0.8,0.63
			c-0.34,0.18-0.71,0.26-1.03,0.32C23.27,16.02,23,16.06,22.71,16.06z M22.66,15.87c0.29,0.01,0.57-0.04,0.8-0.08
			c0.31-0.06,0.66-0.13,0.98-0.3c0.23-0.12,0.42-0.28,0.6-0.45c-0.26-0.01-0.49,0-0.75,0.05l-0.05,0.01
			c-0.32,0.06-0.65,0.12-0.94,0.27C23.08,15.49,22.87,15.67,22.66,15.87z"/>
		<path d="M17.59,17.94c-0.29,0-0.57-0.04-0.84-0.08c-0.07-0.01-0.14-0.02-0.2-0.03c-0.31-0.04-0.64-0.11-1.03-0.22
			c-0.26-0.07-0.51-0.19-0.75-0.29c-0.07-0.03-0.15-0.07-0.22-0.1c-0.23-0.1-0.44-0.24-0.64-0.37c-0.08-0.06-0.17-0.11-0.26-0.17
			c-0.1-0.06-0.21-0.12-0.32-0.18c-0.2-0.11-0.41-0.22-0.59-0.36l-0.09-0.07l0.09-0.07c0.21-0.17,0.46-0.32,0.69-0.46
			c0.07-0.04,0.13-0.08,0.2-0.12c0.08-0.05,0.16-0.1,0.23-0.15c0.21-0.14,0.43-0.28,0.67-0.38c0.09-0.04,0.19-0.09,0.28-0.13
			c0.22-0.1,0.45-0.21,0.69-0.28c0.34-0.1,0.73-0.15,1.04-0.19c0.24-0.03,0.48-0.02,0.72-0.01c0.11,0,0.22,0.01,0.33,0.01l0.18,0
			c0.28,0,0.58,0,0.86,0.04c0.34,0.05,0.68,0.14,1.02,0.23c0.24,0.07,0.47,0.17,0.68,0.28c0.09,0.04,0.18,0.09,0.28,0.13
			c0.11,0.05,0.23,0.09,0.35,0.13c0.21,0.07,0.42,0.15,0.62,0.27c0.27,0.17,0.55,0.37,0.85,0.61l0.04,0.03l0,0.05
			c0,0.05-0.05,0.1-0.06,0.1c-0.28,0.23-0.59,0.42-0.86,0.58c-0.23,0.14-0.47,0.24-0.71,0.34c-0.08,0.03-0.15,0.06-0.23,0.1
			c-0.12,0.05-0.24,0.13-0.36,0.2c-0.18,0.11-0.36,0.22-0.57,0.28c-0.2,0.06-0.42,0.06-0.63,0.06c-0.14,0-0.29,0-0.42,0.02
			c-0.13,0.02-0.27,0.06-0.41,0.1C18.01,17.88,17.81,17.94,17.59,17.94z M12.97,16.06c0.14,0.1,0.3,0.19,0.46,0.27
			c0.11,0.06,0.22,0.12,0.33,0.19c0.09,0.05,0.18,0.11,0.26,0.17c0.2,0.13,0.39,0.26,0.61,0.35c0.08,0.03,0.15,0.07,0.23,0.1
			c0.23,0.11,0.47,0.21,0.72,0.28c0.38,0.11,0.7,0.18,1,0.22c0.07,0.01,0.14,0.02,0.21,0.03c0.27,0.04,0.54,0.08,0.81,0.08
			c0.19,0,0.38-0.05,0.57-0.11c0.14-0.04,0.29-0.08,0.43-0.1c0.15-0.02,0.3-0.02,0.45-0.02c0.2,0,0.4,0,0.58-0.05
			c0.18-0.05,0.35-0.15,0.52-0.26c0.12-0.08,0.25-0.15,0.39-0.21c0.08-0.03,0.16-0.07,0.23-0.1c0.24-0.1,0.47-0.2,0.69-0.33
			c0.25-0.15,0.53-0.32,0.78-0.52c-0.26-0.21-0.51-0.38-0.75-0.53c-0.18-0.11-0.37-0.18-0.58-0.25c-0.12-0.04-0.24-0.09-0.36-0.14
			c-0.09-0.04-0.19-0.09-0.28-0.13c-0.21-0.1-0.43-0.2-0.65-0.27c-0.33-0.09-0.66-0.18-0.99-0.23c-0.27-0.04-0.54-0.04-0.84-0.03
			l-0.18,0c-0.11,0-0.23,0-0.34-0.01c-0.24-0.01-0.46-0.02-0.68,0.01c-0.32,0.04-0.68,0.09-1.01,0.19
			c-0.22,0.06-0.44,0.17-0.65,0.27c-0.1,0.05-0.19,0.09-0.29,0.13c-0.22,0.1-0.44,0.23-0.64,0.37c-0.08,0.05-0.16,0.1-0.24,0.15
			c-0.07,0.04-0.13,0.08-0.2,0.12C13.34,15.81,13.14,15.93,12.97,16.06z"/>
		<path d="M25.16,17.37c-0.32,0-0.62-0.06-0.9-0.11c-0.06-0.01-0.13-0.02-0.19-0.04c-0.3-0.05-0.61-0.11-0.9-0.26
			c-0.27-0.14-0.48-0.37-0.69-0.58c-0.05-0.05-0.1-0.11-0.16-0.16c-0.02-0.02-0.04-0.05-0.03-0.1l-0.09-0.1l0.19-0.02
			c0.33-0.03,0.65-0.01,1.04,0.07c0.06,0.01,0.12,0.02,0.18,0.04c0.28,0.06,0.57,0.11,0.84,0.27c0.28,0.17,0.55,0.39,0.83,0.67
			l-0.07,0.07l0.08-0.06c0.04,0.04,0.14,0.14,0.15,0.16l0.13,0.14l-0.19,0.02C25.31,17.37,25.24,17.37,25.16,17.37z M22.56,16.17
			c0.02,0.02,0.05,0.05,0.07,0.07c0.21,0.21,0.4,0.42,0.64,0.55c0.26,0.14,0.55,0.19,0.84,0.24c0.06,0.01,0.13,0.02,0.19,0.04
			c0.26,0.05,0.55,0.11,0.85,0.11l-0.01-0.01c-0.26-0.26-0.53-0.48-0.79-0.64c-0.23-0.14-0.5-0.2-0.77-0.25
			c-0.06-0.01-0.12-0.02-0.18-0.04C23.09,16.18,22.82,16.16,22.56,16.17z"/>
	</g>
	<path d="M15.06,15.55c-0.19-0.29-0.57-0.37-0.85-0.19c-0.14,0.09-0.23,0.23-0.25,0.39c-0.03,0.16,0.01,0.32,0.1,0.46
		c0.09,0.14,0.23,0.23,0.38,0.27c0.04,0.01,0.09,0.02,0.13,0.02c0.11,0,0.22-0.03,0.32-0.1c0.14-0.09,0.23-0.23,0.26-0.39
		C15.19,15.85,15.15,15.69,15.06,15.55z M14.97,15.97c-0.02,0.11-0.08,0.2-0.18,0.26c-0.09,0.06-0.2,0.08-0.31,0.06
		c-0.07-0.02-0.13-0.05-0.18-0.1c0.08,0.02,0.18,0.01,0.26-0.04c0.15-0.1,0.19-0.3,0.09-0.45c-0.09-0.14-0.27-0.18-0.41-0.11
		c0.02-0.03,0.05-0.05,0.08-0.08c0.07-0.04,0.14-0.07,0.22-0.07c0.14,0,0.28,0.07,0.36,0.2C14.97,15.75,14.99,15.86,14.97,15.97z"/>
</g>
<g>
	<path class="st9" d="M14.99,24.12c0.16,0.24,0.09,0.56-0.15,0.72c-0.24,0.16-0.56,0.09-0.72-0.15s-0.08-0.54,0.15-0.7
		C14.52,23.83,14.84,23.88,14.99,24.12z"/>
</g>
<g>
	<g>
		<path d="M22.71,24.58c-0.09,0-0.19,0-0.28-0.01l-0.21-0.02l0.15-0.14c0.27-0.26,0.54-0.52,0.85-0.68
			c0.31-0.17,0.66-0.23,0.99-0.29l0.05-0.01c0.34-0.06,0.63-0.07,1.01-0.03l0.21,0.02l-0.15,0.14c-0.25,0.24-0.48,0.46-0.8,0.63
			c-0.34,0.18-0.71,0.26-1.03,0.32C23.27,24.54,23,24.58,22.71,24.58z M22.66,24.39c0.29,0.01,0.57-0.04,0.8-0.08
			c0.31-0.06,0.66-0.13,0.98-0.3c0.23-0.12,0.42-0.28,0.6-0.45c-0.26-0.01-0.49,0-0.75,0.05l-0.05,0.01
			c-0.32,0.06-0.65,0.12-0.94,0.27C23.08,24.02,22.87,24.19,22.66,24.39z"/>
		<path d="M17.59,26.46c-0.29,0-0.57-0.04-0.84-0.08c-0.07-0.01-0.14-0.02-0.2-0.03c-0.31-0.04-0.64-0.11-1.03-0.22
			c-0.26-0.07-0.51-0.19-0.75-0.29c-0.07-0.03-0.15-0.07-0.22-0.1c-0.23-0.1-0.44-0.24-0.64-0.37c-0.08-0.06-0.17-0.11-0.26-0.17
			c-0.1-0.06-0.21-0.12-0.32-0.18c-0.2-0.11-0.41-0.22-0.59-0.36l-0.09-0.07l0.09-0.07c0.21-0.17,0.46-0.32,0.69-0.46
			c0.07-0.04,0.13-0.08,0.2-0.12c0.08-0.05,0.16-0.1,0.23-0.15c0.21-0.14,0.43-0.28,0.67-0.38c0.09-0.04,0.19-0.09,0.28-0.13
			c0.22-0.1,0.45-0.21,0.69-0.28c0.34-0.1,0.73-0.15,1.04-0.19c0.24-0.03,0.48-0.02,0.72-0.01c0.11,0,0.22,0.01,0.33,0.01l0.18,0
			c0.28,0,0.58,0,0.86,0.04c0.34,0.05,0.68,0.14,1.02,0.23c0.24,0.07,0.47,0.17,0.68,0.28c0.09,0.04,0.18,0.09,0.28,0.13
			c0.11,0.05,0.23,0.09,0.35,0.13c0.21,0.07,0.42,0.15,0.62,0.27c0.27,0.17,0.55,0.37,0.85,0.61l0.04,0.03l0,0.05
			c0,0.05-0.05,0.1-0.06,0.1c-0.28,0.23-0.59,0.42-0.86,0.58c-0.23,0.14-0.47,0.24-0.71,0.34c-0.08,0.03-0.15,0.06-0.23,0.1
			c-0.12,0.05-0.24,0.13-0.36,0.2c-0.18,0.11-0.36,0.22-0.57,0.28c-0.2,0.06-0.42,0.06-0.63,0.06c-0.14,0-0.29,0-0.42,0.02
			c-0.13,0.02-0.27,0.06-0.41,0.1C18.01,26.4,17.81,26.46,17.59,26.46z M12.97,24.59c0.14,0.1,0.3,0.19,0.46,0.27
			c0.11,0.06,0.22,0.12,0.33,0.19c0.09,0.05,0.18,0.11,0.26,0.17c0.2,0.13,0.39,0.26,0.61,0.35c0.08,0.03,0.15,0.07,0.23,0.1
			c0.23,0.11,0.47,0.21,0.72,0.28c0.38,0.11,0.7,0.18,1,0.22c0.07,0.01,0.14,0.02,0.21,0.03c0.27,0.04,0.54,0.08,0.81,0.08
			c0.19,0,0.38-0.05,0.57-0.11c0.14-0.04,0.29-0.08,0.43-0.1c0.15-0.02,0.3-0.02,0.45-0.02c0.2,0,0.4,0,0.58-0.05
			c0.18-0.05,0.35-0.15,0.52-0.26c0.12-0.08,0.25-0.15,0.39-0.21c0.08-0.03,0.16-0.07,0.23-0.1c0.24-0.1,0.47-0.2,0.69-0.33
			c0.25-0.15,0.53-0.32,0.78-0.52c-0.26-0.21-0.51-0.38-0.75-0.53c-0.18-0.11-0.37-0.18-0.58-0.25c-0.12-0.04-0.24-0.09-0.36-0.14
			c-0.09-0.04-0.19-0.09-0.28-0.13c-0.21-0.1-0.43-0.2-0.65-0.27c-0.33-0.09-0.66-0.18-0.99-0.23c-0.27-0.04-0.54-0.04-0.84-0.03
			l-0.18,0c-0.11,0-0.23,0-0.34-0.01c-0.24-0.01-0.46-0.02-0.68,0.01c-0.32,0.04-0.68,0.09-1.01,0.19
			c-0.22,0.06-0.44,0.17-0.65,0.27c-0.1,0.05-0.19,0.09-0.29,0.13c-0.22,0.1-0.44,0.23-0.64,0.37c-0.08,0.05-0.16,0.1-0.24,0.15
			c-0.07,0.04-0.13,0.08-0.2,0.12C13.34,24.33,13.14,24.45,12.97,24.59z"/>
		<path d="M25.16,25.9c-0.32,0-0.62-0.06-0.9-0.11c-0.06-0.01-0.13-0.02-0.19-0.04c-0.3-0.05-0.61-0.11-0.9-0.26
			c-0.27-0.14-0.48-0.37-0.69-0.58c-0.05-0.05-0.1-0.11-0.16-0.16c-0.02-0.02-0.04-0.05-0.03-0.1l-0.09-0.1l0.19-0.02
			c0.33-0.03,0.65-0.01,1.04,0.07c0.06,0.01,0.12,0.02,0.18,0.04c0.28,0.06,0.57,0.11,0.84,0.27c0.28,0.17,0.55,0.39,0.83,0.67
			l-0.07,0.07l0.08-0.06c0.04,0.04,0.14,0.14,0.15,0.16l0.13,0.14l-0.19,0.02C25.31,25.89,25.24,25.9,25.16,25.9z M22.56,24.69
			c0.02,0.02,0.05,0.05,0.07,0.07c0.21,0.21,0.4,0.42,0.64,0.55c0.26,0.14,0.55,0.19,0.84,0.24c0.06,0.01,0.13,0.02,0.19,0.04
			c0.26,0.05,0.55,0.11,0.85,0.11l-0.01-0.01c-0.26-0.26-0.53-0.48-0.79-0.64c-0.23-0.14-0.5-0.2-0.77-0.25
			c-0.06-0.01-0.12-0.02-0.18-0.04C23.09,24.7,22.82,24.68,22.56,24.69z"/>
	</g>
	<path d="M15.06,24.07c-0.19-0.29-0.57-0.37-0.85-0.19c-0.14,0.09-0.23,0.23-0.25,0.39c-0.03,0.16,0.01,0.32,0.1,0.46
		c0.09,0.14,0.23,0.23,0.38,0.27c0.04,0.01,0.09,0.02,0.13,0.02c0.11,0,0.22-0.03,0.32-0.1c0.14-0.09,0.23-0.23,0.26-0.39
		C15.19,24.37,15.15,24.21,15.06,24.07z M14.97,24.49c-0.02,0.11-0.08,0.2-0.18,0.26c-0.09,0.06-0.2,0.08-0.31,0.06
		c-0.07-0.02-0.13-0.05-0.18-0.1c0.08,0.02,0.18,0.01,0.26-0.04c0.15-0.1,0.19-0.3,0.09-0.45c-0.09-0.14-0.27-0.18-0.41-0.11
		c0.02-0.03,0.05-0.05,0.08-0.08c0.07-0.04,0.14-0.07,0.22-0.07c0.14,0,0.28,0.07,0.36,0.2C14.97,24.27,14.99,24.38,14.97,24.49z"/>
</g>
<g>
	<path class="st9" d="M23.24,11.34c-0.16,0.24-0.09,0.55,0.15,0.71s0.57,0.11,0.73-0.13s0.07-0.55-0.17-0.71S23.4,11.1,23.24,11.34z
		"/>
</g>
<g>
	<g>
		<path d="M15.52,11.8c0.09,0,0.19,0,0.28-0.01l0.21-0.02l-0.15-0.14c-0.27-0.26-0.54-0.52-0.85-0.68
			c-0.31-0.17-0.66-0.23-0.99-0.29l-0.05-0.01c-0.34-0.06-0.63-0.07-1.01-0.03l-0.21,0.02l0.15,0.14c0.25,0.24,0.48,0.46,0.8,0.63
			c0.34,0.18,0.71,0.26,1.03,0.32C14.96,11.76,15.23,11.8,15.52,11.8z M15.56,11.61c-0.29,0.01-0.57-0.04-0.8-0.08
			c-0.31-0.06-0.66-0.13-0.98-0.3c-0.23-0.12-0.42-0.28-0.6-0.45c0.26-0.01,0.49,0,0.75,0.05l0.05,0.01
			c0.32,0.06,0.65,0.12,0.94,0.27C15.14,11.23,15.35,11.41,15.56,11.61z"/>
		<path d="M20.64,13.68c0.29,0,0.57-0.04,0.84-0.08c0.07-0.01,0.14-0.02,0.2-0.03c0.31-0.04,0.64-0.11,1.03-0.22
			c0.26-0.07,0.51-0.19,0.75-0.29c0.07-0.03,0.15-0.07,0.22-0.1c0.23-0.1,0.44-0.24,0.64-0.37c0.08-0.06,0.17-0.11,0.26-0.17
			c0.1-0.06,0.21-0.12,0.32-0.18c0.2-0.11,0.41-0.22,0.59-0.36l0.09-0.07l-0.09-0.07c-0.21-0.17-0.46-0.32-0.69-0.46
			c-0.07-0.04-0.13-0.08-0.2-0.12c-0.08-0.05-0.16-0.1-0.23-0.15c-0.21-0.14-0.43-0.28-0.67-0.38c-0.09-0.04-0.19-0.09-0.28-0.13
			c-0.22-0.1-0.45-0.21-0.69-0.28c-0.34-0.1-0.73-0.15-1.04-0.19c-0.24-0.03-0.48-0.02-0.72-0.01c-0.11,0-0.22,0.01-0.33,0.01
			l-0.18,0c-0.28,0-0.58,0-0.86,0.04c-0.34,0.05-0.68,0.14-1.02,0.23c-0.24,0.07-0.47,0.17-0.68,0.28
			c-0.09,0.04-0.18,0.09-0.28,0.13c-0.11,0.05-0.23,0.09-0.35,0.13c-0.21,0.07-0.42,0.15-0.62,0.27c-0.27,0.17-0.55,0.37-0.85,0.61
			l-0.04,0.03l0,0.05c0,0.05,0.05,0.1,0.06,0.1c0.28,0.23,0.59,0.42,0.86,0.58c0.23,0.14,0.47,0.24,0.71,0.34
			c0.08,0.03,0.15,0.06,0.23,0.1c0.12,0.05,0.24,0.13,0.36,0.2c0.18,0.11,0.36,0.22,0.57,0.28c0.2,0.06,0.42,0.06,0.63,0.06
			c0.14,0,0.29,0,0.42,0.02c0.13,0.02,0.27,0.06,0.41,0.1C20.21,13.62,20.42,13.68,20.64,13.68z M25.26,11.8
			c-0.14,0.1-0.3,0.19-0.46,0.27c-0.11,0.06-0.22,0.12-0.33,0.19c-0.09,0.05-0.18,0.11-0.26,0.17c-0.2,0.13-0.39,0.26-0.61,0.35
			c-0.08,0.03-0.15,0.07-0.23,0.1c-0.23,0.11-0.47,0.21-0.72,0.28c-0.38,0.11-0.7,0.18-1,0.22c-0.07,0.01-0.14,0.02-0.21,0.03
			c-0.27,0.04-0.54,0.08-0.81,0.08c-0.19,0-0.38-0.05-0.57-0.11c-0.14-0.04-0.29-0.08-0.43-0.1c-0.15-0.02-0.3-0.02-0.45-0.02
			c-0.2,0-0.4,0-0.58-0.05c-0.18-0.05-0.35-0.15-0.52-0.26c-0.12-0.08-0.25-0.15-0.39-0.21c-0.08-0.03-0.16-0.07-0.23-0.1
			c-0.24-0.1-0.47-0.2-0.69-0.33c-0.25-0.15-0.53-0.32-0.78-0.52c0.26-0.21,0.51-0.38,0.75-0.53c0.18-0.11,0.37-0.18,0.58-0.25
			c0.12-0.04,0.24-0.09,0.36-0.14c0.09-0.04,0.19-0.09,0.28-0.13c0.21-0.1,0.43-0.2,0.65-0.27c0.33-0.09,0.66-0.18,0.99-0.23
			c0.27-0.04,0.54-0.04,0.84-0.03l0.18,0c0.11,0,0.23,0,0.34-0.01c0.24-0.01,0.46-0.02,0.68,0.01c0.32,0.04,0.68,0.09,1.01,0.19
			c0.22,0.06,0.44,0.17,0.65,0.27c0.1,0.05,0.19,0.09,0.29,0.13c0.22,0.1,0.44,0.23,0.64,0.37c0.08,0.05,0.16,0.1,0.24,0.15
			c0.07,0.04,0.13,0.08,0.2,0.12C24.88,11.55,25.08,11.67,25.26,11.8z"/>
		<path d="M13.06,13.11c0.32,0,0.62-0.06,0.9-0.11c0.06-0.01,0.13-0.02,0.19-0.04c0.3-0.05,0.61-0.11,0.9-0.26
			c0.27-0.14,0.48-0.37,0.69-0.58c0.05-0.05,0.1-0.11,0.16-0.16c0.02-0.02,0.04-0.05,0.03-0.1l0.09-0.1l-0.19-0.02
			c-0.33-0.03-0.65-0.01-1.04,0.07c-0.06,0.01-0.12,0.02-0.18,0.04c-0.28,0.06-0.57,0.11-0.84,0.27c-0.28,0.17-0.55,0.39-0.83,0.67
			l0.07,0.07l-0.08-0.06c-0.04,0.04-0.14,0.14-0.15,0.16l-0.13,0.14l0.19,0.02C12.92,13.11,12.99,13.11,13.06,13.11z M15.67,11.91
			c-0.02,0.02-0.05,0.05-0.07,0.07c-0.21,0.21-0.4,0.42-0.64,0.55c-0.26,0.14-0.55,0.19-0.84,0.24c-0.06,0.01-0.13,0.02-0.19,0.04
			c-0.26,0.05-0.55,0.11-0.85,0.11l0.01-0.01c0.26-0.26,0.53-0.48,0.79-0.64c0.23-0.14,0.5-0.2,0.77-0.25
			c0.06-0.01,0.12-0.02,0.18-0.04C15.14,11.92,15.41,11.9,15.67,11.91z"/>
	</g>
	<path d="M23.16,11.29c0.19-0.29,0.57-0.37,0.85-0.19c0.14,0.09,0.23,0.23,0.25,0.39c0.03,0.16-0.01,0.32-0.1,0.46
		c-0.09,0.14-0.23,0.23-0.38,0.27c-0.04,0.01-0.09,0.02-0.13,0.02c-0.11,0-0.22-0.03-0.32-0.1c-0.14-0.09-0.23-0.23-0.26-0.39
		C23.04,11.59,23.07,11.42,23.16,11.29z M23.26,11.71c0.02,0.11,0.08,0.2,0.18,0.26c0.09,0.06,0.2,0.08,0.31,0.06
		c0.07-0.02,0.13-0.05,0.18-0.1c-0.08,0.02-0.18,0.01-0.26-0.04c-0.15-0.1-0.19-0.3-0.09-0.45c0.09-0.14,0.27-0.18,0.41-0.11
		c-0.02-0.03-0.05-0.05-0.08-0.08c-0.07-0.04-0.14-0.07-0.22-0.07c-0.14,0-0.28,0.07-0.36,0.2C23.26,11.49,23.24,11.6,23.26,11.71z"
		/>
</g>
<g>
	<path class="st9" d="M23.22,19.85c-0.16,0.24-0.08,0.58,0.15,0.74s0.55,0.07,0.71-0.17s0.11-0.55-0.13-0.7
		C23.71,19.56,23.38,19.61,23.22,19.85z"/>
</g>
<g>
	<g>
		<path d="M15.52,20.32c0.09,0,0.19,0,0.28-0.01l0.21-0.02l-0.15-0.14c-0.27-0.26-0.54-0.52-0.85-0.68
			c-0.31-0.17-0.66-0.23-0.99-0.29l-0.05-0.01c-0.34-0.06-0.63-0.07-1.01-0.03l-0.21,0.02l0.15,0.14c0.25,0.24,0.48,0.46,0.8,0.63
			c0.34,0.18,0.71,0.26,1.03,0.32C14.96,20.28,15.23,20.32,15.52,20.32z M15.56,20.13c-0.29,0.01-0.57-0.04-0.8-0.08
			c-0.31-0.06-0.66-0.13-0.98-0.3c-0.23-0.12-0.42-0.28-0.6-0.45c0.26-0.01,0.49,0,0.75,0.05l0.05,0.01
			c0.32,0.06,0.65,0.12,0.94,0.27C15.14,19.75,15.35,19.93,15.56,20.13z"/>
		<path d="M20.64,22.2c0.29,0,0.57-0.04,0.84-0.08c0.07-0.01,0.14-0.02,0.2-0.03c0.31-0.04,0.64-0.11,1.03-0.22
			c0.26-0.07,0.51-0.19,0.75-0.29c0.07-0.03,0.15-0.07,0.22-0.1c0.23-0.1,0.44-0.24,0.64-0.37c0.08-0.06,0.17-0.11,0.26-0.17
			c0.1-0.06,0.21-0.12,0.32-0.18c0.2-0.11,0.41-0.22,0.59-0.36l0.09-0.07l-0.09-0.07c-0.21-0.17-0.46-0.32-0.69-0.46
			c-0.07-0.04-0.13-0.08-0.2-0.12c-0.08-0.05-0.16-0.1-0.23-0.15c-0.21-0.14-0.43-0.28-0.67-0.38c-0.09-0.04-0.19-0.09-0.28-0.13
			c-0.22-0.1-0.45-0.21-0.69-0.28c-0.34-0.1-0.73-0.15-1.04-0.19c-0.24-0.03-0.48-0.02-0.72-0.01c-0.11,0-0.22,0.01-0.33,0.01
			l-0.18,0c-0.28,0-0.58,0-0.86,0.04c-0.34,0.05-0.68,0.14-1.02,0.23c-0.24,0.07-0.47,0.17-0.68,0.28
			c-0.09,0.04-0.18,0.09-0.28,0.13c-0.11,0.05-0.23,0.09-0.35,0.13c-0.21,0.07-0.42,0.15-0.62,0.27c-0.27,0.17-0.55,0.37-0.85,0.61
			l-0.04,0.03l0,0.05c0,0.05,0.05,0.1,0.06,0.1c0.28,0.23,0.59,0.42,0.86,0.58c0.23,0.14,0.47,0.24,0.71,0.34
			c0.08,0.03,0.15,0.06,0.23,0.1c0.12,0.05,0.24,0.13,0.36,0.2c0.18,0.11,0.36,0.22,0.57,0.28c0.2,0.06,0.42,0.06,0.63,0.06
			c0.14,0,0.29,0,0.42,0.02c0.13,0.02,0.27,0.06,0.41,0.1C20.21,22.14,20.42,22.2,20.64,22.2z M25.26,20.32
			c-0.14,0.1-0.3,0.19-0.46,0.27c-0.11,0.06-0.22,0.12-0.33,0.19c-0.09,0.05-0.18,0.11-0.26,0.17c-0.2,0.13-0.39,0.26-0.61,0.35
			c-0.08,0.03-0.15,0.07-0.23,0.1c-0.23,0.11-0.47,0.21-0.72,0.28c-0.38,0.11-0.7,0.18-1,0.22c-0.07,0.01-0.14,0.02-0.21,0.03
			c-0.27,0.04-0.54,0.08-0.81,0.08c-0.19,0-0.38-0.05-0.57-0.11c-0.14-0.04-0.29-0.08-0.43-0.1c-0.15-0.02-0.3-0.02-0.45-0.02
			c-0.2,0-0.4,0-0.58-0.05c-0.18-0.05-0.35-0.15-0.52-0.26c-0.12-0.08-0.25-0.15-0.39-0.21c-0.08-0.03-0.16-0.07-0.23-0.1
			c-0.24-0.1-0.47-0.2-0.69-0.33c-0.25-0.15-0.53-0.32-0.78-0.52c0.26-0.21,0.51-0.38,0.75-0.53c0.18-0.11,0.37-0.18,0.58-0.25
			c0.12-0.04,0.24-0.09,0.36-0.14c0.09-0.04,0.19-0.09,0.28-0.13c0.21-0.1,0.43-0.2,0.65-0.27c0.33-0.09,0.66-0.18,0.99-0.23
			c0.27-0.04,0.54-0.04,0.84-0.03l0.18,0c0.11,0,0.23,0,0.34-0.01c0.24-0.01,0.46-0.02,0.68,0.01c0.32,0.04,0.68,0.09,1.01,0.19
			c0.22,0.06,0.44,0.17,0.65,0.27c0.1,0.05,0.19,0.09,0.29,0.13c0.22,0.1,0.44,0.23,0.64,0.37c0.08,0.05,0.16,0.1,0.24,0.15
			c0.07,0.04,0.13,0.08,0.2,0.12C24.88,20.07,25.08,20.19,25.26,20.32z"/>
		<path d="M13.06,21.63c0.32,0,0.62-0.06,0.9-0.11c0.06-0.01,0.13-0.02,0.19-0.04c0.3-0.05,0.61-0.11,0.9-0.26
			c0.27-0.14,0.48-0.37,0.69-0.58c0.05-0.05,0.1-0.11,0.16-0.16c0.02-0.02,0.04-0.05,0.03-0.1l0.09-0.1l-0.19-0.02
			c-0.33-0.03-0.65-0.01-1.04,0.07c-0.06,0.01-0.12,0.02-0.18,0.04c-0.28,0.06-0.57,0.11-0.84,0.27c-0.28,0.17-0.55,0.39-0.83,0.67
			l0.07,0.07l-0.08-0.06c-0.04,0.04-0.14,0.14-0.15,0.16l-0.13,0.14l0.19,0.02C12.92,21.63,12.99,21.63,13.06,21.63z M15.67,20.43
			c-0.02,0.02-0.05,0.05-0.07,0.07c-0.21,0.21-0.4,0.42-0.64,0.55c-0.26,0.14-0.55,0.19-0.84,0.24c-0.06,0.01-0.13,0.02-0.19,0.04
			c-0.26,0.05-0.55,0.11-0.85,0.11l0.01-0.01c0.26-0.26,0.53-0.48,0.79-0.64c0.23-0.14,0.5-0.2,0.77-0.25
			c0.06-0.01,0.12-0.02,0.18-0.04C15.14,20.44,15.41,20.42,15.67,20.43z"/>
	</g>
	<path d="M23.16,19.81c0.19-0.29,0.57-0.37,0.85-0.19c0.14,0.09,0.23,0.23,0.25,0.39c0.03,0.16-0.01,0.32-0.1,0.46
		c-0.09,0.14-0.23,0.23-0.38,0.27c-0.04,0.01-0.09,0.02-0.13,0.02c-0.11,0-0.22-0.03-0.32-0.1c-0.14-0.09-0.23-0.23-0.26-0.39
		C23.04,20.11,23.07,19.95,23.16,19.81z M23.26,20.23c0.02,0.11,0.08,0.2,0.18,0.26c0.09,0.06,0.2,0.08,0.31,0.06
		c0.07-0.02,0.13-0.05,0.18-0.1c-0.08,0.02-0.18,0.01-0.26-0.04c-0.15-0.1-0.19-0.3-0.09-0.45c0.09-0.14,0.27-0.18,0.41-0.11
		c-0.02-0.03-0.05-0.05-0.08-0.08c-0.07-0.04-0.14-0.07-0.22-0.07c-0.14,0-0.28,0.07-0.36,0.2C23.26,20.01,23.24,20.12,23.26,20.23z
		"/>
</g>
</svg>
